<svg width="230" height="330" viewBox="0 0 230 330" fill="none" xmlns="http://www.w3.org/2000/svg">
<path d="M20.1163 316.945C19.8828 316.946 19.6565 316.864 19.4764 316.715C19.2962 316.566 19.1735 316.359 19.1291 316.129C19.0848 315.9 19.1216 315.662 19.2334 315.456C19.3451 315.251 19.5248 315.091 19.7415 315.003C69.5134 295.142 111.572 263.248 141.367 222.77C141.525 222.555 141.763 222.411 142.027 222.372C142.291 222.332 142.56 222.399 142.774 222.558C142.989 222.717 143.132 222.955 143.171 223.22C143.211 223.485 143.144 223.754 142.985 223.969C112.964 264.75 70.6081 296.875 20.4869 316.873C20.3694 316.922 20.2434 316.946 20.1163 316.945V316.945Z" fill="black"/>
<path d="M173.5 168.146C173.372 168.146 173.244 168.122 173.125 168.073C173.003 168.024 172.891 167.951 172.797 167.858C172.702 167.766 172.627 167.655 172.575 167.534C172.524 167.412 172.496 167.281 172.495 167.149C172.493 167.017 172.518 166.885 172.567 166.763C193.439 114.866 196.667 57.6513 181.908 1.30716C181.868 1.17724 181.854 1.04045 181.868 0.905063C181.882 0.769675 181.923 0.638491 181.989 0.519429C182.054 0.400367 182.144 0.295892 182.251 0.212318C182.358 0.128745 182.481 0.0678135 182.612 0.0331789C182.744 -0.00145574 182.881 -0.00907894 183.015 0.0107995C183.149 0.0306779 183.278 0.0776352 183.394 0.148827C183.51 0.22002 183.61 0.313965 183.688 0.425014C183.767 0.536062 183.822 0.661906 183.851 0.794938C198.721 57.566 195.466 115.191 174.433 167.518C174.358 167.704 174.229 167.864 174.063 167.975C173.896 168.087 173.7 168.147 173.5 168.146V168.146Z" fill="black"/>
<path d="M115.742 279.233C115.601 279.234 115.462 279.205 115.333 279.147C115.205 279.09 115.09 279.006 114.996 278.9C114.907 278.802 114.839 278.687 114.794 278.562C114.75 278.437 114.73 278.305 114.737 278.172C114.744 278.04 114.776 277.91 114.833 277.791C114.89 277.671 114.97 277.563 115.069 277.475C145.984 249.559 169.411 216.119 184.698 178.13C205.106 127.382 209.369 71.1996 197.051 15.6665C197.021 15.5372 197.018 15.4034 197.04 15.2727C197.063 15.1421 197.111 15.0172 197.182 14.9052C197.252 14.7933 197.345 14.6965 197.453 14.6206C197.562 14.5446 197.684 14.491 197.813 14.4627C198.074 14.4066 198.345 14.4552 198.57 14.5981C198.795 14.7411 198.954 14.9669 199.014 15.2268C211.439 71.1441 207.146 127.753 186.585 178.881C171.187 217.169 147.59 250.844 116.444 278.969C116.254 279.145 116.001 279.24 115.742 279.233Z" fill="black"/>
<path d="M7.66587 329.234C7.4103 329.234 7.15473 329.234 6.89491 329.192C4.99188 328.985 3.24445 328.043 2.02491 326.564C0.805376 325.086 0.210126 323.188 0.36594 321.277C0.521754 319.365 1.41634 317.589 2.85911 316.329C4.30188 315.068 6.17878 314.422 8.09 314.528C10.0012 314.634 11.7957 315.483 13.0911 316.895C14.3865 318.308 15.0805 320.171 15.0252 322.088C14.9699 324.006 14.1697 325.826 12.7951 327.16C11.4204 328.495 9.58 329.239 7.66587 329.234V329.234ZM3.44471 325.209C4.23759 326.183 5.34294 326.852 6.57243 327.101C7.80192 327.35 9.0795 327.164 10.1876 326.575C11.2956 325.985 12.1656 325.03 12.6493 323.87C13.133 322.71 13.2005 321.418 12.8403 320.214C12.4801 319.01 11.7145 317.968 10.6739 317.267C9.63327 316.565 8.38204 316.246 7.13333 316.365C5.88462 316.484 4.71568 317.033 3.82563 317.919C2.93558 318.805 2.37948 319.972 2.25206 321.223C2.17696 321.934 2.24372 322.653 2.44847 323.338C2.65322 324.023 2.99186 324.661 3.44471 325.214V325.209Z" fill="black"/>
<path d="M216.142 103.533C215.891 103.535 215.649 103.44 215.465 103.269C215.34 103.155 215.247 103.012 215.192 102.852C215.138 102.692 215.125 102.521 215.154 102.355L217.347 89.6907C217.378 89.5105 217.458 89.3422 217.577 89.2038C217.697 89.0655 217.851 88.9622 218.025 88.9053C218.199 88.8499 218.385 88.8424 218.563 88.8837C218.742 88.925 218.906 89.0136 219.038 89.14L228.409 98.2063C228.532 98.3257 228.623 98.4744 228.673 98.6385C228.722 98.8026 228.73 98.9767 228.694 99.1444C228.658 99.3122 228.58 99.468 228.468 99.5974C228.356 99.7267 228.212 99.8253 228.051 99.8838C222.361 101.924 216.461 103.486 216.406 103.504C216.319 103.525 216.231 103.535 216.142 103.533V103.533ZM219.004 91.9103L217.407 101.134C219.23 100.622 222.471 99.6747 225.836 98.5222L219.004 91.9103Z" fill="black"/>
<path d="M228.754 81.0812C228.635 81.0821 228.517 81.0619 228.405 81.0214C228.171 80.9318 222.621 78.8018 221.534 73.4833C221.189 71.7759 221.931 69.8337 222.714 67.772C223.498 65.7103 224.35 63.4779 224.035 61.5827C223.788 60.093 222.297 58.5947 220.717 56.9727C218.791 55.0177 216.802 52.9945 216.508 50.4632C216.278 48.4997 217.743 46.4679 219.162 44.4873C220.32 42.8781 221.522 41.2177 221.445 40.0439C221.351 38.5285 219.767 37.0004 218.37 35.6558C217.305 34.6271 216.38 33.7393 216.001 32.7874C215.952 32.6644 215.928 32.5329 215.93 32.4004C215.932 32.268 215.959 32.1372 216.012 32.0155C216.064 31.8938 216.139 31.7836 216.234 31.6912C216.329 31.5988 216.441 31.526 216.564 31.477C216.686 31.4279 216.818 31.4036 216.95 31.4054C217.082 31.4071 217.212 31.435 217.334 31.4873C217.455 31.5396 217.565 31.6154 217.657 31.7103C217.75 31.8052 217.822 31.9174 217.871 32.0404C218.088 32.5868 218.94 33.4063 219.767 34.2003C221.343 35.7241 223.311 37.6151 223.455 39.9158C223.575 41.811 222.178 43.7574 220.793 45.6655C219.601 47.3216 218.37 49.029 218.506 50.2157C218.719 52.0554 220.465 53.8268 222.152 55.5428C223.839 57.2587 225.666 59.1155 226.02 61.2327C226.446 63.67 225.453 66.2225 224.597 68.4891C223.915 70.2733 223.277 71.9551 223.507 73.082C224.358 77.2908 229.044 79.1134 229.108 79.1305C229.328 79.2133 229.513 79.3712 229.629 79.5765C229.746 79.7818 229.786 80.0215 229.744 80.2538C229.702 80.4861 229.58 80.6962 229.399 80.8474C229.218 80.9986 228.99 81.0814 228.754 81.0812V81.0812Z" fill="black"/>
</svg>
