<svg width="261" height="465" viewBox="0 0 261 465" fill="none" xmlns="http://www.w3.org/2000/svg">
<g clip-path="url(#clip0_8_140)">
<path d="M123.607 24.5226C125.174 23.881 130.844 22.151 134.326 16.8702C136.786 13.138 138.645 6.88979 135.855 3.09718C135.16 2.14987 132.877 -0.406537 122.075 0.0368861C108.384 0.597884 98.7648 5.12282 98.7648 5.12282C76.46 15.6138 71.7476 28.5806 53.557 38.6752C30.2506 51.6151 18.8999 40.6001 8.77602 51.6957C-7.67357 69.7283 -1.39489 119.143 30.9766 139.302C52.841 152.917 87.0679 153.307 102.57 136.242C127.842 108.377 104.738 32.2489 123.607 24.5226Z" fill="#A60303"/>
<path d="M132.608 404.617L131.815 434.105L121.396 435.23L116.24 403.499L132.608 404.617Z" fill="white"/>
<path d="M121.396 435.969C121.222 435.969 121.054 435.908 120.921 435.797C120.788 435.686 120.698 435.532 120.666 435.361L115.513 403.63C115.495 403.519 115.502 403.407 115.534 403.3C115.566 403.193 115.622 403.095 115.697 403.012C115.773 402.93 115.866 402.866 115.97 402.825C116.074 402.784 116.185 402.768 116.297 402.776L132.662 403.895C132.853 403.908 133.032 403.994 133.161 404.135C133.29 404.277 133.359 404.463 133.355 404.654L132.561 434.138C132.556 434.32 132.485 434.493 132.362 434.625C132.238 434.758 132.07 434.84 131.889 434.857L121.469 435.983L121.396 435.969ZM117.123 404.301L122.011 434.417L131.086 433.436L131.842 405.309L117.123 404.301Z" fill="black"/>
<path d="M191.735 414.299L193.395 437.783L179.628 438.909L174.711 414.299H191.735Z" fill="white"/>
<path d="M179.628 439.651C179.456 439.651 179.289 439.592 179.156 439.483C179.023 439.374 178.932 439.222 178.899 439.053L173.985 414.443C173.963 414.336 173.966 414.225 173.993 414.119C174.019 414.012 174.069 413.913 174.138 413.828C174.208 413.744 174.295 413.675 174.394 413.628C174.493 413.581 174.601 413.557 174.711 413.556H191.735C191.922 413.557 192.103 413.628 192.24 413.755C192.377 413.883 192.461 414.058 192.474 414.245L194.155 437.729C194.168 437.923 194.105 438.114 193.98 438.262C193.854 438.41 193.676 438.503 193.483 438.522L179.702 439.648L179.628 439.651ZM175.615 415.041L180.226 438.116L192.605 437.108L191.042 415.044L175.615 415.041Z" fill="black"/>
<path d="M175.947 449.023C175.477 448.708 175.089 448.284 174.817 447.788C174.544 447.292 174.395 446.737 174.381 446.171C174.29 442.728 174.28 435.388 175.672 432.63C177.517 428.968 185.127 434.071 185.127 434.071C185.127 434.071 189.584 427.9 192.185 426.6C193.53 425.928 201.439 431.186 209.401 438.358C218.14 446.212 222.073 448.718 223.955 455.49C224.153 456.241 224.182 457.027 224.041 457.791C223.9 458.555 223.591 459.279 223.138 459.91C222.685 460.541 222.097 461.065 221.418 461.443C220.739 461.821 219.985 462.045 219.209 462.098C211.199 462.662 195.022 461.705 175.947 449.023Z" fill="#F29F05"/>
<path d="M215.69 462.954C206.87 462.954 192.293 460.781 175.537 449.641C174.967 449.26 174.497 448.748 174.167 448.148C173.836 447.547 173.655 446.876 173.638 446.191C173.537 442.221 173.578 435.136 175.01 432.294C175.204 431.9 175.482 431.554 175.824 431.278C176.165 431.003 176.563 430.805 176.989 430.698C179.581 430.027 183.426 432.14 184.942 433.073C186.135 431.488 189.577 427.074 191.863 425.938C194.148 424.803 204.138 432.613 209.905 437.8C211.28 439.04 212.537 440.151 213.687 441.159C219.908 446.631 223.031 449.376 224.674 455.288C224.908 456.133 224.951 457.019 224.799 457.882C224.646 458.745 224.303 459.563 223.794 460.277C223.277 461.013 222.603 461.624 221.821 462.067C221.038 462.51 220.167 462.773 219.27 462.837C218.214 462.907 217.018 462.954 215.69 462.954ZM178.099 432.049C177.852 432.046 177.605 432.075 177.366 432.136C177.142 432.187 176.933 432.288 176.754 432.432C176.575 432.576 176.432 432.758 176.334 432.966C175.393 434.827 174.953 439.637 175.124 446.158C175.134 446.604 175.251 447.042 175.466 447.434C175.681 447.825 175.986 448.16 176.357 448.409C195.271 460.982 211.314 461.916 219.165 461.355C219.843 461.306 220.501 461.106 221.092 460.771C221.682 460.436 222.191 459.973 222.58 459.417C222.963 458.884 223.222 458.272 223.338 457.627C223.455 456.981 223.425 456.318 223.253 455.685C221.727 450.196 218.715 447.545 212.712 442.271C211.562 441.263 210.299 440.148 208.921 438.912C200.111 430.991 193.51 427.154 192.471 427.296C190.525 428.273 186.945 432.838 185.749 434.515C185.637 434.669 185.469 434.774 185.281 434.808C185.093 434.842 184.899 434.802 184.74 434.696C183.52 433.886 180.267 432.046 178.099 432.046V432.049Z" fill="black"/>
<path d="M211.952 456.598C203.603 456.598 189.994 454.627 176.818 444.119C176.671 443.994 176.578 443.816 176.559 443.624C176.541 443.432 176.598 443.24 176.719 443.089C176.839 442.938 177.014 442.84 177.206 442.816C177.398 442.792 177.591 442.844 177.746 442.96C198.131 459.219 219.518 454.496 219.73 454.445C219.827 454.418 219.928 454.41 220.028 454.423C220.128 454.436 220.224 454.469 220.311 454.52C220.397 454.571 220.473 454.639 220.532 454.72C220.592 454.801 220.634 454.893 220.657 454.991C220.68 455.089 220.682 455.19 220.665 455.289C220.647 455.388 220.609 455.483 220.554 455.567C220.499 455.651 220.427 455.723 220.343 455.778C220.259 455.834 220.165 455.872 220.066 455.89C219.986 455.91 216.887 456.598 211.952 456.598Z" fill="black"/>
<path d="M136.726 441.273L136.571 425.129C136.571 425.129 133.334 420.234 128.894 424.212C128.894 424.212 124.787 418.461 117.167 425.633C117.167 425.633 106.445 445.607 101.706 457.489C101.406 458.224 101.289 459.021 101.365 459.812C101.441 460.602 101.708 461.362 102.143 462.027C102.577 462.692 103.167 463.242 103.86 463.629C104.554 464.016 105.331 464.23 106.126 464.251C111.046 464.365 117.409 464.1 120.182 462.235C124.515 459.309 131.946 450.078 135.163 445.923C136.195 444.594 136.746 442.955 136.726 441.273Z" fill="#F29F05"/>
<path d="M108.105 465C107.464 465 106.795 465 106.106 464.977C105.197 464.961 104.306 464.722 103.511 464.283C102.716 463.843 102.041 463.215 101.544 462.454C101.039 461.689 100.726 460.813 100.633 459.901C100.54 458.989 100.669 458.068 101.01 457.217C105.716 445.432 116.408 425.482 116.515 425.28C116.553 425.21 116.601 425.146 116.66 425.092C119.591 422.334 122.401 421.061 125.012 421.319C126.506 421.473 127.903 422.132 128.972 423.187C130.283 422.179 131.63 421.776 133.005 421.951C135.566 422.287 137.143 424.638 137.207 424.722C137.287 424.84 137.33 424.979 137.331 425.122L137.482 441.267C137.499 443.106 136.895 444.898 135.768 446.353C131.953 451.257 124.911 459.924 120.616 462.813C118.461 464.271 114.28 465 108.105 465ZM117.766 426.09C116.912 427.685 106.885 446.504 102.388 457.764C102.132 458.393 102.033 459.074 102.102 459.75C102.171 460.425 102.404 461.073 102.781 461.637C103.147 462.198 103.644 462.661 104.23 462.985C104.816 463.309 105.473 463.484 106.143 463.495C112.888 463.653 117.725 462.978 119.765 461.6C124.048 458.705 131.553 449.336 134.578 445.442C135.5 444.252 135.995 442.786 135.983 441.28L135.832 425.374C135.476 424.914 134.339 423.614 132.79 423.419C131.684 423.281 130.538 423.735 129.388 424.763C129.311 424.832 129.219 424.885 129.12 424.916C129.021 424.948 128.916 424.959 128.812 424.947C128.708 424.936 128.608 424.903 128.518 424.85C128.428 424.798 128.35 424.726 128.289 424.642C127.867 424.119 127.344 423.686 126.752 423.368C126.16 423.05 125.51 422.854 124.841 422.791C122.71 422.596 120.33 423.705 117.766 426.09Z" fill="black"/>
<path d="M128.898 433.658C128.701 433.658 128.512 433.58 128.372 433.441C128.233 433.301 128.155 433.113 128.155 432.916V424.215C128.148 424.114 128.162 424.012 128.196 423.916C128.23 423.82 128.284 423.733 128.353 423.658C128.423 423.584 128.507 423.525 128.6 423.484C128.694 423.444 128.794 423.423 128.896 423.423C128.998 423.423 129.098 423.444 129.192 423.484C129.285 423.525 129.369 423.584 129.439 423.658C129.508 423.733 129.562 423.82 129.596 423.916C129.63 424.012 129.644 424.114 129.637 424.215V432.919C129.636 433.115 129.558 433.302 129.42 433.441C129.281 433.579 129.094 433.657 128.898 433.658Z" fill="black"/>
<path d="M195.916 415.632C195.916 415.632 199.842 356.351 193.395 303.03C186.949 249.708 162.97 173.563 162.97 173.563C162.97 173.563 137.17 172.391 118.391 174.907C99.6118 177.423 92.1735 174.837 92.1735 174.837C92.1735 174.837 78.1608 190.887 79.3036 221.04C80.4464 251.193 113.161 378.432 111.907 408.292C111.907 408.292 122.911 413.818 137.159 411.07L131.267 239.61C131.267 239.61 143.489 274.909 149.236 299.092C153.901 318.795 162.009 331.56 162.009 331.56C162.009 331.56 161.673 377.387 172.186 415.424C172.193 415.421 184.626 419.307 195.916 415.632Z" fill="black"/>
<path d="M175.285 351.971C175.164 351.969 175.044 351.937 174.938 351.879C174.831 351.82 174.74 351.736 174.673 351.635L165.666 338.534C165.605 338.454 165.562 338.362 165.538 338.265C165.514 338.168 165.51 338.066 165.526 337.968C165.542 337.869 165.578 337.774 165.632 337.689C165.686 337.605 165.756 337.532 165.839 337.475C165.921 337.418 166.014 337.379 166.113 337.359C166.211 337.34 166.312 337.34 166.41 337.36C166.509 337.381 166.602 337.421 166.684 337.478C166.766 337.535 166.836 337.609 166.889 337.694L175.897 350.795C175.973 350.906 176.018 351.037 176.026 351.172C176.034 351.306 176.005 351.441 175.942 351.561C175.879 351.68 175.784 351.78 175.669 351.85C175.553 351.92 175.42 351.957 175.285 351.957V351.971Z" fill="white"/>
<path d="M114.697 320.115C111.574 320.115 107.615 319.507 104.314 317.058C104.171 316.936 104.079 316.764 104.058 316.577C104.037 316.389 104.087 316.201 104.2 316.05C104.312 315.899 104.478 315.796 104.663 315.763C104.848 315.729 105.04 315.767 105.198 315.869C111.06 320.212 119.584 318.109 119.651 318.086C119.839 318.046 120.035 318.08 120.198 318.181C120.361 318.282 120.479 318.443 120.526 318.629C120.573 318.815 120.547 319.012 120.452 319.178C120.357 319.345 120.202 319.469 120.017 319.523C118.272 319.923 116.487 320.122 114.697 320.115Z" fill="white"/>
<path d="M243.991 44.9C243.991 44.9 255.651 34.0932 258.972 31.3386C262.746 28.2179 254.105 27.1765 243.043 37.308L243.991 44.9Z" fill="white"/>
<path d="M243.994 45.6424C243.907 45.6417 243.821 45.6258 243.739 45.5953C243.611 45.549 243.498 45.4679 243.413 45.3611C243.328 45.2543 243.275 45.1261 243.258 44.9907L242.307 37.3987C242.292 37.2813 242.306 37.1619 242.347 37.0508C242.387 36.9397 242.455 36.8401 242.542 36.7605C250.159 29.7866 257.019 27.7946 259.449 28.6042C259.729 28.6704 259.985 28.8143 260.186 29.0194C260.388 29.2244 260.527 29.4822 260.589 29.7631C260.72 30.435 260.333 31.174 259.446 31.9097C256.179 34.6206 244.613 45.3468 244.499 45.4442C244.361 45.5702 244.181 45.6408 243.994 45.6424ZM243.826 37.5801L244.549 43.3581C247.514 40.6203 255.752 33.0283 258.498 30.7507C258.758 30.568 258.971 30.3247 259.116 30.0419C258.246 29.4171 252.011 30.2334 243.826 37.5969V37.5801Z" fill="black"/>
<path d="M244.966 42.7097C245.036 43.3077 245.11 43.9056 245.218 44.4969C245.396 45.5046 245.641 47.9233 244.189 49.4619C242.737 51.0004 235.914 54.6922 232.677 56.4088C231.573 56.9892 230.6 57.7895 229.817 58.7603C228.738 60.104 231.669 74.4347 231.669 74.4347L219.905 70.2289C219.905 70.2289 221.317 50.6846 223.898 42.7433C226.479 34.802 233.309 31.0329 235.071 31.2815C236.832 31.5301 237.376 34.9095 237.376 34.9095C237.376 34.9095 241.201 31.9601 243.517 33.5356C244.734 34.3653 244.146 35.7661 244.334 37.1199L244.966 42.7097Z" fill="white"/>
<path d="M231.669 75.1871C231.584 75.1877 231.5 75.1729 231.42 75.1435L219.656 70.9377C219.504 70.8841 219.373 70.7815 219.285 70.646C219.197 70.5105 219.156 70.3497 219.169 70.1886C219.226 69.3857 220.614 50.4629 223.202 42.525C225.834 34.4056 232.802 30.2334 235.171 30.5693C236.714 30.7877 237.494 32.5244 237.86 33.7203C239.265 32.8671 241.968 31.6006 243.947 32.9477C245.131 33.7539 245.09 34.9633 245.057 35.9408C245.033 36.3069 245.039 36.6743 245.077 37.0393L245.702 42.6258C245.766 43.1868 245.84 43.7847 245.944 44.3659C246.139 45.4543 246.414 48.182 244.724 49.9725C243.272 51.5144 236.771 55.0752 233.024 57.0639C232.006 57.6 231.11 58.3399 230.392 59.2373C229.935 60.2015 231.064 67.8169 232.392 74.2969C232.414 74.4047 232.412 74.5161 232.386 74.623C232.36 74.73 232.311 74.8297 232.241 74.915C232.171 75.0004 232.084 75.0691 231.984 75.1161C231.885 75.1632 231.776 75.1875 231.666 75.1871H231.669ZM220.681 69.7351L230.684 73.306C229.582 67.7598 228.194 59.6169 229.239 58.3102C230.083 57.2544 231.135 56.384 232.331 55.7538C238.479 52.4953 242.707 49.9523 243.648 48.9546C244.875 47.6546 244.657 45.4979 244.489 44.6279C244.374 44.0064 244.297 43.3782 244.23 42.7937L243.594 37.2173C243.543 36.7713 243.532 36.3216 243.561 35.8736C243.594 34.8658 243.561 34.4728 243.097 34.157C241.564 33.1157 238.771 34.7751 237.823 35.5007C237.722 35.5783 237.602 35.6283 237.475 35.6459C237.348 35.6635 237.219 35.648 237.1 35.6011C236.981 35.5541 236.876 35.4772 236.795 35.3778C236.715 35.2784 236.661 35.1599 236.64 35.0338C236.489 34.1067 235.884 32.1482 234.96 32.0105C233.561 31.8223 227.051 35.4201 224.594 42.9684C222.318 50.0027 220.937 66.4833 220.681 69.7351Z" fill="black"/>
<path d="M234.361 50.473C234.111 50.4728 233.862 50.4378 233.622 50.3689C232.187 49.9725 230.597 48.2861 230.469 44.7488C230.267 39.4378 236.889 34.3586 237.171 34.1436C237.329 34.0315 237.523 33.9851 237.714 34.0142C237.905 34.0433 238.078 34.1456 238.194 34.2994C238.311 34.4533 238.363 34.6465 238.34 34.8382C238.316 35.0299 238.219 35.2049 238.069 35.3261C238.005 35.3731 231.78 40.1533 231.951 44.6917C232.059 47.4329 233.131 48.696 234.018 48.9412C234.634 49.1091 235.232 48.8236 235.665 48.1585C236.492 46.9083 236.871 45.4153 236.741 43.9224C236.724 43.7344 236.78 43.547 236.896 43.3984C237.013 43.2498 237.181 43.1511 237.368 43.1225C237.555 43.0938 237.745 43.1373 237.901 43.2441C238.057 43.3509 238.166 43.513 238.206 43.6974C238.393 45.5521 237.934 47.4144 236.909 48.9714C236.645 49.4156 236.273 49.786 235.828 50.0484C235.382 50.3109 234.878 50.4569 234.361 50.473Z" fill="black"/>
<path d="M134.83 64.0848C132.484 63.6995 130.362 62.4633 128.871 60.6127C127.38 58.7621 126.623 56.427 126.747 54.054L127.147 46.4251C131.755 46.0656 135.59 43.8687 135.58 42.4141C135.58 41.702 133.882 34.7684 132.824 31.903C133.718 31.1774 134.803 29.1752 132.881 27.9491C130.958 26.723 126.632 18.9228 126.632 18.9228C121.301 12.7283 119.762 21.459 115.779 22.1846C113.023 22.6885 111.524 24.3681 112.566 27.9693C113.608 31.5704 111.628 29.7665 109.598 28.7385C107.568 27.7106 106.19 28.5101 107.306 31.7854C108.421 35.0607 112.475 37.0259 112.475 37.0259L114.398 40.8017L110.344 59.3516C109.966 61.0765 109.155 62.6771 107.988 64.0028C106.821 65.3285 105.336 66.3358 103.672 66.9301L98.0892 68.9188L127.436 84.2773L141.61 65.1933L134.83 64.0848Z" fill="white"/>
<path d="M127.436 85.0197C127.318 85.0191 127.203 84.9903 127.099 84.9357L97.753 69.5772C97.629 69.5088 97.5271 69.4064 97.4594 69.282C97.3917 69.1576 97.3609 69.0165 97.3708 68.8753C97.3807 68.734 97.4308 68.5986 97.5152 68.4849C97.5996 68.3711 97.7148 68.2839 97.8471 68.2335L103.43 66.2448C104.978 65.6983 106.36 64.7645 107.445 63.5325C108.529 62.3005 109.28 60.8113 109.625 59.2071L113.608 40.8991L111.927 37.5768C111.01 37.0863 107.662 35.1245 106.61 32.0239C105.937 30.0856 106.035 28.7385 106.862 28.023C107.272 27.6669 108.206 27.2034 109.941 28.0768C110.32 28.2682 110.697 28.4866 111.057 28.6949C111.416 28.9031 111.799 29.1215 112.105 29.2626C112.052 28.894 111.97 28.5301 111.86 28.1742C111.309 26.2628 111.393 24.7074 112.112 23.5485C112.784 22.4668 113.971 21.7647 115.651 21.4557C116.824 21.244 117.86 20.0414 118.861 18.8825C120.091 17.4514 121.365 15.9733 123.15 15.9733C124.447 15.9733 125.772 16.7796 127.2 18.439C127.232 18.4783 127.262 18.5198 127.288 18.5633C128.921 21.5161 131.993 26.508 133.281 27.3243C133.681 27.5484 134.019 27.8683 134.265 28.2553C134.51 28.6423 134.656 29.0842 134.689 29.5414C134.701 30.4947 134.339 31.4148 133.681 32.1045C134.743 35.1951 136.309 41.5777 136.316 42.4074C136.333 44.3894 132.303 46.583 127.849 47.1104L127.489 54.0842C127.372 56.2753 128.069 58.4325 129.446 60.1413C130.824 61.8501 132.784 62.9901 134.951 63.3424L141.731 64.4509C141.856 64.4721 141.974 64.5249 142.073 64.6042C142.173 64.6836 142.25 64.7869 142.299 64.9044C142.346 65.0222 142.363 65.1503 142.346 65.2763C142.33 65.4022 142.281 65.5218 142.205 65.6233L128.03 84.7207C127.961 84.8134 127.872 84.8887 127.768 84.9406C127.665 84.9925 127.551 85.0196 127.436 85.0197ZM99.9344 69.0498L127.22 83.3266L140.289 65.7274L134.713 64.8137C132.185 64.4039 129.897 63.0748 128.291 61.0819C126.684 59.089 125.87 56.5729 126.007 54.017L126.404 46.3848C126.413 46.2071 126.487 46.0389 126.61 45.9106C126.733 45.7824 126.899 45.7027 127.076 45.6861C131.563 45.3501 134.83 43.2136 134.823 42.4175C134.793 41.7456 133.176 35.0271 132.114 32.1583C132.061 32.0134 132.055 31.8556 132.096 31.7069C132.137 31.5582 132.223 31.426 132.343 31.3285C132.597 31.1207 132.803 30.8614 132.949 30.5678C133.095 30.2742 133.177 29.953 133.19 29.6254C133.166 29.404 133.088 29.192 132.961 29.0085C132.835 28.825 132.665 28.6756 132.467 28.5739C130.491 27.3176 126.612 20.4311 126.01 19.3494C124.915 18.093 123.947 17.4581 123.133 17.4548C122.031 17.4548 121.029 18.6204 119.967 19.8499C118.797 21.1936 117.591 22.6079 115.903 22.9136C114.653 23.1454 113.796 23.619 113.356 24.3278C112.868 25.1173 112.838 26.2728 113.268 27.7644C113.658 29.1081 113.779 30.1158 113.12 30.6164C112.391 31.1875 111.467 30.6533 110.297 29.9781C109.961 29.7833 109.608 29.5784 109.255 29.4003C108.499 29.0174 107.988 28.9938 107.816 29.1417C107.645 29.2895 107.48 29.9848 107.998 31.5469C109.006 34.4829 112.751 36.3439 112.788 36.3607C112.933 36.4329 113.051 36.5509 113.124 36.6966L115.046 40.4691C115.124 40.6226 115.147 40.7981 115.11 40.9663L111.06 59.5162C110.661 61.3664 109.794 63.0837 108.543 64.5044C107.291 65.9251 105.697 67.0019 103.911 67.6321L99.9344 69.0498Z" fill="black"/>
<path d="M125.469 47.3657C121.1 47.3657 119.201 43.3682 119.177 43.3346C119.104 43.158 119.102 42.96 119.171 42.7819C119.24 42.6037 119.376 42.4591 119.549 42.3782C119.722 42.2972 119.92 42.2862 120.101 42.3473C120.282 42.4085 120.433 42.5371 120.522 42.7064C120.599 42.871 122.505 46.7677 126.975 45.7062C127.07 45.6842 127.168 45.681 127.264 45.6968C127.36 45.7126 127.452 45.7472 127.534 45.7985C127.617 45.8498 127.688 45.9169 127.745 45.9959C127.802 46.0748 127.842 46.1642 127.864 46.2588C127.886 46.3534 127.889 46.4515 127.874 46.5473C127.858 46.6432 127.823 46.735 127.772 46.8175C127.72 46.9 127.653 46.9716 127.574 47.0282C127.495 47.0848 127.406 47.1253 127.311 47.1473C126.708 47.2921 126.09 47.3654 125.469 47.3657Z" fill="black"/>
<path d="M234.126 71.9421C229.084 69.1505 222.332 67.0443 216.234 65.6939C215.035 70.2221 216.1 66.8259 213.31 74.1189C207.895 88.2648 205.19 95.336 200.242 96.4278C194.192 97.7715 186.296 90.4752 180.411 79.8632L173.857 72.2982C170.111 67.9781 165.283 64.7317 159.868 62.8922C147.13 61.776 134.315 61.8806 121.597 63.2046C103.734 65.0042 86.2226 69.3657 69.6032 76.1546C69.6032 76.1546 28.2977 100.204 29.0641 138.758C29.8304 177.312 54.2258 190.02 54.2258 190.02L67.9361 171.161C67.9361 171.161 42.297 143.159 80.1842 117.625C78.6179 134.881 73.4249 180.137 78.3524 185.653C81.411 189.076 87.609 188.472 99.8639 187.121C119.023 185.012 122.313 180.688 134.696 179.469C156.765 177.295 165.84 189.107 173.739 183.678C178.556 180.393 182.512 170.987 175.396 141.963C173.704 133.941 172.036 125.856 170.391 117.709C188.243 130.739 206.336 134.915 216.994 128.035C223.606 123.769 226.573 115.75 229.094 108.941C235.178 92.521 235.618 79.3862 234.126 71.9421Z" fill="white"/>
<path d="M54.2225 190.763C54.1054 190.761 53.9903 190.733 53.8864 190.679C53.641 190.551 29.0943 177.319 28.3414 138.771C27.5616 100.039 68.8234 75.7414 69.2402 75.5063L69.3276 75.466C86.0133 68.6478 103.595 64.2672 121.53 62.4589C134.294 61.1332 147.155 61.0286 159.938 62.1465C159.998 62.1507 160.057 62.1631 160.113 62.1834C165.654 64.0691 170.594 67.3943 174.425 71.8178L180.979 79.3829C181.011 79.4235 181.04 79.4662 181.066 79.5105C187.09 90.3744 194.726 96.8847 200.084 95.7056C204.638 94.6978 207.304 87.7374 212.614 73.8703C213.532 71.4752 214.033 70.2289 214.335 69.4764C214.652 68.7674 214.895 68.0278 215.061 67.2694C215.166 66.8629 215.307 66.312 215.519 65.5192C215.566 65.3334 215.685 65.1737 215.849 65.0739C216.012 64.9741 216.209 64.9422 216.396 64.985C220.557 65.9055 228.439 67.9546 234.486 71.3072C234.579 71.3602 234.66 71.4326 234.723 71.5195C234.787 71.6064 234.83 71.7058 234.852 71.8111C235.578 75.4189 237.359 88.7855 229.793 109.213C227.306 115.932 224.214 124.273 217.394 128.673C206.81 135.503 189.338 131.945 171.494 119.422C173.006 126.893 174.559 134.421 176.122 141.825C181.937 165.501 181.302 179.402 174.173 184.303C170.082 187.111 165.659 185.647 160.056 183.762C153.848 181.686 146.117 179.106 134.776 180.221C129.254 180.766 125.61 181.921 121.396 183.245C116.297 184.861 110.519 186.695 99.9546 187.857C87.8544 189.201 81.1724 189.926 77.7944 186.147C73.6265 181.478 75.9558 153.539 78.6985 125.318C78.9204 123.05 79.1221 120.967 79.2968 119.133C67.9058 127.135 61.5465 136.141 60.3869 145.917C58.7332 159.834 68.3831 170.553 68.4806 170.661C68.5963 170.787 68.6646 170.95 68.6738 171.12C68.6829 171.291 68.6325 171.46 68.531 171.598L54.8241 190.471C54.7537 190.563 54.6626 190.637 54.5581 190.688C54.4536 190.739 54.3386 190.764 54.2225 190.763ZM69.9326 76.8197C69.0856 77.3203 59.318 83.1856 49.5303 93.5623C40.3341 103.334 29.4136 119.103 29.8035 138.738C30.4758 173.143 50.4243 186.849 54.004 189.039L66.9748 171.198C65.0757 168.941 57.3484 158.833 58.9079 145.738C60.165 135.15 67.1798 125.482 79.7472 117.007C79.8627 116.928 79.998 116.884 80.1375 116.879C80.277 116.874 80.415 116.909 80.5356 116.979C80.6562 117.05 80.7545 117.153 80.819 117.276C80.8835 117.4 80.9116 117.539 80.9001 117.679C80.7018 119.865 80.4464 122.502 80.1607 125.452C78.2851 144.717 74.7828 180.574 78.8868 185.149C81.6362 188.23 87.2897 187.749 99.7731 186.376C110.193 185.227 115.907 183.416 120.928 181.82C125.227 180.477 128.935 179.281 134.615 178.723C146.272 177.574 154.5 180.326 160.496 182.331C166.109 184.209 169.82 185.448 173.299 183.057C179.769 178.609 180.219 164.839 174.643 142.131C172.963 134.089 171.282 125.926 169.635 117.846C169.607 117.699 169.624 117.547 169.684 117.41C169.744 117.273 169.844 117.157 169.971 117.077C170.096 116.995 170.244 116.954 170.393 116.958C170.543 116.962 170.688 117.012 170.808 117.101C188.676 130.141 206.211 134.092 216.571 127.404C222.974 123.272 225.847 115.515 228.382 108.672C235.591 89.2054 234.176 76.3663 233.444 72.4158C229.242 70.1415 223.36 68.0789 216.749 66.5639L216.48 67.6154C216.297 68.4364 216.033 69.2375 215.693 70.0072C215.391 70.7529 214.893 71.9925 213.982 74.3742C208.48 88.7485 205.721 95.9642 200.383 97.14C194.306 98.4837 186.223 91.8659 179.786 80.2832L173.302 72.7853C169.664 68.5831 164.978 65.418 159.72 63.6111C147.058 62.5162 134.321 62.6287 121.681 63.947C103.898 65.7376 86.4651 70.0775 69.9192 76.8332L69.9326 76.8197Z" fill="black"/>
<path d="M65.7681 174.144L78.9876 186.144L85.4478 175.73L104.022 171.148C104.022 171.148 103.302 176.204 93.7734 177.437L109.151 177.101C109.151 177.101 106.862 181.431 97.2623 180.917L107.137 182.596C107.137 182.596 100.751 184.034 97.6489 185.361L94.5599 186.688C94.5599 186.688 91.4172 188.626 89.3535 190.984C87.2897 193.343 83.9756 195.96 79.5153 196.742C75.0551 197.525 55.93 187.672 55.93 187.672L65.7681 174.144Z" fill="white"/>
<path d="M78.9876 197.525C73.6097 197.525 57.4761 189.301 55.5871 188.324C55.4924 188.274 55.4096 188.204 55.344 188.12C55.2785 188.035 55.2319 187.938 55.2073 187.833C55.1823 187.73 55.1801 187.622 55.201 187.518C55.2219 187.413 55.2654 187.315 55.3283 187.229L65.1665 173.694C65.2286 173.611 65.3072 173.541 65.3974 173.489C65.4875 173.437 65.5874 173.404 65.6908 173.392C65.7947 173.382 65.8996 173.393 65.9987 173.426C66.0978 173.459 66.1887 173.513 66.2656 173.583L78.8296 184.981L84.8193 175.354C84.919 175.187 85.081 175.066 85.2697 175.018L103.86 170.443C103.978 170.413 104.101 170.413 104.219 170.443C104.337 170.472 104.445 170.53 104.535 170.611C104.625 170.693 104.694 170.795 104.735 170.909C104.776 171.023 104.789 171.146 104.771 171.266C104.748 171.437 104.25 174.504 99.8235 176.577L109.137 176.362C109.267 176.359 109.394 176.39 109.508 176.452C109.621 176.514 109.717 176.604 109.785 176.714C109.852 176.824 109.89 176.95 109.895 177.079C109.899 177.208 109.87 177.336 109.81 177.45C109.736 177.594 108.317 180.137 103.494 181.229L107.265 181.871C107.434 181.901 107.587 181.988 107.699 182.118C107.811 182.247 107.874 182.412 107.878 182.583C107.883 182.754 107.828 182.922 107.723 183.057C107.618 183.192 107.469 183.287 107.302 183.325C107.238 183.325 100.939 184.763 97.9446 186.05L94.9196 187.353C94.5364 187.595 91.7634 189.369 89.9282 191.478C88.3082 193.333 84.8159 196.578 79.6599 197.478C79.4376 197.513 79.2126 197.529 78.9876 197.525ZM57.0391 187.397C62.8103 190.326 76.0903 196.594 79.3876 196.013C84.0933 195.19 87.3032 192.207 88.7989 190.501C90.9131 188.085 94.039 186.134 94.1768 186.06L94.2743 186.009L97.3632 184.666C99.3633 183.894 101.411 183.252 103.494 182.744L97.138 181.663C96.954 181.628 96.7899 181.525 96.6787 181.374C96.5674 181.224 96.5172 181.037 96.538 180.851C96.5588 180.665 96.6491 180.493 96.7909 180.371C96.9327 180.249 97.1155 180.185 97.3027 180.191C103.114 180.504 106.079 179.005 107.453 177.893L93.7902 178.192C93.6017 178.2 93.4176 178.134 93.2766 178.009C93.1356 177.884 93.0486 177.709 93.034 177.521C93.0194 177.331 93.0778 177.144 93.1972 176.997C93.3166 176.849 93.4879 176.753 93.676 176.728C99.6958 175.948 101.965 173.657 102.808 172.24L85.9184 176.402L79.6195 186.547C79.5615 186.638 79.4841 186.715 79.393 186.773C79.3018 186.831 79.199 186.869 79.0918 186.883C78.9841 186.899 78.8741 186.891 78.7699 186.859C78.6658 186.827 78.5702 186.772 78.4902 186.698L65.879 175.25L57.0391 187.397Z" fill="black"/>
</g>
<defs>
<clipPath id="clip0_8_140">
<rect width="260.612" height="465" fill="white"/>
</clipPath>
</defs>
</svg>
