<svg width="526" height="549" viewBox="0 0 526 549" fill="none" xmlns="http://www.w3.org/2000/svg">
<g clip-path="url(#clip0_8_322)">
<path d="M252.776 445.179C250.565 439.44 236.148 401.178 243.104 378.735C244.072 375.615 245.575 370.767 249.963 366.897C258.726 359.172 267.604 365.397 274.58 359.772C283.781 352.335 273.287 337.488 283.322 316.038C285.722 310.893 289.474 302.883 297.739 298.851C306.971 294.351 312.333 299.451 321.433 295.968C332.788 291.642 331.561 281.016 342.241 270.393C353.5 259.2 375.463 250.5 391.691 259.329C405.835 267.027 410.25 285.129 409.584 297.525C408.601 315.825 396.04 330.801 382.892 337.725C363.997 347.661 344.835 340.425 342.307 347.625C339.953 354.324 356.454 360.879 355.599 373.425C355 382.185 346.158 390.747 337.119 392.961C324.591 396.03 317.324 385.53 309.826 389.532C301.986 393.732 306.353 407.232 300.751 419.457C296.123 429.534 284.054 440.22 252.776 445.179Z" fill="#BFB304"/>
<path d="M252.776 445.842C252.642 445.841 252.511 445.8 252.401 445.724C252.291 445.648 252.206 445.541 252.158 445.416C248.202 435.153 235.822 399.993 242.471 378.54C243.478 375.294 244.996 370.392 249.525 366.402C254.434 362.073 259.473 361.965 263.921 361.869C267.628 361.788 271.119 361.71 274.166 359.256C278.365 355.863 278.212 350.829 277.999 343.866C277.771 336.333 277.483 326.964 282.726 315.759C285.215 310.434 288.976 302.391 297.454 298.254C302.487 295.8 306.452 296.109 310.297 296.406C313.767 296.679 317.045 296.934 321.205 295.347C327.464 292.965 329.716 288.675 332.569 283.242C334.71 279.168 337.136 274.542 341.785 269.925C354.082 257.691 376.231 250.164 392.003 258.747C405.64 266.169 410.991 283.59 410.241 297.558C409.158 317.706 394.99 332.097 383.186 338.298C372.988 343.65 362.641 344.088 355.077 344.409C348.617 344.685 343.95 344.883 342.916 347.829C341.983 350.484 344.685 353.385 347.816 356.742C351.787 361.002 356.733 366.303 356.244 373.452C355.644 382.134 347.139 391.167 337.262 393.585C330.559 395.229 325.401 393.141 320.848 391.302C316.721 389.634 313.464 388.317 310.135 390.102C306.014 392.307 305.513 397.338 304.88 403.707C304.388 408.672 303.831 414.3 301.347 419.718C295.307 432.918 279.001 441.696 252.881 445.836C252.846 445.841 252.811 445.843 252.776 445.842ZM306.362 297.528C303.471 297.491 300.614 298.148 298.03 299.445C289.975 303.375 286.334 311.163 283.919 316.32C278.821 327.237 279.094 336.42 279.321 343.824C279.537 350.895 279.708 356.478 274.997 360.288C271.608 363.024 267.886 363.105 263.945 363.192C259.521 363.288 254.947 363.387 250.401 367.392C246.151 371.136 244.702 375.825 243.736 378.93C237.186 400.059 250.035 436.131 253.202 444.438C278.548 440.337 294.338 431.838 300.142 419.16C302.541 413.943 303.078 408.432 303.561 403.56C304.206 397.068 304.76 391.458 309.505 388.92C313.383 386.844 317.246 388.407 321.34 390.063C325.707 391.827 330.658 393.828 336.935 392.289C346.134 390.036 354.367 381.363 354.912 373.353C355.359 366.774 350.831 361.917 346.836 357.633C343.414 353.961 340.456 350.79 341.656 347.379C342.988 343.587 348.029 343.371 355.008 343.077C362.449 342.759 372.635 342.327 382.559 337.116C394.055 331.074 407.854 317.07 408.906 297.477C409.632 283.92 404.492 267.045 391.358 259.899C376.129 251.613 354.664 258.96 342.706 270.852C338.207 275.331 335.826 279.852 333.729 283.848C330.865 289.302 328.391 294.012 321.667 296.574C317.228 298.263 313.644 297.984 310.183 297.714C308.914 297.627 307.649 297.528 306.362 297.528Z" fill="black"/>
<path d="M252.32 440.961C252.274 440.965 252.228 440.965 252.182 440.961C252.01 440.924 251.86 440.821 251.765 440.673C251.669 440.526 251.636 440.347 251.672 440.175C256.471 417.537 265.744 395.835 279.265 375.675C290.062 359.55 303.597 344.364 319.453 330.543C346.446 307.014 371.246 295.443 371.492 295.323C371.572 295.28 371.659 295.253 371.749 295.245C371.839 295.237 371.93 295.247 372.016 295.276C372.102 295.304 372.182 295.35 372.249 295.41C372.317 295.47 372.371 295.544 372.41 295.626C372.448 295.708 372.469 295.797 372.471 295.888C372.474 295.978 372.457 296.068 372.424 296.152C372.39 296.236 372.339 296.313 372.275 296.376C372.211 296.44 372.134 296.49 372.05 296.523C371.804 296.637 347.157 308.151 320.293 331.569C295.52 353.169 263.729 389.574 252.965 440.469C252.927 440.611 252.843 440.736 252.726 440.825C252.61 440.914 252.467 440.962 252.32 440.961Z" fill="black"/>
<path d="M252.776 445.179C225.052 382.071 228.69 354.489 238.68 341.13C241.664 337.143 248.691 329.73 252.956 316.878C258.489 300.213 254.003 290.613 254.557 276.783C255.646 249.732 275.333 223.845 297.176 211.383C312.432 202.683 341.791 193.05 359.831 207.306C367.461 213.333 375.127 225.252 371.753 233.853C366.933 246.153 342.895 239.406 331.417 255.954C325.155 264.984 330.472 269.556 323.742 279.087C313.134 294.105 294.992 289.737 291.387 300.387C287.893 310.71 304.188 317.487 301.884 330.75C299.242 345.861 277.009 347.913 276.058 362.475C275.495 371.145 283.256 372.201 283.694 382.275C284.225 394.53 273.014 399.657 262.622 417.873C256.795 428.076 254.368 437.751 252.776 445.179Z" fill="#3E5902"/>
<path d="M252.776 445.842C252.648 445.841 252.524 445.803 252.418 445.732C252.311 445.662 252.227 445.563 252.176 445.446C239.529 416.646 232.381 392.805 230.933 374.55C229.781 360.06 232.217 348.681 238.167 340.734C238.632 340.113 239.196 339.408 239.831 338.613C243.175 334.413 248.775 327.417 252.344 316.671C255.967 305.76 255.25 298.023 254.494 289.83C254.113 285.72 253.721 281.466 253.913 276.756C255.082 247.62 277.006 222.156 296.864 210.795C311.628 202.365 341.596 192.027 360.257 206.775C367.494 212.493 376.039 224.745 372.383 234.075C369.983 240.222 363.283 241.803 355.533 243.636C347.259 245.589 337.877 247.806 331.975 256.314C329.003 260.598 328.733 263.793 328.445 267.177C328.145 270.753 327.845 274.449 324.297 279.45C318.599 287.502 310.648 290.157 304.25 292.29C298.321 294.267 293.636 295.83 292.029 300.588C290.421 305.346 293.259 309.243 296.528 313.788C299.92 318.489 303.762 323.817 302.526 330.852C301.173 338.589 294.944 342.966 288.922 347.199C282.899 351.432 277.171 355.455 276.712 362.499C276.445 366.588 278.101 368.829 280.011 371.427C281.922 374.025 284.111 376.983 284.339 382.227C284.669 389.868 280.653 394.746 275.096 401.499C271.431 405.948 267.277 410.994 263.18 418.179C257.595 427.971 255.106 437.379 253.406 445.305C253.377 445.442 253.305 445.566 253.201 445.659C253.097 445.753 252.966 445.81 252.827 445.824L252.776 445.842ZM336.507 200.646C321.979 200.646 306.743 206.682 297.517 211.947C277.954 223.116 256.378 248.178 255.229 276.81C255.043 281.43 255.43 285.639 255.808 289.71C256.576 298.044 257.308 305.91 253.595 317.088C249.951 328.059 244.258 335.184 240.857 339.438C240.233 340.221 239.678 340.917 239.22 341.538C226.323 358.782 230.801 392.931 252.566 443.055C254.281 435.471 256.834 426.681 262.046 417.555C266.2 410.274 270.39 405.183 274.088 400.689C279.459 394.167 283.337 389.451 283.031 382.317C282.821 377.478 280.86 374.817 278.962 372.246C276.973 369.546 275.099 367.017 275.396 362.445C275.896 354.762 282.135 350.379 288.166 346.143C293.969 342.063 299.971 337.848 301.23 330.651C302.361 324.165 298.852 319.296 295.454 314.589C292.11 309.951 288.949 305.568 290.769 300.189C292.59 294.81 297.796 293.07 303.825 291.06C310.363 288.879 317.774 286.407 323.211 278.712C326.534 274.002 326.81 270.645 327.11 267.09C327.41 263.682 327.71 260.16 330.874 255.582C337.064 246.657 346.707 244.38 355.215 242.382C362.602 240.636 368.981 239.13 371.135 233.628C374.188 225.828 367.431 214.173 359.42 207.843C352.852 202.614 344.787 200.646 336.507 200.646Z" fill="black"/>
<path d="M252.062 439.38C251.897 439.38 251.738 439.318 251.616 439.207C251.494 439.097 251.418 438.944 251.402 438.78C249.32 409.873 250.705 380.82 255.529 352.242C259.728 327.408 266.326 304.26 274.667 285.3C287.461 256.17 303.402 238.122 314.523 228.111C326.597 217.239 335.796 213.207 335.886 213.168C336.045 213.11 336.219 213.116 336.374 213.183C336.529 213.25 336.653 213.373 336.72 213.528C336.787 213.683 336.792 213.858 336.735 214.017C336.677 214.176 336.561 214.307 336.411 214.383C336.051 214.539 300.154 230.583 275.878 285.834C257.482 327.717 248.823 384.852 252.716 438.669C252.73 438.842 252.675 439.014 252.562 439.147C252.45 439.28 252.289 439.362 252.116 439.377L252.062 439.38Z" fill="black"/>
<path d="M390.12 260.454C389.84 269.998 388.533 279.483 386.221 288.747C368.502 359.688 296.645 402.828 225.726 385.101C154.808 367.374 111.665 295.5 129.384 224.562C147.103 153.624 218.96 110.484 289.882 128.208L304.736 68.739C200.965 42.8069 95.8564 105.921 69.9316 209.703C44.0068 313.485 107.103 418.641 210.859 444.573C314.616 470.505 419.74 407.4 445.676 303.6C449.305 289.111 451.249 274.252 451.471 259.317L390.12 260.454Z" fill="white"/>
<path d="M258.141 451.089C242.146 451.078 226.213 449.105 210.698 445.215C160.348 432.615 117.906 401.187 91.1987 356.673C64.4911 312.159 56.7083 259.911 69.3048 209.544C81.9013 159.177 113.306 116.727 157.807 89.9999C202.309 63.2729 254.542 55.4999 304.895 68.0999C305.065 68.1432 305.211 68.2508 305.303 68.3999C305.393 68.5505 305.42 68.7306 305.378 68.9009L290.523 128.37C290.48 128.54 290.371 128.685 290.22 128.775C290.07 128.865 289.89 128.892 289.72 128.85C219.266 111.243 147.631 154.251 130.029 224.724C112.427 295.197 155.423 366.852 225.873 384.459C236.31 387.076 247.028 388.401 257.787 388.404C316.796 388.404 370.631 348.384 385.567 288.588C387.872 279.37 389.179 269.931 389.466 260.433C389.472 260.263 389.543 260.102 389.664 259.983C389.785 259.863 389.947 259.795 390.117 259.791L451.453 258.663C451.542 258.659 451.631 258.674 451.713 258.707C451.796 258.741 451.871 258.791 451.933 258.855C451.995 258.917 452.045 258.992 452.078 259.074C452.112 259.156 452.129 259.243 452.128 259.332C451.9 274.318 449.949 289.228 446.312 303.768C433.725 354.132 402.287 396.6 357.801 423.3C327.188 441.672 292.929 451.089 258.141 451.089ZM257.811 63.5999C171.345 63.5999 92.4583 122.244 70.5734 209.865C44.7806 313.128 107.784 418.131 211.018 443.931C261.03 456.429 312.909 448.698 357.108 422.166C401.307 395.634 432.525 353.466 445.02 303.447C448.572 289.228 450.503 274.652 450.775 259.998L390.753 261.105C390.429 270.484 389.123 279.803 386.854 288.909C369.075 360.09 296.714 403.53 225.555 385.746C154.397 367.962 110.969 295.581 128.742 224.4C137.362 189.921 158.878 160.86 189.343 142.569C219.617 124.392 255.127 119.019 289.399 127.407L303.933 69.2069C288.841 65.4853 273.355 63.6026 257.811 63.5999Z" fill="black"/>
<path d="M331.936 117.507C327.344 124.728 324.048 132.597 320.122 139.83C364.252 163.344 391.607 210.258 390.12 260.454L451.456 259.323C452.52 186.612 412.287 119.01 348.005 85.23C344.122 92.835 340.157 100.491 335.907 108.24C334.584 111.549 333.262 114.198 331.936 117.507Z" fill="#F29F05"/>
<path d="M390.12 261.114C390.032 261.114 389.946 261.097 389.865 261.063C389.784 261.03 389.711 260.981 389.649 260.919C389.586 260.855 389.537 260.779 389.504 260.695C389.471 260.612 389.455 260.523 389.457 260.433C390.926 210.852 363.589 163.74 319.81 140.415C319.655 140.331 319.54 140.189 319.49 140.021C319.439 139.852 319.457 139.67 319.54 139.515C320.983 136.854 322.375 134.046 323.715 131.331C326.04 126.633 328.442 121.773 331.345 117.204C332.005 115.56 332.671 114.057 333.318 112.605C333.966 111.153 334.635 109.638 335.292 107.994C335.303 107.969 335.315 107.945 335.328 107.922C339.773 99.8219 343.933 91.7489 347.418 84.9269C347.458 84.8489 347.513 84.7797 347.58 84.723C347.647 84.6664 347.724 84.6235 347.807 84.5969C347.976 84.5452 348.158 84.5613 348.314 84.6419C380.026 101.369 406.501 126.534 424.818 157.36C443.136 188.186 452.583 223.475 452.118 259.332C452.115 259.504 452.046 259.668 451.925 259.79C451.803 259.912 451.64 259.982 451.468 259.986L390.132 261.114H390.12ZM321.019 139.56C342.583 151.235 360.508 168.636 372.819 189.848C385.13 211.059 391.349 235.258 390.792 259.779L450.793 258.675C451.594 187.203 411.429 119.601 348.281 86.1269C344.862 92.8169 340.813 100.647 336.498 108.522C335.838 110.175 335.166 111.684 334.518 113.142C333.87 114.6 333.199 116.109 332.542 117.753C332.528 117.791 332.508 117.828 332.485 117.861C329.606 122.388 327.212 127.233 324.894 131.919C323.652 134.448 322.363 137.055 321.019 139.56Z" fill="black"/>
<path d="M345.279 90.546C346.193 88.77 347.102 86.998 348.005 85.23C334.293 78.0205 319.767 72.481 304.736 68.73L289.881 128.208C300.399 130.831 310.555 134.734 320.122 139.83C324.048 132.597 327.344 124.728 331.936 117.507C333.261 114.207 334.584 111.549 335.907 108.24C339.167 102.3 342.262 96.402 345.279 90.546Z" fill="white"/>
<path d="M320.122 140.493C320.018 140.49 319.915 140.463 319.822 140.415C310.298 135.345 300.188 131.461 289.72 128.85C289.55 128.807 289.405 128.7 289.315 128.55C289.269 128.476 289.239 128.393 289.226 128.307C289.213 128.221 289.218 128.133 289.24 128.049L304.095 68.5769C304.115 68.4925 304.152 68.413 304.204 68.343C304.255 68.273 304.32 68.2138 304.395 68.1689C304.545 68.0789 304.725 68.052 304.895 68.0939C319.975 71.8622 334.551 77.4175 348.314 84.6419C348.392 84.6821 348.462 84.7374 348.518 84.8045C348.574 84.8716 348.617 84.9493 348.643 85.033C348.669 85.1167 348.679 85.2048 348.671 85.2922C348.663 85.3795 348.637 85.4644 348.596 85.5419C347.691 87.3119 346.781 89.0849 345.867 90.8609C342.349 97.6859 339.374 103.302 336.507 108.534C335.847 110.187 335.175 111.696 334.527 113.154C333.879 114.612 333.208 116.121 332.551 117.765C332.537 117.803 332.517 117.84 332.494 117.873C329.615 122.4 327.221 127.245 324.903 131.931C323.553 134.658 322.159 137.478 320.704 140.157C320.646 140.26 320.561 140.345 320.459 140.404C320.357 140.463 320.24 140.494 320.122 140.493ZM290.682 127.728C300.811 130.31 310.601 134.073 319.852 138.939C321.184 136.452 322.471 133.839 323.715 131.331C326.04 126.633 328.442 121.773 331.345 117.204C332.005 115.56 332.671 114.057 333.319 112.605C333.966 111.153 334.635 109.638 335.292 107.994C335.303 107.969 335.315 107.945 335.328 107.922C338.195 102.69 341.17 97.0709 344.691 90.2429C345.505 88.6629 346.314 87.0859 347.118 85.5119C333.816 78.584 319.754 73.2241 305.216 69.5399L290.682 127.728Z" fill="black"/>
<path d="M218.741 106.311C220.136 105.738 225.196 104.193 228.306 99.4769C230.501 96.1439 232.16 90.5639 229.67 87.1769C229.049 86.3309 227.013 84.0479 217.374 84.4439C205.161 84.9449 196.574 88.9859 196.574 88.9859C176.675 98.3549 172.47 109.935 156.239 118.95C135.451 130.5 125.311 120.657 116.278 130.566C101.6 146.67 107.202 190.8 136.087 208.8C155.582 220.959 186.137 221.307 199.97 206.067C222.52 181.2 201.904 113.202 218.741 106.311Z" fill="black"/>
<path d="M226.773 445.743L226.065 472.077L216.768 473.079L212.167 444.744L226.773 445.743Z" fill="white"/>
<path d="M216.768 473.742C216.611 473.742 216.459 473.686 216.339 473.584C216.219 473.483 216.14 473.342 216.114 473.187L211.513 444.849C211.498 444.75 211.505 444.65 211.534 444.554C211.562 444.459 211.612 444.371 211.678 444.297C211.746 444.224 211.828 444.166 211.921 444.13C212.013 444.093 212.113 444.077 212.212 444.084L226.818 445.083C226.989 445.095 227.148 445.171 227.263 445.298C227.378 445.424 227.44 445.59 227.436 445.761L226.737 472.092C226.733 472.254 226.669 472.408 226.559 472.527C226.448 472.645 226.298 472.719 226.137 472.734L216.84 473.739L216.768 473.742ZM212.956 445.461L217.32 472.356L225.417 471.48L226.092 446.361L212.956 445.461Z" fill="black"/>
<path d="M279.531 454.389L281.013 475.362L268.728 476.367L264.341 454.389H279.531Z" fill="white"/>
<path d="M268.725 477.03C268.572 477.029 268.424 476.976 268.306 476.879C268.188 476.781 268.107 476.646 268.078 476.496L263.693 454.518C263.674 454.422 263.676 454.323 263.7 454.228C263.724 454.133 263.768 454.045 263.83 453.969C263.892 453.894 263.97 453.832 264.058 453.79C264.146 453.748 264.243 453.726 264.341 453.726H279.522C279.687 453.726 279.846 453.788 279.968 453.898C280.09 454.009 280.166 454.162 280.182 454.326L281.664 475.299C281.677 475.472 281.622 475.644 281.509 475.776C281.397 475.909 281.237 475.992 281.064 476.007L268.767 477.012L268.725 477.03ZM265.147 455.052L269.262 475.659L280.308 474.759L278.922 455.052H265.147Z" fill="black"/>
<path d="M265.444 485.4C265.025 485.118 264.679 484.74 264.435 484.297C264.192 483.853 264.059 483.358 264.047 482.853C263.966 479.778 263.957 473.223 265.198 470.76C266.842 467.49 273.635 472.047 273.635 472.047C273.635 472.047 277.612 466.536 279.933 465.375C281.133 464.775 288.187 469.47 295.295 475.875C303.093 482.889 306.602 485.127 308.278 491.175C308.455 491.846 308.481 492.547 308.355 493.229C308.229 493.912 307.955 494.557 307.55 495.121C307.146 495.685 306.623 496.152 306.017 496.49C305.411 496.828 304.738 497.028 304.047 497.076C296.9 497.58 282.462 496.725 265.444 485.4Z" fill="black"/>
<path d="M300.903 497.841C293.037 497.841 280.026 495.9 265.079 485.952C264.57 485.612 264.151 485.154 263.856 484.618C263.561 484.082 263.399 483.483 263.384 482.871C263.291 479.325 263.327 472.998 264.605 470.46C264.778 470.108 265.027 469.798 265.332 469.552C265.638 469.306 265.993 469.13 266.374 469.035C268.686 468.435 272.118 470.322 273.47 471.156C274.532 469.74 277.606 465.798 279.645 464.784C281.685 463.77 290.598 470.745 295.745 475.377C296.972 476.484 298.093 477.477 299.119 478.377C304.67 483.264 307.457 485.715 308.923 490.995C309.131 491.749 309.169 492.54 309.033 493.311C308.897 494.082 308.591 494.812 308.137 495.45C307.677 496.107 307.075 496.653 306.377 497.049C305.679 497.444 304.901 497.679 304.101 497.736C303.159 497.796 302.091 497.841 300.903 497.841ZM267.364 470.241C267.143 470.238 266.924 470.264 266.71 470.319C266.51 470.364 266.323 470.454 266.164 470.582C266.004 470.711 265.876 470.874 265.789 471.06C264.95 472.722 264.557 477.018 264.707 482.841C264.717 483.24 264.822 483.63 265.014 483.98C265.206 484.33 265.479 484.628 265.81 484.851C282.687 496.08 297.002 496.914 304.008 496.413C304.612 496.369 305.199 496.191 305.726 495.891C306.253 495.592 306.707 495.179 307.055 494.682C307.396 494.206 307.627 493.66 307.731 493.083C307.835 492.507 307.809 491.914 307.655 491.349C306.293 486.447 303.606 484.08 298.249 479.37C297.221 478.47 296.096 477.474 294.866 476.37C287.005 469.296 281.115 465.87 280.188 465.996C278.452 466.869 275.258 470.946 274.19 472.443C274.089 472.58 273.94 472.674 273.772 472.704C273.605 472.734 273.432 472.699 273.29 472.605C272.201 471.882 269.298 470.238 267.364 470.238V470.241Z" fill="black"/>
<path d="M297.571 492.165C290.121 492.165 277.978 490.404 266.221 481.02C266.096 480.907 266.018 480.75 266.004 480.582C265.99 480.413 266.041 480.246 266.147 480.114C266.252 479.982 266.403 479.895 266.571 479.871C266.738 479.847 266.908 479.888 267.046 479.985C285.236 494.505 304.323 490.287 304.511 490.242C304.598 490.217 304.688 490.211 304.777 490.222C304.866 490.234 304.952 490.263 305.029 490.308C305.107 490.354 305.174 490.415 305.227 490.487C305.28 490.56 305.318 490.642 305.338 490.73C305.359 490.817 305.361 490.908 305.345 490.996C305.33 491.084 305.296 491.169 305.247 491.244C305.198 491.319 305.134 491.383 305.059 491.433C304.984 491.482 304.9 491.516 304.811 491.532C304.739 491.55 301.974 492.165 297.571 492.165Z" fill="black"/>
<path d="M230.447 478.479L230.309 464.061C230.309 464.061 227.421 459.69 223.459 463.242C223.459 463.242 219.794 458.106 212.995 464.511C212.995 464.511 203.428 482.349 199.199 492.96C198.934 493.616 198.831 494.327 198.901 495.032C198.97 495.736 199.209 496.414 199.597 497.006C199.984 497.598 200.51 498.088 201.128 498.433C201.746 498.778 202.438 498.968 203.146 498.987C207.539 499.089 213.217 498.852 215.691 497.187C219.557 494.574 226.188 486.33 229.058 482.619C229.975 481.435 230.464 479.976 230.447 478.479Z" fill="black"/>
<path d="M204.909 499.668C204.333 499.668 203.733 499.661 203.11 499.647C202.302 499.631 201.51 499.418 200.803 499.027C200.097 498.635 199.496 498.077 199.055 497.4C198.604 496.717 198.325 495.935 198.242 495.12C198.159 494.306 198.274 493.483 198.578 492.723C202.777 482.199 212.317 464.382 212.413 464.202C212.446 464.139 212.49 464.082 212.542 464.034C215.157 461.571 217.665 460.434 219.992 460.665C221.326 460.801 222.574 461.39 223.528 462.333C224.698 461.433 225.9 461.073 227.127 461.229C229.412 461.529 230.819 463.614 230.876 463.704C230.946 463.81 230.985 463.934 230.987 464.061L231.122 478.479C231.136 480.122 230.596 481.722 229.589 483.021C226.188 487.401 219.905 495.141 216.069 497.721C214.141 499.017 210.404 499.668 204.909 499.668ZM213.541 464.919C212.779 466.344 203.832 483.15 199.82 493.206C199.59 493.767 199.502 494.376 199.563 494.979C199.624 495.583 199.833 496.161 200.17 496.665C200.496 497.166 200.94 497.58 201.463 497.869C201.986 498.158 202.572 498.315 203.17 498.324C209.186 498.465 213.505 497.862 215.325 496.632C219.146 494.046 225.84 485.679 228.543 482.202C229.365 481.138 229.806 479.829 229.796 478.485L229.661 464.28C229.34 463.869 228.33 462.708 226.947 462.534C225.96 462.411 224.938 462.816 223.912 463.734C223.842 463.796 223.761 463.843 223.672 463.871C223.584 463.9 223.49 463.909 223.397 463.899C223.305 463.889 223.216 463.859 223.135 463.812C223.055 463.765 222.985 463.702 222.931 463.626C222.554 463.159 222.088 462.772 221.559 462.489C221.031 462.205 220.451 462.029 219.854 461.973C217.937 461.796 215.814 462.789 213.541 464.919Z" fill="black"/>
<path d="M223.462 471.678C223.286 471.678 223.118 471.608 222.993 471.484C222.869 471.359 222.799 471.191 222.799 471.015V463.245C222.793 463.154 222.806 463.064 222.836 462.978C222.867 462.892 222.914 462.814 222.976 462.748C223.038 462.681 223.113 462.628 223.197 462.592C223.28 462.556 223.37 462.537 223.46 462.537C223.551 462.537 223.641 462.556 223.724 462.592C223.808 462.628 223.883 462.681 223.945 462.748C224.007 462.814 224.054 462.892 224.085 462.978C224.115 463.064 224.128 463.154 224.122 463.245V471.018C224.121 471.193 224.051 471.36 223.928 471.484C223.804 471.607 223.637 471.677 223.462 471.678Z" fill="black"/>
<path d="M283.259 455.58C283.259 455.58 286.765 402.639 281.013 355.02C275.261 307.401 253.865 239.4 253.865 239.4C253.865 239.4 230.843 238.353 214.087 240.6C197.33 242.847 190.693 240.537 190.693 240.537C190.693 240.537 178.184 254.865 179.203 281.799C180.223 308.733 209.414 422.358 208.295 449.025C208.295 449.025 218.111 453.96 230.828 451.506L225.576 298.383C225.576 298.383 236.481 329.907 241.601 351.504C245.773 369.108 253.013 380.496 253.013 380.496C253.013 380.496 252.713 421.422 262.094 455.391C262.094 455.4 273.188 458.862 283.259 455.58Z" fill="#F20505"/>
<path d="M264.854 398.727C264.745 398.725 264.638 398.697 264.543 398.645C264.448 398.592 264.367 398.518 264.308 398.427L256.27 386.727C256.216 386.655 256.177 386.574 256.156 386.487C256.134 386.4 256.131 386.31 256.145 386.221C256.16 386.133 256.192 386.049 256.24 385.973C256.288 385.897 256.35 385.832 256.424 385.782C256.498 385.731 256.581 385.696 256.669 385.678C256.757 385.661 256.847 385.661 256.935 385.679C257.022 385.697 257.105 385.733 257.178 385.784C257.252 385.835 257.314 385.901 257.362 385.977L265.399 397.677C265.468 397.776 265.507 397.893 265.514 398.013C265.521 398.134 265.496 398.254 265.439 398.361C265.383 398.467 265.299 398.557 265.196 398.619C265.092 398.682 264.974 398.715 264.854 398.715V398.727Z" fill="white"/>
<path d="M210.79 370.278C208.004 370.278 204.471 369.735 201.526 367.548C201.398 367.439 201.316 367.285 201.298 367.118C201.279 366.951 201.324 366.783 201.424 366.648C201.524 366.513 201.672 366.421 201.837 366.391C202.003 366.361 202.174 366.395 202.315 366.486C207.545 370.365 215.148 368.487 215.211 368.466C215.379 368.43 215.554 368.461 215.699 368.551C215.845 368.641 215.95 368.785 215.992 368.951C216.034 369.117 216.011 369.293 215.926 369.442C215.841 369.591 215.702 369.701 215.538 369.75C213.981 370.107 212.388 370.284 210.79 370.278Z" fill="white"/>
<path d="M326.159 124.5C326.159 124.5 336.564 114.849 339.527 112.389C342.895 109.593 335.187 108.672 325.314 117.72L326.159 124.5Z" fill="white"/>
<path d="M326.159 125.16C326.083 125.159 326.006 125.145 325.934 125.118C325.82 125.076 325.719 125.004 325.643 124.908C325.567 124.813 325.518 124.699 325.503 124.578L324.657 117.798C324.643 117.693 324.655 117.587 324.692 117.487C324.729 117.388 324.788 117.299 324.867 117.228C331.663 111 337.781 109.221 339.953 109.944C340.202 110.003 340.43 110.132 340.61 110.315C340.79 110.498 340.915 110.728 340.969 110.979C341.083 111.579 340.741 112.239 339.95 112.896C337.034 115.317 326.714 124.896 326.609 124.983C326.487 125.097 326.326 125.16 326.159 125.16ZM326.012 117.975L326.657 123.135C329.303 120.69 336.654 113.91 339.104 111.876C339.336 111.712 339.525 111.495 339.656 111.243C338.879 110.67 333.315 111.384 326.009 117.975H326.012Z" fill="black"/>
<path d="M327.029 122.541C327.092 123.075 327.158 123.609 327.254 124.137C327.413 125.037 327.632 127.197 326.336 128.571C325.041 129.945 318.952 133.242 316.064 134.775C315.079 135.293 314.21 136.008 313.512 136.875C312.549 138.075 315.165 150.873 315.165 150.873L304.667 147.117C304.667 147.117 305.927 129.663 308.233 122.571C310.54 115.479 316.631 112.113 318.203 112.335C319.774 112.557 320.26 115.575 320.26 115.575C320.26 115.575 323.67 112.941 325.74 114.348C326.825 115.089 326.297 116.34 326.468 117.549L327.029 122.541Z" fill="white"/>
<path d="M315.165 151.545C315.089 151.545 315.014 151.532 314.943 151.506L304.446 147.75C304.309 147.702 304.193 147.61 304.114 147.489C304.035 147.368 303.997 147.225 304.008 147.081C304.062 146.364 305.3 129.465 307.607 122.376C309.967 115.125 316.184 111.396 318.299 111.69C319.675 111.885 320.368 113.436 320.698 114.504C321.952 113.742 324.36 112.611 326.127 113.814C327.185 114.534 327.149 115.614 327.119 116.487C327.098 116.814 327.104 117.142 327.137 117.468L327.707 122.466C327.767 122.967 327.83 123.501 327.926 124.02C328.1 124.992 328.346 127.428 326.837 129.027C325.542 130.404 319.738 133.584 316.397 135.36C315.489 135.839 314.69 136.499 314.049 137.301C313.641 138.162 314.649 144.963 315.848 150.75C315.868 150.846 315.867 150.946 315.844 151.041C315.82 151.137 315.776 151.226 315.714 151.302C315.652 151.378 315.574 151.439 315.485 151.482C315.396 151.524 315.299 151.545 315.201 151.545H315.165ZM305.36 146.676L314.286 149.865C313.302 144.912 312.063 137.64 312.993 136.473C313.748 135.531 314.688 134.754 315.755 134.19C321.238 131.28 325.014 129.009 325.854 128.118C326.948 126.957 326.753 125.031 326.6 124.254C326.501 123.699 326.432 123.138 326.372 122.616L325.806 117.636C325.758 117.238 325.748 116.836 325.776 116.436C325.806 115.536 325.776 115.185 325.362 114.903C323.994 113.973 321.502 115.455 320.656 116.103C320.565 116.172 320.458 116.217 320.345 116.233C320.232 116.248 320.117 116.235 320.011 116.193C319.904 116.151 319.811 116.082 319.739 115.993C319.667 115.904 319.619 115.799 319.6 115.686C319.465 114.858 318.926 113.109 318.101 112.986C316.853 112.818 311.044 116.031 308.851 122.772C306.815 129.054 305.588 143.772 305.36 146.676Z" fill="black"/>
<path d="M317.567 129.474C317.344 129.474 317.122 129.442 316.907 129.381C315.626 129.027 314.208 127.521 314.094 124.362C313.914 119.619 319.822 115.083 320.074 114.891C320.215 114.797 320.386 114.761 320.552 114.789C320.719 114.818 320.868 114.908 320.97 115.043C321.072 115.178 321.119 115.347 321.1 115.515C321.082 115.682 321 115.837 320.872 115.947C320.818 115.989 315.264 120.258 315.417 124.311C315.509 126.759 316.469 127.887 317.261 128.106C317.807 128.256 318.341 128.001 318.731 127.407C319.468 126.29 319.806 124.957 319.69 123.624C319.675 123.456 319.725 123.289 319.829 123.156C319.933 123.023 320.083 122.935 320.25 122.909C320.416 122.884 320.587 122.923 320.725 123.018C320.864 123.113 320.962 123.258 320.998 123.423C321.164 125.08 320.754 126.743 319.837 128.133C319.602 128.529 319.271 128.86 318.874 129.095C318.477 129.329 318.028 129.46 317.567 129.474Z" fill="black"/>
<path d="M228.756 141.63C226.662 141.286 224.769 140.182 223.438 138.529C222.107 136.877 221.433 134.791 221.543 132.672L221.899 125.859C226.011 125.538 229.433 123.576 229.424 122.277C229.424 121.641 227.91 115.449 226.965 112.89C227.763 112.242 228.732 110.454 227.013 109.359C225.294 108.264 221.441 101.298 221.441 101.298C216.684 95.7659 215.31 103.563 211.756 104.211C209.297 104.661 207.959 106.161 208.889 109.377C209.819 112.593 208.052 110.982 206.241 110.064C204.429 109.146 203.2 109.86 204.192 112.785C205.185 115.71 208.808 117.465 208.808 117.465L210.521 120.837L206.922 137.403C206.582 138.946 205.855 140.377 204.809 141.561C203.764 142.746 202.433 143.644 200.944 144.171L195.963 145.947L222.148 159.663L234.805 142.62L228.756 141.63Z" fill="white"/>
<path d="M222.157 160.326C222.053 160.325 221.95 160.3 221.857 160.251L195.666 146.535C195.555 146.474 195.464 146.382 195.404 146.271C195.343 146.16 195.316 146.034 195.325 145.908C195.334 145.782 195.378 145.661 195.453 145.56C195.529 145.458 195.632 145.38 195.75 145.335L200.731 143.559C202.113 143.071 203.346 142.237 204.314 141.137C205.281 140.037 205.951 138.707 206.259 137.274L209.825 120.936L208.325 117.969C207.506 117.531 204.519 115.779 203.581 113.01C202.981 111.279 203.068 110.076 203.805 109.437C204.171 109.119 205.005 108.705 206.553 109.485C206.892 109.656 207.228 109.851 207.545 110.037C207.863 110.223 208.208 110.418 208.484 110.544C208.437 110.215 208.363 109.89 208.265 109.572C207.773 107.865 207.848 106.476 208.49 105.441C209.09 104.475 210.149 103.848 211.648 103.572C212.695 103.383 213.619 102.309 214.509 101.274C215.61 99.996 216.747 98.676 218.339 98.676C219.497 98.676 220.679 99.396 221.938 100.878C221.966 100.913 221.991 100.95 222.013 100.989C223.474 103.626 226.212 108.084 227.364 108.813C227.721 109.014 228.022 109.299 228.241 109.645C228.461 109.99 228.591 110.385 228.621 110.793C228.63 111.644 228.307 112.465 227.721 113.082C228.666 115.842 230.066 121.542 230.072 122.283C230.087 124.053 226.491 126.012 222.517 126.483L222.19 132.729C222.087 134.686 222.709 136.613 223.939 138.139C225.168 139.665 226.918 140.682 228.852 140.997L234.901 141.987C235.013 142.005 235.118 142.052 235.207 142.123C235.296 142.194 235.365 142.286 235.407 142.391C235.45 142.497 235.464 142.611 235.45 142.724C235.435 142.836 235.392 142.943 235.324 143.034L222.688 160.059C222.626 160.142 222.546 160.209 222.454 160.255C222.362 160.301 222.26 160.326 222.157 160.326ZM197.618 146.064L221.962 158.814L233.635 143.1L228.657 142.284C226.402 141.917 224.361 140.73 222.928 138.95C221.495 137.171 220.77 134.924 220.892 132.642L221.246 125.826C221.254 125.667 221.32 125.517 221.43 125.403C221.54 125.288 221.687 125.217 221.845 125.202C225.852 124.902 228.768 122.994 228.762 122.283C228.735 121.683 227.292 115.683 226.344 113.121C226.297 112.992 226.291 112.851 226.327 112.718C226.364 112.585 226.441 112.467 226.548 112.38C226.775 112.194 226.959 111.963 227.089 111.701C227.219 111.438 227.293 111.152 227.304 110.859C227.283 110.661 227.213 110.472 227.1 110.308C226.987 110.144 226.836 110.011 226.659 109.92C224.896 108.798 221.432 102.648 220.895 101.682C219.92 100.56 219.056 99.993 218.327 99.99C217.344 99.99 216.447 101.031 215.502 102.129C214.458 103.329 213.382 104.592 211.873 104.865C210.758 105.069 209.996 105.495 209.603 106.128C209.168 106.833 209.141 107.865 209.525 109.197C209.87 110.397 209.981 111.297 209.393 111.744C208.739 112.254 207.914 111.777 206.871 111.174C206.571 111 206.271 110.817 205.944 110.658C205.269 110.316 204.813 110.295 204.66 110.427C204.507 110.559 204.36 111.18 204.819 112.575C205.719 115.197 209.063 116.859 209.096 116.874C209.225 116.939 209.331 117.044 209.396 117.174L211.111 120.543C211.181 120.68 211.201 120.837 211.168 120.987L207.542 137.544C207.188 139.197 206.416 140.731 205.299 142C204.183 143.269 202.76 144.23 201.166 144.792L197.618 146.064Z" fill="black"/>
<path d="M220.403 126.705C216.504 126.705 214.806 123.135 214.788 123.105C214.723 122.947 214.721 122.77 214.783 122.611C214.845 122.452 214.966 122.323 215.12 122.251C215.275 122.179 215.451 122.169 215.613 122.223C215.775 122.278 215.909 122.393 215.988 122.544C216.057 122.691 217.758 126.171 221.746 125.223C221.917 125.183 222.096 125.213 222.245 125.305C222.394 125.398 222.5 125.546 222.54 125.716C222.579 125.887 222.55 126.067 222.457 126.215C222.365 126.364 222.217 126.47 222.046 126.51C221.508 126.639 220.956 126.705 220.403 126.705Z" fill="black"/>
<path d="M317.354 148.647C312.855 146.154 306.833 144.273 301.392 143.067C300.322 147.111 301.272 144.078 298.78 150.591C293.951 163.224 291.537 169.539 287.122 170.514C281.724 171.714 274.679 165.198 269.427 155.721L263.582 148.965C260.238 145.107 255.929 142.208 251.096 140.565C239.732 139.57 228.298 139.665 216.951 140.847C201.011 142.45 185.385 146.341 170.554 152.4C170.554 152.4 133.697 173.886 134.378 208.317C135.059 242.748 156.829 254.1 156.829 254.1L169.066 237.258C169.066 237.258 146.185 212.25 179.992 189.447C178.597 204.855 173.952 245.271 178.361 250.2C181.09 253.257 186.62 252.717 197.555 251.511C214.65 249.627 217.59 245.766 228.636 244.677C248.331 242.733 256.429 253.281 263.483 248.433C267.772 245.484 271.311 237.087 264.952 211.179C263.445 204.015 261.956 196.795 260.487 189.519C276.415 201.156 292.557 204.885 302.07 198.741C307.97 194.931 310.618 187.77 312.867 181.689C318.296 167.025 318.692 155.295 317.354 148.647Z" fill="white"/>
<path d="M156.83 254.76C156.725 254.759 156.622 254.733 156.53 254.685C156.311 254.571 134.405 242.754 133.736 208.329C133.049 173.739 169.876 152.04 170.248 151.83L170.326 151.794C185.213 145.705 200.9 141.793 216.903 140.178C228.292 138.993 239.768 138.899 251.174 139.896C251.229 139.899 251.282 139.91 251.333 139.929C256.278 141.613 260.685 144.582 264.104 148.533L269.925 155.289C269.955 155.324 269.982 155.362 270.003 155.403C275.381 165.105 282.192 170.919 286.975 169.866C291.039 168.966 293.418 162.75 298.156 150.366C298.975 148.227 299.422 147.114 299.692 146.442C299.974 145.809 300.191 145.148 300.34 144.471C300.433 144.108 300.559 143.616 300.748 142.908C300.79 142.742 300.896 142.599 301.042 142.51C301.188 142.421 301.363 142.393 301.53 142.431C305.243 143.253 312.276 145.083 317.672 148.077C317.755 148.124 317.828 148.189 317.884 148.266C317.94 148.344 317.98 148.433 317.999 148.527C318.647 151.749 320.236 163.686 313.5 181.929C311.281 187.929 308.521 195.378 302.436 199.308C292.992 205.407 277.402 202.23 261.476 191.046C262.829 197.718 264.215 204.441 265.606 211.053C270.789 232.2 270.225 244.602 263.858 248.979C260.211 251.487 256.264 250.179 251.261 248.496C245.722 246.642 238.824 244.338 228.705 245.334C223.777 245.82 220.526 246.852 216.765 248.034C212.215 249.477 207.06 251.115 197.63 252.153C186.833 253.353 180.874 254.001 177.86 250.626C174.141 246.456 176.219 221.505 178.666 196.302C178.864 194.277 179.044 192.402 179.197 190.779C169.036 197.925 163.362 205.968 162.327 214.698C160.857 227.139 169.453 236.7 169.555 236.808C169.657 236.921 169.717 237.066 169.726 237.218C169.734 237.371 169.689 237.521 169.6 237.645L157.366 254.487C157.305 254.572 157.224 254.64 157.131 254.688C157.037 254.735 156.934 254.76 156.83 254.76ZM170.848 153C170.092 153.447 161.376 158.7 152.643 167.952C144.422 176.679 134.693 190.752 135.041 208.299C135.64 239.025 153.44 251.265 156.635 253.221L168.22 237.3C166.526 235.284 159.631 226.257 161.022 214.563C162.147 205.107 168.406 196.473 179.617 188.904C179.72 188.834 179.841 188.794 179.965 188.79C180.09 188.786 180.213 188.817 180.321 188.879C180.428 188.942 180.516 189.034 180.573 189.145C180.631 189.255 180.656 189.38 180.646 189.504C180.469 191.457 180.241 193.812 179.986 196.446C178.313 213.651 175.202 245.673 178.846 249.759C181.303 252.51 186.344 252.081 197.486 250.854C206.784 249.828 211.882 248.211 216.363 246.786C220.196 245.571 223.507 244.518 228.576 244.02C238.977 242.994 246.319 245.451 251.669 247.242C256.678 248.919 259.989 250.026 263.09 247.89C268.866 243.918 269.268 231.621 264.29 211.341C262.79 204.159 261.291 196.869 259.821 189.654C259.795 189.523 259.809 189.388 259.862 189.266C259.914 189.144 260.001 189.04 260.113 188.968C260.225 188.896 260.356 188.86 260.489 188.863C260.622 188.867 260.751 188.91 260.859 188.988C276.823 200.631 292.467 204.159 301.716 198.186C307.415 194.493 309.994 187.569 312.255 181.458C318.689 164.058 317.426 152.607 316.772 149.079C313.023 147.048 307.775 145.206 301.875 143.853C301.773 144.243 301.698 144.546 301.635 144.792C301.472 145.525 301.237 146.241 300.934 146.928C300.664 147.594 300.22 148.701 299.407 150.828C294.497 163.665 292.032 170.109 287.272 171.159C281.85 172.359 274.637 166.449 268.893 156.105L263.084 149.4C259.836 145.65 255.655 142.824 250.964 141.21C239.667 140.232 228.302 140.333 217.023 141.51C201.155 143.109 185.599 146.985 170.836 153.018L170.848 153Z" fill="black"/>
<path d="M167.132 239.919L178.927 250.635L184.692 241.335L201.265 237.246C201.265 237.246 200.623 241.746 192.121 242.862L205.842 242.562C205.842 242.562 203.796 246.429 195.234 245.97L204.045 247.47C204.045 247.47 198.347 248.754 195.579 249.939L192.82 251.139C192.82 251.139 190.018 252.87 188.177 254.976C186.335 257.082 183.378 259.419 179.398 260.118C175.418 260.817 158.356 252 158.356 252L167.132 239.919Z" fill="white"/>
<path d="M178.927 260.811C174.129 260.811 159.733 253.467 158.047 252.594C157.963 252.549 157.889 252.487 157.83 252.412C157.772 252.336 157.73 252.249 157.708 252.156C157.686 252.063 157.684 251.967 157.703 251.874C157.721 251.781 157.76 251.693 157.816 251.616L166.595 239.529C166.65 239.454 166.72 239.391 166.8 239.345C166.881 239.298 166.97 239.269 167.063 239.259C167.155 239.25 167.249 239.26 167.337 239.289C167.426 239.319 167.507 239.367 167.576 239.43L178.783 249.6L184.128 240.987C184.219 240.838 184.364 240.731 184.533 240.687L201.106 236.598C201.211 236.572 201.32 236.573 201.425 236.599C201.529 236.625 201.626 236.676 201.706 236.748C201.786 236.821 201.846 236.913 201.883 237.015C201.919 237.117 201.931 237.226 201.916 237.333C201.895 237.486 201.451 240.225 197.498 242.076L205.824 241.893C205.939 241.891 206.053 241.918 206.154 241.974C206.256 242.029 206.341 242.109 206.401 242.207C206.462 242.306 206.496 242.418 206.5 242.533C206.504 242.649 206.478 242.763 206.424 242.865C206.358 242.994 205.092 245.265 200.788 246.24L204.153 246.813C204.304 246.84 204.441 246.917 204.54 247.033C204.64 247.149 204.697 247.296 204.7 247.449C204.704 247.602 204.655 247.751 204.562 247.872C204.468 247.993 204.335 248.078 204.186 248.112C204.129 248.112 198.509 249.396 195.837 250.545L193.137 251.709C192.796 251.925 190.321 253.509 188.684 255.393C187.238 257.049 184.122 259.947 179.521 260.751C179.325 260.788 179.127 260.808 178.927 260.811ZM159.343 251.766C164.492 254.382 176.342 259.98 179.284 259.461C183.483 258.726 186.347 256.062 187.682 254.538C189.565 252.381 192.358 250.638 192.481 250.572L192.565 250.527L195.324 249.327C197.11 248.628 198.939 248.046 200.8 247.584L195.129 246.618C194.965 246.587 194.818 246.495 194.719 246.36C194.62 246.226 194.575 246.059 194.594 245.893C194.612 245.727 194.693 245.574 194.819 245.464C194.946 245.355 195.109 245.298 195.276 245.304C200.461 245.583 203.107 244.245 204.333 243.252L192.142 243.519C191.973 243.526 191.809 243.467 191.683 243.355C191.558 243.243 191.48 243.087 191.467 242.919C191.454 242.75 191.506 242.583 191.613 242.451C191.719 242.319 191.872 242.233 192.04 242.211C197.411 241.515 199.436 239.469 200.188 238.203L185.118 241.92L179.497 250.98C179.445 251.061 179.376 251.13 179.295 251.182C179.214 251.234 179.122 251.267 179.026 251.28C178.93 251.294 178.832 251.287 178.739 251.259C178.646 251.23 178.561 251.181 178.489 251.115L167.234 240.9L159.343 251.766Z" fill="black"/>
<path d="M469.757 93.873C469.757 93.873 483.277 84.873 484.153 82.02C485.028 79.167 474.969 68.106 481.726 61.83C488.624 55.419 497.679 61.158 496.788 75.669C496.788 75.669 513.722 75.084 511.706 84.339C509.832 92.937 500.204 92.619 497.052 91.356C490.988 88.932 480.539 107.463 480.539 107.463L469.757 93.873Z" fill="white"/>
<path d="M480.545 108.126C480.445 108.125 480.347 108.103 480.257 108.06C480.167 108.017 480.088 107.954 480.026 107.877L469.229 94.2839C469.172 94.2122 469.13 94.1295 469.107 94.041C469.084 93.9524 469.079 93.86 469.093 93.7696C469.107 93.6791 469.14 93.5925 469.189 93.5153C469.238 93.4381 469.303 93.3719 469.379 93.3209C474.531 89.8919 482.926 83.7419 483.517 81.8249C483.727 81.1439 482.797 79.2269 481.9 77.3729C479.69 72.8099 476.352 65.9159 481.27 61.3469C484.27 58.5719 487.761 57.8249 490.868 59.2979C495.274 61.3979 497.766 67.3649 497.466 74.9969C499.937 74.9969 507.963 75.3149 511.178 79.1489C512.396 80.6099 512.786 82.4039 512.333 84.4799C511.658 87.5849 509.981 89.8799 507.357 91.2629C503.701 93.2039 498.959 92.8469 496.788 91.9709C492.253 90.1709 483.925 102.771 481.096 107.79C481.043 107.884 480.967 107.964 480.876 108.022C480.784 108.081 480.68 108.115 480.572 108.123L480.545 108.126ZM470.719 94.0259L480.467 106.29C482.788 102.327 491.456 88.4039 497.31 90.7409C499.262 91.5209 503.485 91.8359 506.769 90.0929C509.037 88.8929 510.482 86.9069 511.073 84.1979C511.439 82.5179 511.151 81.1439 510.194 79.9979C506.895 76.0289 496.926 76.3259 496.827 76.3289C496.735 76.3334 496.642 76.3177 496.556 76.283C496.47 76.2483 496.393 76.1954 496.329 76.1279C496.265 76.062 496.215 75.9834 496.183 75.8971C496.151 75.8108 496.138 75.7188 496.143 75.6269C496.686 66.7559 493.495 61.9949 490.325 60.4949C487.728 59.2649 484.761 59.9279 482.191 62.3159C477.992 66.2159 480.946 72.3329 483.109 76.7969C484.309 79.2569 485.163 81.0359 484.8 82.2149C483.949 84.9509 473.584 92.0999 470.719 94.0229V94.0259Z" fill="black"/>
<path d="M501.953 82.011C500.801 82.011 498.729 81.795 497.358 80.397C496.251 79.272 495.858 77.649 496.14 75.573C496.173 75.4056 496.268 75.257 496.407 75.1581C496.546 75.0592 496.717 75.0176 496.886 75.0419C497.055 75.0663 497.207 75.1547 497.313 75.2887C497.418 75.4228 497.467 75.5923 497.451 75.762C497.214 77.403 497.499 78.648 498.297 79.464C499.796 80.979 502.606 80.664 502.633 80.664C502.803 80.6527 502.969 80.7065 503.1 80.8144C503.231 80.9224 503.315 81.0762 503.336 81.2444C503.356 81.4126 503.312 81.5823 503.212 81.7188C503.111 81.8552 502.962 81.948 502.795 81.978C502.515 82.0062 502.234 82.0172 501.953 82.011Z" fill="black"/>
<path d="M474.537 88.5C474.537 88.5 468.503 90.522 430.749 92.619C415.364 93.474 395.983 104.703 397.903 128.175C399.822 151.647 426.023 177.27 451.915 166.125C477.806 154.98 480.629 119.877 482.911 111.6C484.89 104.421 486.954 100.671 486.954 100.671L481.621 99.507L481.288 93.963L475.134 94.908L474.537 88.5Z" fill="#A60303"/>
<path d="M450.775 118.617C462.994 134.709 464.184 154.377 453.429 162.546C442.674 170.715 422.331 166.122 410.112 150.03C397.894 133.938 398.415 112.446 409.179 104.277C419.943 96.108 438.544 102.525 450.775 118.617Z" fill="white"/>
<path d="M432.537 134.373C435.194 138.006 435.785 142.095 433.857 143.505C431.928 144.915 428.215 143.112 425.558 139.479C422.901 135.846 422.31 131.757 424.238 130.347C426.167 128.937 429.88 130.74 432.537 134.373Z" fill="black"/>
<path d="M464.514 141.225C464.359 141.224 464.21 141.17 464.091 141.07C463.972 140.971 463.892 140.834 463.863 140.682C457.124 103.8 428.857 97.77 428.581 97.716C428.416 97.6746 428.273 97.5714 428.182 97.4277C428.091 97.2839 428.059 97.1106 428.092 96.9437C428.125 96.7769 428.221 96.6291 428.36 96.531C428.499 96.433 428.671 96.3922 428.839 96.417C429.139 96.474 436.31 97.944 444.435 104.118C451.894 109.8 461.572 120.717 465.171 140.442C465.202 140.615 465.163 140.793 465.063 140.937C464.963 141.082 464.81 141.181 464.637 141.213C464.597 141.222 464.555 141.226 464.514 141.225Z" fill="white"/>
<path d="M505.393 139.278C499.394 150.639 487.848 153.765 478.304 148.722C468.761 143.679 464.838 132.378 470.836 121.017C476.835 109.656 490.493 102.537 500.036 107.58C509.58 112.623 511.394 127.917 505.393 139.278Z" fill="white"/>
<path d="M487.485 151.716C484.173 151.703 480.915 150.879 477.995 149.316C473.101 146.73 469.598 142.512 468.098 137.433C466.541 132.102 467.282 126.333 470.242 120.717C473.275 115.016 478.022 110.413 483.814 107.559C489.755 104.709 495.621 104.511 500.336 107.004C509.852 112.032 512.486 127.263 505.972 139.596C503.008 145.203 498.654 149.073 493.375 150.792C491.472 151.407 489.484 151.719 487.485 151.716ZM493.132 106.584C490.355 106.584 487.392 107.307 484.395 108.744C478.858 111.472 474.32 115.874 471.424 121.326C468.626 126.621 467.918 132.06 469.379 137.052C470.758 141.783 474.039 145.719 478.613 148.152C483.187 150.585 488.288 151.062 492.973 149.538C497.919 147.93 502.013 144.279 504.808 138.984C510.887 127.479 508.464 112.797 499.727 108.18C497.693 107.114 495.428 106.566 493.132 106.584Z" fill="black"/>
<path d="M476.568 120.258C476.425 120.257 476.287 120.211 476.172 120.126C476.102 120.074 476.043 120.009 475.998 119.934C475.953 119.86 475.924 119.777 475.911 119.691C475.899 119.604 475.904 119.517 475.925 119.432C475.947 119.348 475.985 119.269 476.037 119.199C478.548 115.825 481.824 113.096 485.595 111.237C490.34 108.96 494.893 108.738 498.441 110.61C498.584 110.698 498.689 110.838 498.733 111C498.777 111.162 498.758 111.336 498.68 111.484C498.601 111.633 498.469 111.747 498.31 111.802C498.151 111.856 497.976 111.849 497.823 111.78C494.665 110.109 490.526 110.34 486.168 112.431C482.589 114.197 479.481 116.788 477.099 119.991C477.037 120.074 476.957 120.141 476.865 120.187C476.773 120.234 476.671 120.258 476.568 120.258Z" fill="black"/>
<path d="M245.752 451.02C245.752 451.02 262.4 506.577 334.353 507.486C412.365 508.47 452.308 422.085 436.484 358.638C428.467 326.499 412.491 321.075 412.491 321.075L245.752 451.02Z" fill="#BFB304"/>
<path d="M258.036 467.046C258.036 467.046 307.49 515.616 376.566 442.872C445.643 370.128 426.74 317.487 403.991 318.972C381.242 320.457 343.708 356.886 293.921 379.872C244.135 402.858 230.243 441.831 258.036 467.046Z" fill="white"/>
<path d="M300.984 483.6C274.538 483.6 258.096 468.036 257.583 467.541C246.469 457.452 241.667 445.089 243.703 431.79C246.784 411.69 264.997 392.547 293.646 379.308C316.562 368.724 336.651 355.437 354.376 343.716C375.124 329.994 391.514 319.155 403.949 318.336C411.147 317.862 417.766 322.551 421.671 330.882C431.148 351.102 425.147 392.682 377.046 443.34C352.096 469.617 326.9 483.159 302.163 483.591L300.984 483.6ZM404.933 319.626C404.633 319.626 404.333 319.626 404.033 319.656C391.952 320.451 375.691 331.206 355.104 344.82C337.34 356.568 317.207 369.882 294.203 380.52C265.951 393.57 248.016 412.32 245.017 432C243.053 444.843 247.716 456.798 258.486 466.575L258.507 466.593C258.672 466.755 275.303 482.763 302.172 482.274C326.534 481.842 351.406 468.438 376.093 442.44C423.734 392.271 429.778 351.297 420.48 331.44C416.974 323.97 411.213 319.614 404.933 319.614V319.626Z" fill="black"/>
<path d="M293.919 434.727C293.919 434.727 307.46 452.313 343.063 424.527C378.666 396.741 359.369 369.564 328.367 380.403C297.365 391.242 285.281 419.127 293.919 434.727Z" fill="black"/>
<path d="M299.722 414.6C299.642 414.599 299.563 414.585 299.488 414.558C299.324 414.495 299.192 414.369 299.12 414.209C299.048 414.049 299.042 413.867 299.104 413.703C303.723 401.583 315.401 391.227 330.343 386.004C334.341 384.606 338.174 383.904 341.74 383.904C341.831 383.898 341.922 383.91 342.007 383.941C342.093 383.971 342.171 384.019 342.237 384.081C342.304 384.143 342.357 384.218 342.393 384.301C342.429 384.385 342.448 384.475 342.448 384.565C342.448 384.656 342.429 384.746 342.393 384.829C342.357 384.913 342.304 384.988 342.237 385.05C342.171 385.112 342.093 385.159 342.007 385.19C341.922 385.22 341.831 385.233 341.74 385.227C338.327 385.227 334.641 385.911 330.784 387.261C316.208 392.361 304.829 402.42 300.346 414.18C300.297 414.305 300.211 414.412 300.099 414.487C299.988 414.563 299.856 414.602 299.722 414.6Z" fill="white"/>
<path d="M71.7071 74.559H33.2787L39.2561 118.026H65.7298L71.7071 74.559Z" fill="#F29F05"/>
<path d="M65.7268 118.689H39.2561C39.0962 118.688 38.9421 118.629 38.8216 118.524C38.7011 118.419 38.6222 118.274 38.5993 118.116L32.622 74.649C32.6099 74.5552 32.6178 74.4599 32.6452 74.3694C32.6726 74.279 32.7188 74.1953 32.7809 74.124C32.8427 74.0526 32.9192 73.9952 33.0051 73.9559C33.091 73.9166 33.1843 73.8961 33.2788 73.896H71.7041C71.799 73.8961 71.8928 73.9165 71.9792 73.9558C72.0656 73.9951 72.1426 74.0525 72.205 74.124C72.2672 74.1951 72.3133 74.2789 72.3403 74.3695C72.3672 74.4601 72.3742 74.5554 72.3609 74.649L66.3836 118.116C66.3618 118.275 66.2833 118.42 66.1626 118.526C66.0418 118.631 65.887 118.689 65.7268 118.689ZM39.832 117.363H65.1509L70.9453 75.222H34.0376L39.832 117.363Z" fill="black"/>
<path d="M73.0957 106.233H31.8871C21.426 143.359 21.426 180.484 31.8871 217.608H73.0957C83.5488 180.484 83.5488 143.359 73.0957 106.233Z" fill="white"/>
<path d="M73.0957 218.271H31.8871C31.7446 218.271 31.6058 218.226 31.4913 218.141C31.3767 218.056 31.2926 217.936 31.2513 217.8C20.8052 180.729 20.8052 143.139 31.2513 106.068C31.2904 105.929 31.3737 105.807 31.4884 105.72C31.6031 105.633 31.7431 105.585 31.8871 105.585H73.0957C73.2402 105.585 73.3806 105.633 73.4958 105.72C73.6111 105.807 73.6948 105.929 73.7345 106.068C84.1806 143.139 84.1806 180.729 73.7345 217.8C73.6927 217.937 73.608 218.056 73.4929 218.141C73.3779 218.226 73.2386 218.271 73.0957 218.271ZM32.391 216.948H72.5948C82.792 180.435 82.792 143.409 72.5948 106.896H32.391C22.1938 143.4 22.1938 180.435 32.391 216.948Z" fill="black"/>
<path d="M94.0269 159.615H10.959C5.27255 159.615 0.662811 164.226 0.662811 169.914V465.276C0.662811 470.964 5.27255 475.575 10.959 475.575H94.0269C99.7133 475.575 104.323 470.964 104.323 465.276V169.914C104.323 164.226 99.7133 159.615 94.0269 159.615Z" fill="white"/>
<path d="M94.0269 476.238H10.95C8.046 476.233 5.2627 475.076 3.21013 473.021C1.15756 470.966 0.00317016 468.181 0 465.276L0 169.914C0.00396902 167.008 1.15994 164.223 3.21437 162.168C5.2688 160.114 8.05396 158.958 10.959 158.955H94.0359C96.9409 158.958 99.7261 160.114 101.78 162.168C103.835 164.223 104.991 167.008 104.995 169.914V465.276C104.991 468.184 103.834 470.971 101.777 473.026C99.7212 475.081 96.9337 476.237 94.0269 476.238ZM10.95 160.278C8.39706 160.283 5.95017 161.3 4.14555 163.106C2.34094 164.912 1.3258 167.36 1.32263 169.914V465.276C1.32502 467.832 2.34103 470.282 4.14768 472.089C5.95432 473.896 8.40398 474.913 10.959 474.915H94.0359C96.5904 474.912 99.0393 473.895 100.845 472.088C102.651 470.281 103.667 467.831 103.669 465.276V169.914C103.666 167.359 102.65 164.91 100.844 163.104C99.0383 161.297 96.5899 160.281 94.0359 160.278H10.95Z" fill="black"/>
<path d="M77.5705 99.147H27.4154V107.724H77.5705V99.147Z" fill="white"/>
<path d="M77.5705 108.387H27.4154C27.2396 108.387 27.071 108.317 26.9467 108.193C26.8224 108.068 26.7526 107.9 26.7526 107.724V99.1469C26.7526 98.971 26.8224 98.8024 26.9467 98.6781C27.071 98.5537 27.2396 98.4839 27.4154 98.4839H77.5705C77.6574 98.4839 77.7434 98.5011 77.8236 98.5344C77.9039 98.5678 77.9768 98.6166 78.0381 98.6783C78.0994 98.7399 78.1479 98.813 78.1809 98.8934C78.2139 98.9738 78.2307 99.06 78.2303 99.1469V107.724C78.2307 107.811 78.2139 107.897 78.1809 107.977C78.1479 108.058 78.0994 108.131 78.0381 108.193C77.9768 108.254 77.9039 108.303 77.8236 108.336C77.7434 108.37 77.6574 108.387 77.5705 108.387ZM28.0842 107.061H76.9076V99.8069H28.0752L28.0842 107.061Z" fill="black"/>
<path d="M101.177 348.393H4.35779C4.182 348.393 4.01341 348.323 3.88911 348.199C3.76481 348.074 3.69498 347.906 3.69498 347.73V229.404C3.69498 229.317 3.71214 229.231 3.74549 229.151C3.77883 229.07 3.8277 228.997 3.88929 228.936C3.95088 228.875 4.02397 228.826 4.10437 228.793C4.18477 228.76 4.27089 228.744 4.35779 228.744H101.177C101.264 228.744 101.35 228.76 101.43 228.793C101.511 228.826 101.584 228.875 101.645 228.936C101.707 228.997 101.756 229.07 101.789 229.151C101.823 229.231 101.84 229.317 101.84 229.404V347.73C101.84 347.906 101.77 348.074 101.646 348.199C101.521 348.323 101.353 348.393 101.177 348.393ZM5.01761 347.067H100.517V230.067H5.01761V347.067Z" fill="black"/>
<path d="M55.0197 311.4L18.6488 366C18.6488 366 1.06472 323.592 55.0197 311.4Z" fill="white"/>
<path d="M18.6488 366.657H18.5948C18.4755 366.645 18.3615 366.601 18.2649 366.53C18.1684 366.458 18.0927 366.363 18.046 366.252C17.977 366.084 11.1749 349.278 19.1827 333.807C25.0101 322.548 37.0217 314.793 54.8728 310.758C55.0017 310.728 55.1366 310.738 55.2599 310.786C55.3832 310.834 55.4892 310.918 55.5642 311.027C55.6392 311.136 55.6798 311.265 55.6805 311.397C55.6813 311.53 55.6423 311.659 55.5686 311.769L19.1947 366.36C19.1347 366.45 19.0536 366.524 18.9585 366.576C18.8634 366.628 18.7571 366.656 18.6488 366.657ZM53.5412 312.426C36.9738 316.467 25.8108 323.859 20.3494 334.413C13.8382 346.992 17.4762 360.495 18.8258 364.536L53.5412 312.426Z" fill="black"/>
<path d="M64.2572 289.218C64.2572 289.218 48.0917 249.399 86.1961 214.242C86.1961 214.242 97.173 267.687 64.2572 289.218Z" fill="white"/>
<path d="M64.2572 289.881C64.19 289.881 64.1233 289.871 64.0592 289.851C63.966 289.822 63.8805 289.772 63.8089 289.706C63.7373 289.639 63.6815 289.558 63.6453 289.467C63.6034 289.368 59.5575 279.21 60.2773 264.882C60.9431 251.664 65.9007 232.068 85.7462 213.756C85.8321 213.676 85.938 213.62 86.0528 213.594C86.1676 213.568 86.2872 213.574 86.3991 213.61C86.5111 213.646 86.6113 213.712 86.6895 213.799C86.7677 213.887 86.821 213.995 86.8439 214.11C86.8709 214.245 89.5911 227.748 88.2265 243.711C86.427 264.927 78.2513 280.854 64.6201 289.773C64.5125 289.844 64.3862 289.882 64.2572 289.881ZM85.7762 215.556C66.9924 233.325 62.2567 252.177 61.6149 264.948C61.0151 276.753 63.7143 285.618 64.6141 288.201C93.2741 268.656 87.0868 223.443 85.7762 215.556Z" fill="black"/>
<path d="M57.2121 277.836C57.2121 277.836 30.7745 253.59 35.969 211.14C35.969 211.14 63.4444 237.411 57.2121 277.836Z" fill="white"/>
<path d="M57.2121 278.499C57.0465 278.5 56.8868 278.437 56.7653 278.325C56.4983 278.079 30.1356 253.359 35.3122 211.062C35.3275 210.941 35.3762 210.826 35.4528 210.73C35.5294 210.635 35.6309 210.562 35.7461 210.521C35.8613 210.48 35.9858 210.471 36.1056 210.496C36.2254 210.521 36.3359 210.579 36.4249 210.663C36.7038 210.927 64.0772 237.639 57.8659 277.938C57.8473 278.056 57.797 278.167 57.7204 278.259C57.6439 278.351 57.5439 278.42 57.4311 278.46C57.361 278.486 57.2868 278.499 57.2121 278.499ZM36.4669 212.61C32.586 248.91 52.2215 271.71 56.7473 276.435C61.4829 241.8 41.1786 217.677 36.4669 212.61Z" fill="black"/>
<path d="M48.9374 296.907C35.873 306.42 16.3724 308.151 9.04848 298.107C1.72451 288.063 9.36639 270 22.4308 260.493C35.4951 250.986 49.0364 253.593 56.3573 263.643C63.6783 273.693 61.9988 287.4 48.9374 296.907Z" fill="black"/>
<path d="M13.4963 281.796C13.4161 281.796 13.3368 281.781 13.2623 281.751C13.0983 281.689 12.9655 281.565 12.893 281.405C12.8204 281.245 12.8141 281.063 12.8754 280.899C15.1998 274.746 19.8965 268.662 25.4359 264.627C29.8747 261.393 34.5384 259.686 38.9322 259.686C39.0228 259.68 39.1137 259.692 39.1992 259.723C39.2847 259.753 39.3631 259.801 39.4294 259.863C39.4957 259.925 39.5486 260 39.5848 260.083C39.6209 260.167 39.6396 260.257 39.6396 260.347C39.6396 260.438 39.6209 260.528 39.5848 260.611C39.5486 260.695 39.4957 260.77 39.4294 260.832C39.3631 260.894 39.2847 260.941 39.1992 260.972C39.1137 261.002 39.0228 261.015 38.9322 261.009C34.8263 261.009 30.4296 262.632 26.2217 265.698C20.8802 269.598 16.3575 275.445 14.1201 281.367C14.0723 281.494 13.9869 281.603 13.8754 281.679C13.7639 281.756 13.6316 281.797 13.4963 281.796Z" fill="white"/>
<path d="M78.5572 307.347C72.9097 322.5 57.584 334.695 45.9472 330.345C34.3105 325.995 30.7205 306.741 36.3679 291.6C42.0153 276.459 54.7558 271.158 66.4046 275.508C78.0533 279.858 84.2076 292.2 78.5572 307.347Z" fill="#BFB304"/>
<path d="M33.8426 310.029C33.678 310.029 33.5194 309.967 33.3979 309.856C33.2764 309.745 33.2007 309.593 33.1858 309.429C32.7657 303.3 33.6393 297.151 35.7501 291.381C38.5003 284.007 43.0261 278.574 48.8414 275.667C54.3089 272.931 60.6282 272.667 66.6355 274.902C66.72 274.93 66.798 274.975 66.8649 275.034C66.9317 275.093 66.986 275.164 67.0245 275.245C67.063 275.325 67.0849 275.412 67.089 275.501C67.0931 275.59 67.0791 275.679 67.0481 275.762C67.0171 275.846 66.9695 275.922 66.9083 275.987C66.8471 276.052 66.7735 276.103 66.6919 276.139C66.6103 276.175 66.5223 276.193 66.4333 276.194C66.3442 276.195 66.2559 276.178 66.1736 276.144C60.5142 274.044 54.5698 274.281 49.4323 276.852C43.9228 279.606 39.622 284.79 36.9887 291.852C34.9452 297.443 34.0991 303.4 34.5054 309.339C34.5179 309.512 34.4621 309.683 34.35 309.815C34.2378 309.948 34.0783 310.031 33.9056 310.047L33.8426 310.029Z" fill="white"/>
<path d="M65.7268 119.349H39.2561C39.0965 119.348 38.9424 119.291 38.8218 119.186C38.7013 119.081 38.6223 118.937 38.5993 118.779L37.4896 110.637C37.4716 110.548 37.4719 110.457 37.4907 110.368C37.5094 110.279 37.5461 110.195 37.5986 110.121C37.651 110.047 37.718 109.985 37.7955 109.938C37.873 109.891 37.9592 109.861 38.049 109.848C38.1388 109.836 38.2301 109.842 38.3174 109.866C38.4046 109.891 38.486 109.933 38.5564 109.99C38.6268 110.047 38.6847 110.118 38.7267 110.198C38.7686 110.278 38.7937 110.367 38.8002 110.457L39.8409 118.026H65.1599L66.2276 110.262C66.2611 110.097 66.3563 109.951 66.4937 109.853C66.6311 109.756 66.8004 109.714 66.9673 109.737C67.1343 109.76 67.2862 109.846 67.3922 109.976C67.4983 110.107 67.5505 110.274 67.5383 110.442L66.3926 118.779C66.3706 118.939 66.2907 119.085 66.1679 119.19C66.0452 119.296 65.8883 119.352 65.7268 119.349Z" fill="black"/>
<path d="M225.75 409.671C225.332 413.883 223.77 417.901 221.233 421.289C218.696 424.677 215.281 427.306 211.358 428.893C207.435 430.479 203.152 430.962 198.974 430.289C194.796 429.616 190.882 427.813 187.655 425.075C184.427 422.337 182.01 418.768 180.665 414.755C179.319 410.742 179.097 406.437 180.021 402.306C180.946 398.175 182.982 394.376 185.91 391.32C188.837 388.264 192.545 386.066 196.631 384.966C164.966 358.437 139.581 338.166 139.581 338.166L55.2117 374.1C55.2117 374.1 66.6685 478.5 61.0181 480L239.139 548.346C299.422 516.246 311.023 490.746 311.023 490.746C295.718 471.555 260.385 439.476 225.75 409.671Z" fill="white"/>
<path d="M239.139 549C239.057 549 238.977 548.985 238.902 548.955L60.7811 480.6C60.6498 480.55 60.5377 480.46 60.4611 480.343C60.3844 480.225 60.3472 480.086 60.3549 479.946C60.3626 479.806 60.4148 479.672 60.5038 479.563C60.5929 479.455 60.7142 479.378 60.8501 479.343C61.5099 478.887 63.4684 473.643 59.5065 425.721C57.3831 400.017 54.5819 374.421 54.5519 374.163C54.5371 374.022 54.5678 373.879 54.6396 373.757C54.7114 373.634 54.8204 373.538 54.9508 373.482L139.323 337.563C139.433 337.516 139.553 337.5 139.672 337.516C139.79 337.532 139.901 337.579 139.995 337.653C140.247 337.857 165.749 358.218 197.057 384.453C197.15 384.53 197.22 384.631 197.259 384.746C197.298 384.86 197.305 384.983 197.279 385.101C197.253 385.219 197.195 385.328 197.111 385.416C197.028 385.503 196.922 385.567 196.805 385.599C192.835 386.667 189.231 388.801 186.386 391.77C183.541 394.739 181.561 398.43 180.662 402.444C179.763 406.457 179.979 410.64 181.286 414.54C182.593 418.44 184.941 421.908 188.077 424.568C191.213 427.229 195.016 428.981 199.076 429.635C203.135 430.289 207.296 429.819 211.108 428.277C214.92 426.736 218.238 424.18 220.703 420.888C223.167 417.596 224.685 413.692 225.09 409.599C225.102 409.478 225.147 409.363 225.22 409.266C225.293 409.169 225.391 409.093 225.503 409.048C225.616 409.003 225.739 408.99 225.859 409.01C225.978 409.029 226.09 409.082 226.182 409.161C269.805 446.7 298.525 474.018 311.541 490.332C311.617 490.428 311.665 490.542 311.68 490.664C311.695 490.785 311.676 490.908 311.625 491.019C311.149 492.066 299.251 517.077 239.451 548.919C239.355 548.971 239.248 548.998 239.139 549ZM62.1877 479.724L239.109 547.611C294.467 518.079 308.575 494.01 310.255 490.824C297.262 474.657 269.01 447.798 226.278 410.979C225.638 415.179 223.889 419.132 221.211 422.43C218.533 425.728 215.024 428.252 211.046 429.74C207.068 431.229 202.764 431.629 198.58 430.898C194.396 430.168 190.482 428.334 187.243 425.585C184.004 422.837 181.557 419.273 180.155 415.263C178.752 411.252 178.445 406.94 179.265 402.772C180.085 398.603 182.002 394.728 184.819 391.548C187.635 388.368 191.249 385.997 195.288 384.681C166.274 360.381 142.463 341.313 139.503 338.943L55.9225 374.517C56.3244 378.228 58.9216 402.393 60.8921 426.417C64.2602 467.427 63.3304 477.234 62.1727 479.724H62.1877Z" fill="black"/>
<path d="M42.8491 493.398C42.8491 493.398 28.1922 416.658 55.2117 374.1L239.139 548.337L42.8491 493.398Z" fill="white"/>
<path d="M239.139 549C239.079 549 239.019 548.992 238.962 548.976L42.6722 494.034C42.5533 494.002 42.4461 493.936 42.3628 493.845C42.2795 493.755 42.2235 493.642 42.2013 493.521C42.1623 493.329 38.5213 473.997 38.2364 449.721C37.9755 427.275 40.6087 395.871 54.6508 373.749C54.7037 373.667 54.7738 373.598 54.8561 373.546C54.9385 373.495 55.0312 373.461 55.1277 373.449C55.2247 373.436 55.3233 373.446 55.4162 373.476C55.5091 373.507 55.594 373.558 55.6645 373.626L239.594 547.863C239.69 547.954 239.757 548.072 239.785 548.202C239.813 548.331 239.802 548.466 239.753 548.589C239.704 548.712 239.619 548.817 239.51 548.891C239.4 548.966 239.271 549.006 239.139 549.006V549ZM43.4279 492.873L236.742 546.981L55.3406 375.135C30.3456 415.533 42.3512 486.852 43.4279 492.873Z" fill="black"/>
<path d="M227.259 465.207C233.318 465.207 238.23 460.294 238.23 454.233C238.23 448.172 233.318 443.259 227.259 443.259C221.2 443.259 216.288 448.172 216.288 454.233C216.288 460.294 221.2 465.207 227.259 465.207Z" fill="#F29F05"/>
<path d="M138.52 404.429C146.561 401.097 150.38 391.875 147.049 383.831C143.718 375.787 134.499 371.967 126.457 375.299C118.415 378.631 114.596 387.853 117.927 395.897C121.258 403.941 130.478 407.761 138.52 404.429Z" fill="#F29F05"/>
<path d="M237.193 508.898C239.785 506.305 239.785 502.101 237.193 499.509C234.601 496.916 230.398 496.916 227.806 499.509C225.214 502.101 225.214 506.305 227.806 508.898C230.398 511.49 234.601 511.49 237.193 508.898Z" fill="#F29F05"/>
<path d="M95.5399 459.105C100.194 457.176 102.403 451.84 100.476 447.185C98.5482 442.53 93.213 440.319 88.5593 442.248C83.9057 444.176 81.6958 449.512 83.6234 454.167C85.551 458.822 90.8862 461.033 95.5399 459.105Z" fill="#F29F05"/>
<path d="M123.266 507.195C131.192 507.195 137.617 500.768 137.617 492.84C137.617 484.912 131.192 478.485 123.266 478.485C115.34 478.485 108.915 484.912 108.915 492.84C108.915 500.768 115.34 507.195 123.266 507.195Z" fill="#F29F05"/>
<path d="M371.333 516.408C371.181 516.407 371.033 516.354 370.916 516.257C370.798 516.16 370.718 516.026 370.687 515.877C370.657 515.728 370.679 515.572 370.75 515.437C370.82 515.303 370.935 515.196 371.075 515.136C419.311 494.736 460.906 458.808 488.199 413.943C488.294 413.801 488.44 413.701 488.607 413.664C488.774 413.627 488.949 413.656 489.095 413.745C489.241 413.835 489.347 413.977 489.39 414.142C489.434 414.308 489.412 414.483 489.329 414.633C461.706 460.038 420.524 495.62 371.597 516.354C371.514 516.39 371.424 516.408 371.333 516.408Z" fill="black"/>
<path d="M500.834 392.649C500.731 392.651 500.628 392.629 500.534 392.586C500.378 392.508 500.259 392.372 500.203 392.207C500.147 392.041 500.158 391.861 500.234 391.704C516.451 357.759 524.674 321.327 524.674 283.404C524.678 267.96 523.273 252.548 520.476 237.36C520.454 237.192 520.498 237.022 520.598 236.885C520.698 236.748 520.846 236.655 521.013 236.624C521.18 236.594 521.352 236.628 521.494 236.72C521.636 236.812 521.737 236.955 521.777 237.12C524.591 252.387 526.006 267.879 526.003 283.404C526.003 321.504 517.737 358.134 501.437 392.259C501.384 392.375 501.3 392.474 501.193 392.543C501.086 392.612 500.961 392.649 500.834 392.649Z" fill="black"/>
<path d="M429.97 466.044C429.834 466.043 429.702 466.001 429.591 465.922C429.481 465.844 429.397 465.734 429.351 465.606C429.304 465.479 429.299 465.34 429.334 465.209C429.369 465.078 429.443 464.961 429.547 464.874C482.386 420.66 512.693 355.821 512.693 286.974C512.687 286.883 512.699 286.793 512.73 286.707C512.76 286.621 512.808 286.543 512.87 286.477C512.932 286.41 513.007 286.357 513.09 286.321C513.173 286.285 513.263 286.266 513.354 286.266C513.445 286.266 513.535 286.285 513.618 286.321C513.701 286.357 513.776 286.41 513.838 286.477C513.9 286.543 513.948 286.621 513.978 286.707C514.009 286.793 514.021 286.883 514.015 286.974C514.015 356.208 483.538 421.416 430.396 465.882C430.278 465.985 430.126 466.043 429.97 466.044Z" fill="black"/>
<path d="M511.877 261.282C511.713 261.281 511.554 261.219 511.433 261.109C511.312 260.998 511.236 260.846 511.22 260.682C510.074 250.543 508.26 240.49 505.792 230.589C505.764 230.503 505.755 230.412 505.764 230.322C505.773 230.232 505.801 230.144 505.845 230.066C505.889 229.987 505.949 229.917 506.021 229.862C506.093 229.807 506.175 229.768 506.263 229.746C506.351 229.724 506.442 229.72 506.531 229.735C506.62 229.75 506.706 229.782 506.782 229.831C506.858 229.88 506.923 229.944 506.974 230.019C507.024 230.094 507.059 230.179 507.075 230.268C509.56 240.226 511.383 250.337 512.534 260.535C512.544 260.621 512.537 260.709 512.513 260.792C512.489 260.876 512.449 260.954 512.395 261.022C512.341 261.09 512.274 261.146 512.198 261.189C512.122 261.231 512.038 261.257 511.952 261.267L511.877 261.282Z" fill="black"/>
<path d="M115.24 104.181C115.109 104.18 114.981 104.14 114.872 104.066C114.763 103.992 114.679 103.888 114.63 103.766C114.581 103.644 114.569 103.511 114.596 103.382C114.623 103.253 114.687 103.136 114.781 103.044C145.495 73.1423 185.552 54.7104 228.237 50.8379C228.411 50.822 228.585 50.8761 228.72 50.9884C228.854 51.1006 228.939 51.2618 228.955 51.4364C228.971 51.6111 228.917 51.7849 228.805 51.9196C228.692 52.0544 228.531 52.139 228.357 52.1549C185.971 55.9994 146.194 74.3021 115.696 103.995C115.573 104.113 115.41 104.179 115.24 104.181Z" fill="black"/>
<path d="M98.6726 102.969C98.5404 102.969 98.4111 102.93 98.3014 102.856C98.1917 102.782 98.1065 102.677 98.0568 102.555C98.0072 102.432 97.9953 102.298 98.0227 102.168C98.0502 102.039 98.1156 101.921 98.2108 101.829C128.364 72.5999 165.686 52.0469 206.163 42.3749C217.032 39.779 228.073 37.9674 239.202 36.9539C239.374 36.9433 239.543 37.0002 239.674 37.1125C239.805 37.2249 239.887 37.3838 239.903 37.5556C239.918 37.7274 239.866 37.8985 239.758 38.0327C239.649 38.1668 239.493 38.2533 239.322 38.2739C228.256 39.2849 217.276 41.0896 206.469 43.6739C166.223 53.2799 129.105 73.7219 99.1255 102.78C99.0048 102.899 98.8424 102.967 98.6726 102.969Z" fill="black"/>
<path d="M104.833 88.554C103.504 88.5581 102.225 88.0542 101.255 87.1453C100.286 86.2364 99.7012 84.9913 99.6198 83.6649C99.5384 82.3386 99.967 81.0313 100.818 80.0107C101.669 78.9901 102.877 78.3334 104.196 78.1751C105.515 78.0167 106.845 78.3687 107.913 79.159C108.981 79.9493 109.707 81.118 109.941 82.426C110.176 83.734 109.902 85.0822 109.175 86.1946C108.449 87.3071 107.324 88.0996 106.033 88.41C105.64 88.5055 105.237 88.5539 104.833 88.554ZM103.933 79.5779C103.187 79.7562 102.511 80.1517 101.989 80.7146C101.468 81.2774 101.125 81.9822 101.005 82.7398C100.884 83.4974 100.99 84.2739 101.311 84.971C101.631 85.6681 102.151 86.2545 102.805 86.656C103.458 87.0576 104.216 87.2563 104.982 87.227C105.749 87.1976 106.489 86.9416 107.11 86.4913C107.731 86.041 108.205 85.4165 108.471 84.697C108.737 83.9775 108.784 83.1951 108.606 82.4489C108.362 81.4514 107.734 80.5904 106.859 80.0529C105.985 79.5153 104.933 79.3447 103.933 79.5779Z" fill="black"/>
<path d="M120.123 76.8C119.958 76.8006 119.799 76.7393 119.677 76.6281C119.556 76.517 119.48 76.3642 119.466 76.2C119.037 71.955 118.974 67.653 118.971 67.611C118.972 67.5013 119 67.3936 119.053 67.2976C119.106 67.2016 119.182 67.1202 119.274 67.0607C119.367 67.0013 119.472 66.9656 119.581 66.9569C119.691 66.9482 119.8 66.9668 119.901 67.011L128.181 70.662C128.291 70.7108 128.386 70.7885 128.455 70.8868C128.524 70.9852 128.565 71.1004 128.573 71.2203C128.582 71.3401 128.558 71.4601 128.504 71.5673C128.449 71.6745 128.367 71.765 128.265 71.829L120.468 76.707C120.364 76.7702 120.244 76.8024 120.123 76.8ZM120.321 68.634C120.36 69.969 120.459 72.432 120.681 75.009L126.505 71.361L120.321 68.634Z" fill="black"/>
<path d="M133.604 66.948H133.571C133.396 66.9394 133.232 66.8621 133.114 66.7328C132.996 66.6036 132.934 66.4329 132.941 66.258C132.941 66.081 133.178 61.917 136.489 60.057C137.539 59.457 139.002 59.547 140.547 59.631C142.143 59.715 143.789 59.805 145.007 59.178C145.963 58.686 146.662 57.351 147.406 55.938C148.306 54.231 149.224 52.467 150.84 51.738C152.088 51.168 153.758 51.714 155.372 52.239C156.71 52.677 158.089 53.139 158.875 52.818C159.892 52.422 160.575 51.018 161.181 49.785C161.64 48.852 162.033 48.045 162.582 47.592C162.718 47.4932 162.887 47.4501 163.054 47.4714C163.221 47.4927 163.374 47.5768 163.481 47.7067C163.589 47.8366 163.643 48.0024 163.632 48.1706C163.621 48.3387 163.547 48.4965 163.425 48.612C163.098 48.882 162.729 49.638 162.369 50.367C161.658 51.819 160.851 53.466 159.37 54.051C158.14 54.534 156.53 54.009 154.973 53.499C153.599 53.049 152.178 52.599 151.395 52.941C150.195 53.49 149.377 55.041 148.588 56.559C147.799 58.077 146.953 59.676 145.625 60.363C144.089 61.152 142.176 61.05 140.487 60.963C139.14 60.891 137.866 60.822 137.149 61.224C134.489 62.724 134.279 66.294 134.276 66.324C134.266 66.4946 134.19 66.6547 134.065 66.7709C133.94 66.8872 133.775 66.9506 133.604 66.948Z" fill="black"/>
<path d="M354.112 518.541C353.936 518.541 353.767 518.471 353.643 518.347C353.519 518.222 353.449 518.054 353.449 517.878V512.745C353.443 512.654 353.455 512.563 353.486 512.478C353.516 512.392 353.564 512.314 353.626 512.248C353.688 512.181 353.763 512.128 353.846 512.092C353.93 512.056 354.019 512.037 354.11 512.037C354.201 512.037 354.291 512.056 354.374 512.092C354.457 512.128 354.532 512.181 354.594 512.248C354.656 512.314 354.704 512.392 354.735 512.478C354.765 512.563 354.778 512.654 354.772 512.745V517.878C354.772 517.965 354.755 518.051 354.722 518.131C354.689 518.212 354.641 518.285 354.579 518.346C354.518 518.408 354.445 518.457 354.365 518.49C354.285 518.524 354.199 518.541 354.112 518.541Z" fill="black"/>
<path d="M354.112 530.505C353.936 530.505 353.767 530.435 353.643 530.311C353.519 530.186 353.449 530.018 353.449 529.842V524.7C353.46 524.532 353.535 524.375 353.658 524.26C353.78 524.145 353.942 524.081 354.11 524.081C354.278 524.081 354.44 524.145 354.563 524.26C354.686 524.375 354.76 524.532 354.772 524.7V529.836C354.773 529.923 354.757 530.01 354.724 530.091C354.691 530.172 354.643 530.246 354.582 530.308C354.52 530.371 354.447 530.42 354.366 530.454C354.286 530.488 354.199 530.505 354.112 530.505Z" fill="black"/>
<path d="M350.699 521.955H345.564C345.473 521.961 345.383 521.948 345.297 521.918C345.212 521.887 345.133 521.84 345.067 521.778C345.001 521.716 344.948 521.641 344.911 521.557C344.875 521.474 344.857 521.384 344.857 521.293C344.857 521.203 344.875 521.113 344.911 521.029C344.948 520.946 345.001 520.871 345.067 520.809C345.133 520.747 345.212 520.699 345.297 520.669C345.383 520.638 345.473 520.626 345.564 520.632H350.699C350.866 520.643 351.024 520.718 351.138 520.841C351.253 520.963 351.317 521.125 351.317 521.293C351.317 521.462 351.253 521.623 351.138 521.746C351.024 521.869 350.866 521.944 350.699 521.955Z" fill="black"/>
<path d="M362.656 521.955H357.525C357.434 521.961 357.343 521.948 357.258 521.918C357.172 521.887 357.094 521.84 357.028 521.778C356.961 521.716 356.908 521.641 356.872 521.557C356.836 521.474 356.817 521.384 356.817 521.293C356.817 521.203 356.836 521.113 356.872 521.029C356.908 520.946 356.961 520.871 357.028 520.809C357.094 520.747 357.172 520.699 357.258 520.669C357.343 520.638 357.434 520.626 357.525 520.632H362.656C362.747 520.626 362.838 520.638 362.923 520.669C363.009 520.699 363.087 520.747 363.153 520.809C363.22 520.871 363.273 520.946 363.309 521.029C363.345 521.113 363.364 521.203 363.364 521.293C363.364 521.384 363.345 521.474 363.309 521.557C363.273 521.641 363.22 521.716 363.153 521.778C363.087 521.84 363.009 521.887 362.923 521.918C362.838 521.948 362.747 521.961 362.656 521.955Z" fill="black"/>
<path d="M496.443 271.287C496.268 271.286 496.1 271.216 495.976 271.092C495.853 270.967 495.783 270.799 495.783 270.624V265.5C495.777 265.409 495.79 265.318 495.82 265.233C495.851 265.147 495.899 265.069 495.961 265.003C496.023 264.936 496.097 264.883 496.181 264.847C496.264 264.811 496.354 264.792 496.445 264.792C496.536 264.792 496.625 264.811 496.709 264.847C496.792 264.883 496.867 264.936 496.929 265.003C496.991 265.069 497.039 265.147 497.069 265.233C497.1 265.318 497.112 265.409 497.106 265.5V270.633C497.104 270.807 497.033 270.974 496.909 271.096C496.785 271.218 496.617 271.287 496.443 271.287Z" fill="black"/>
<path d="M496.443 283.251C496.268 283.25 496.1 283.18 495.977 283.056C495.853 282.931 495.783 282.763 495.783 282.588V277.452C495.795 277.284 495.869 277.127 495.992 277.012C496.115 276.897 496.277 276.833 496.445 276.833C496.613 276.833 496.775 276.897 496.897 277.012C497.02 277.127 497.095 277.284 497.106 277.452V282.6C497.103 282.774 497.032 282.939 496.908 283.061C496.784 283.183 496.617 283.251 496.443 283.251Z" fill="black"/>
<path d="M493.03 274.701H487.899C487.808 274.707 487.717 274.694 487.632 274.664C487.546 274.633 487.468 274.586 487.401 274.524C487.335 274.462 487.282 274.387 487.246 274.303C487.21 274.22 487.191 274.13 487.191 274.039C487.191 273.949 487.21 273.859 487.246 273.775C487.282 273.692 487.335 273.617 487.401 273.555C487.468 273.493 487.546 273.445 487.632 273.415C487.717 273.384 487.808 273.372 487.899 273.378H493.03C493.121 273.372 493.212 273.384 493.297 273.415C493.383 273.445 493.461 273.493 493.527 273.555C493.594 273.617 493.647 273.692 493.683 273.775C493.719 273.859 493.738 273.949 493.738 274.039C493.738 274.13 493.719 274.22 493.683 274.303C493.647 274.387 493.594 274.462 493.527 274.524C493.461 274.586 493.383 274.633 493.297 274.664C493.212 274.694 493.121 274.707 493.03 274.701Z" fill="black"/>
<path d="M504.991 274.701H499.856C499.689 274.69 499.531 274.615 499.417 274.492C499.302 274.369 499.238 274.208 499.238 274.039C499.238 273.871 499.302 273.709 499.417 273.587C499.531 273.464 499.689 273.389 499.856 273.378H504.991C505.081 273.372 505.172 273.384 505.258 273.415C505.343 273.445 505.422 273.493 505.488 273.555C505.554 273.617 505.607 273.692 505.643 273.775C505.68 273.859 505.698 273.949 505.698 274.039C505.698 274.13 505.68 274.22 505.643 274.303C505.607 274.387 505.554 274.462 505.488 274.524C505.422 274.586 505.343 274.633 505.258 274.664C505.172 274.694 505.081 274.707 504.991 274.701Z" fill="black"/>
<path d="M438.877 188.679C438.833 188.683 438.789 188.683 438.745 188.679C431.632 187.225 424.779 184.703 418.42 181.2H390.998C390.912 181.2 390.825 181.184 390.745 181.151C390.665 181.118 390.592 181.069 390.53 181.008C390.468 180.946 390.42 180.873 390.386 180.793C390.353 180.713 390.336 180.627 390.336 180.54V153.636C384.026 142.629 380.708 130.162 380.711 117.474C380.711 114.28 380.92 111.089 381.335 107.922C381.358 107.748 381.449 107.59 381.589 107.484C381.728 107.377 381.904 107.33 382.077 107.353C382.251 107.376 382.409 107.468 382.515 107.607C382.622 107.746 382.669 107.922 382.646 108.096C382.243 111.206 382.042 114.338 382.046 117.474C382.041 129.989 385.329 142.285 391.58 153.126C391.637 153.228 391.667 153.342 391.667 153.459V179.859H418.6C418.712 179.86 418.822 179.889 418.921 179.943C425.204 183.419 431.98 185.92 439.015 187.359C439.174 187.393 439.315 187.485 439.411 187.617C439.507 187.749 439.551 187.911 439.535 188.073C439.518 188.236 439.443 188.386 439.323 188.496C439.203 188.606 439.046 188.668 438.883 188.67L438.877 188.679Z" fill="white"/>
<path d="M453.357 190.137C448.449 190.138 443.554 189.645 438.745 188.664C438.573 188.629 438.423 188.527 438.326 188.381C438.229 188.235 438.194 188.056 438.229 187.884C438.264 187.712 438.366 187.561 438.512 187.464C438.659 187.368 438.837 187.333 439.009 187.368C443.731 188.331 448.538 188.815 453.357 188.814C492.682 188.814 524.677 156.81 524.677 117.474C524.677 78.138 492.682 46.131 453.357 46.131C417.682 46.131 387.282 72.771 382.646 108.096C382.634 108.182 382.606 108.265 382.563 108.34C382.519 108.415 382.461 108.481 382.392 108.534C382.323 108.587 382.245 108.626 382.161 108.648C382.077 108.67 381.99 108.676 381.903 108.664C381.817 108.653 381.734 108.625 381.659 108.581C381.584 108.538 381.518 108.48 381.466 108.411C381.413 108.342 381.374 108.263 381.352 108.179C381.329 108.096 381.324 108.008 381.335 107.922C386.056 71.943 417.025 44.808 453.357 44.808C493.414 44.808 526 77.406 526 117.474C526 157.542 493.414 190.137 453.357 190.137Z" fill="black"/>
<path d="M345.027 91.695C344.861 91.6904 344.702 91.6232 344.583 91.5068C344.463 91.3904 344.392 91.2333 344.383 91.0668C344.375 90.9004 344.429 90.7367 344.536 90.6085C344.642 90.4803 344.793 90.3969 344.958 90.375C347.955 90.046 350.909 89.4004 353.77 88.449C353.853 88.4143 353.943 88.397 354.034 88.3983C354.124 88.3995 354.213 88.4193 354.296 88.4564C354.378 88.4935 354.452 88.5471 354.513 88.6138C354.575 88.6806 354.621 88.7592 354.651 88.8448C354.68 88.9303 354.692 89.021 354.685 89.1112C354.678 89.2015 354.653 89.2894 354.611 89.3695C354.569 89.4496 354.511 89.5203 354.441 89.5771C354.37 89.634 354.289 89.6758 354.202 89.7C351.252 90.6828 348.205 91.3475 345.114 91.683L345.027 91.695Z" fill="white"/>
<path d="M323.01 99.111C322.937 99.1114 322.863 99.0982 322.794 99.072C322.712 99.044 322.636 98.9999 322.572 98.9422C322.507 98.8845 322.454 98.8144 322.417 98.736L315.404 84.213C309.091 79.874 304.018 73.9623 300.688 67.062C290.133 45.201 299.329 18.831 321.181 8.26201C343.033 -2.30699 369.398 6.90001 379.965 28.761C390.531 50.622 381.323 76.992 359.471 87.561C357.762 88.3859 356.002 89.1004 354.202 89.7C354.118 89.7325 354.028 89.7476 353.939 89.7445C353.849 89.7413 353.761 89.7199 353.68 89.6816C353.598 89.6434 353.526 89.589 353.466 89.5217C353.406 89.4545 353.361 89.3759 353.333 89.2906C353.305 89.2054 353.294 89.1152 353.302 89.0257C353.309 88.9362 353.335 88.8492 353.377 88.7699C353.419 88.6906 353.477 88.6208 353.547 88.5646C353.618 88.5084 353.698 88.467 353.785 88.443C355.535 87.858 357.246 87.1626 358.907 86.361C380.103 76.122 389.019 50.544 378.783 29.343C368.547 8.14201 342.973 -0.776989 321.781 9.45901C300.589 19.695 291.669 45.276 301.905 66.48C305.159 73.2266 310.13 78.9979 316.319 83.214C316.415 83.2789 316.493 83.3679 316.544 83.472L323.343 97.557L337.706 90.624C337.807 90.5746 337.918 90.5519 338.03 90.558C340.344 90.6862 342.664 90.625 344.967 90.375C345.054 90.3657 345.141 90.3736 345.224 90.398C345.307 90.4225 345.385 90.4631 345.452 90.5176C345.52 90.572 345.576 90.6393 345.618 90.7154C345.659 90.7916 345.685 90.8752 345.695 90.9615C345.704 91.0478 345.696 91.135 345.672 91.2183C345.647 91.3015 345.606 91.3792 345.552 91.4467C345.498 91.5143 345.43 91.5704 345.354 91.612C345.278 91.6536 345.194 91.6797 345.108 91.689C342.791 91.942 340.457 92.0092 338.129 91.89L323.31 99.045C323.217 99.0894 323.114 99.1119 323.01 99.111Z" fill="black"/>
<path d="M369.369 20.826C369.369 20.826 352.666 23.301 359.819 37.626C363.547 45.096 376.728 45.747 385.012 38.739C393.971 31.152 390.816 21.963 386.812 18.075C382.808 14.187 371.381 14.682 369.369 20.826Z" fill="white"/>
<path d="M371.558 44.3009C370.307 44.3043 369.059 44.1807 367.833 43.9319C363.802 43.1039 360.746 40.9709 359.225 37.9319C357.081 33.6359 356.799 29.9129 358.383 26.8679C360.89 22.0679 367.215 20.5679 368.88 20.2409C369.812 17.9009 372.071 16.1819 375.292 15.3869C379.752 14.2829 384.787 15.2189 387.259 17.6099C388.626 18.9771 389.701 20.6075 390.42 22.4026C391.138 24.1976 391.485 26.1199 391.439 28.0529C391.301 32.1749 389.226 36.0479 385.441 39.2549C381.535 42.4913 376.63 44.2744 371.558 44.3009ZM379.113 16.2509C377.932 16.2485 376.754 16.3885 375.607 16.6679C373.909 17.0879 370.919 18.2159 369.995 21.0299C369.958 21.1471 369.888 21.2515 369.794 21.331C369.701 21.4106 369.586 21.4622 369.465 21.4799C369.39 21.4799 362.075 22.6379 359.567 27.4799C358.191 30.1289 358.479 33.4439 360.422 37.3379C361.757 40.0079 364.486 41.8889 368.112 42.6359C373.633 43.7699 380.109 42.0359 384.607 38.2439C388.101 35.2829 390.006 31.7429 390.141 28.0049C390.182 26.2565 389.869 24.5178 389.219 22.8941C388.57 21.2703 387.598 19.7952 386.362 18.5579C384.814 17.0999 382.031 16.2509 379.113 16.2509Z" fill="black"/>
<path d="M368.229 19.836C368.229 19.836 363.769 18.102 361.751 19.749L366.423 22.314C366.423 22.314 361.238 24.486 363.724 27.843C363.724 27.843 368.223 27.936 369.659 23.061C369.659 23.061 372.383 28.011 375.709 26.91C375.709 26.91 377.292 22.053 371.783 21.48L376.525 19.167C376.525 19.167 370.247 15.069 368.229 19.836Z" fill="#F20505"/>
<path d="M386.353 22.554C386.917 24.123 386.389 25.746 385.177 26.181C383.965 26.616 382.526 25.698 381.962 24.129C381.398 22.56 381.926 20.937 383.138 20.502C384.349 20.067 385.789 21 386.353 22.554Z" fill="black"/>
<path d="M349.823 33.852C349.823 33.852 328.886 32.463 333.804 51.753C336.366 61.809 352.204 66.072 364.096 59.739C376.974 52.884 375.562 40.893 371.702 35.112C367.842 29.331 353.902 26.919 349.823 33.852Z" fill="white"/>
<path d="M351.889 63.3689C348.472 63.3958 345.087 62.7135 341.947 61.3649C337.313 59.3189 334.194 55.9649 333.162 51.9179C331.708 46.1999 332.326 41.6369 335.007 38.3999C339.335 33.1919 347.526 33.1169 349.454 33.1739C351.161 30.5729 354.334 29.0819 358.451 28.9739C364.111 28.8119 369.917 31.2419 372.248 34.7549C373.536 36.7562 374.404 38.998 374.801 41.3447C375.198 43.6914 375.115 46.0943 374.557 48.4079C373.315 53.3339 369.803 57.4589 364.399 60.3359C360.536 62.3439 356.243 63.3846 351.889 63.3689ZM348.974 34.4999C346.617 34.4999 339.659 34.8899 336.033 39.2549C333.633 42.1499 333.093 46.3019 334.446 51.5969C335.373 55.2389 338.228 58.2809 342.481 60.1619C348.929 63.0119 357.297 62.6189 363.793 59.1599C368.859 56.4599 372.143 52.6319 373.288 48.0809C373.804 45.946 373.882 43.7287 373.516 41.5629C373.151 39.3972 372.35 37.3282 371.162 35.4809C369.087 32.3699 363.634 30.1409 358.49 30.2879C356.283 30.3539 352.294 30.9449 350.393 34.1879C350.332 34.2919 350.244 34.3772 350.138 34.4343C350.033 34.4915 349.913 34.5184 349.793 34.5119C349.763 34.4999 349.472 34.4999 348.974 34.4999Z" fill="black"/>
<path d="M348.701 32.3519C348.701 32.3519 343.741 29.0699 340.858 30.5519L345.858 34.8959C345.858 34.8959 338.987 36.1649 341.134 40.8959C341.134 40.8959 346.56 42.1919 349.601 36.6509C349.601 36.6509 351.604 43.3769 355.935 42.9179C355.935 42.9179 359.138 37.4369 352.594 35.2919L358.964 33.7259C358.964 33.7259 352.402 27.0929 348.701 32.3519Z" fill="#F20505"/>
<path d="M372.017 42.8999C372.287 44.9519 371.219 46.7999 369.617 46.9949C368.016 47.1899 366.525 45.7109 366.255 43.6559C365.985 41.6009 367.05 39.7559 368.637 39.5609C370.223 39.3659 371.744 40.8389 372.017 42.8999Z" fill="black"/>
<path d="M333.315 43.2719C333.315 43.2719 318.62 28.2869 309.448 45.9509C304.664 55.1579 313.647 68.8919 326.732 72.0959C340.9 75.5609 347.831 65.6759 348.806 58.7939C349.781 51.9119 340.963 40.7999 333.315 43.2719Z" fill="white"/>
<path d="M332.308 73.464C330.371 73.4527 328.443 73.2089 326.564 72.738C319.036 70.896 312.186 65.325 309.112 58.548C307.013 53.931 306.926 49.35 308.851 45.648C311.578 40.401 315.072 37.425 319.234 36.801C325.929 35.802 332.092 41.202 333.492 42.531C336.492 41.73 339.857 42.729 343 45.375C347.328 49.023 350.042 54.705 349.451 58.875C349.079 61.2257 348.234 63.4765 346.968 65.4911C345.701 67.5058 344.039 69.2424 342.082 70.596C339.29 72.504 335.976 73.464 332.308 73.464ZM320.884 38.004C320.396 38.0031 319.909 38.0382 319.426 38.109C315.707 38.667 312.543 41.409 310.024 46.257C308.29 49.593 308.395 53.757 310.324 57.999C313.236 64.422 319.735 69.699 326.885 71.451C332.461 72.816 337.46 72.144 341.344 69.513C343.149 68.2664 344.683 66.6665 345.852 64.8102C347.021 62.9539 347.802 60.8797 348.146 58.713C348.668 55.011 346.092 49.713 342.148 46.413C340.46 44.991 337.091 42.777 333.513 43.929C333.397 43.967 333.272 43.9716 333.153 43.9425C333.033 43.9133 332.925 43.8515 332.839 43.764C332.782 43.674 327.131 38.004 320.893 38.004H320.884Z" fill="black"/>
<path d="M333.477 41.4C333.477 41.4 331.963 35.646 328.832 34.824L329.668 41.4C329.668 41.4 323.697 37.767 322.147 42.732C322.147 42.732 325.332 47.313 331.291 45.207C331.291 45.207 328.292 51.558 331.84 54.102C331.84 54.102 337.877 52.146 334.428 46.185L340.22 49.263C340.22 49.263 339.743 39.951 333.477 41.4Z" fill="#F20505"/>
<path d="M318.65 47.799C317.483 49.512 315.467 50.169 314.151 49.269C312.834 48.369 312.699 46.251 313.851 44.538C315.003 42.825 317.033 42.168 318.35 43.068C319.666 43.968 319.816 46.089 318.65 47.799Z" fill="black"/>
<path d="M333.316 43.935C333.151 43.9343 332.992 43.8726 332.87 43.7618C332.749 43.651 332.672 43.4989 332.656 43.335C332.608 42.837 331.507 31.071 338.555 23.931C340.858 21.597 344.362 19.212 348.069 16.683C355.237 11.796 363.364 6.25799 362.528 0.758986C362.515 0.673101 362.519 0.585497 362.539 0.501175C362.56 0.416853 362.598 0.337464 362.649 0.267542C362.701 0.197619 362.765 0.138532 362.84 0.0936543C362.914 0.0487765 362.996 0.0189867 363.082 0.00598585C363.168 -0.00701502 363.256 -0.00297237 363.34 0.017883C363.424 0.0387383 363.504 0.0759979 363.574 0.127534C363.644 0.179071 363.703 0.243875 363.747 0.318247C363.792 0.392619 363.822 0.475101 363.835 0.560986C364.795 6.88199 356.67 12.42 348.815 17.778C345.162 20.268 341.71 22.62 339.497 24.861C332.899 31.56 333.963 43.086 333.975 43.203C333.992 43.3788 333.938 43.5541 333.826 43.6902C333.713 43.8264 333.551 43.9123 333.376 43.929L333.316 43.935Z" fill="black"/>
<path d="M349.103 34.7009C348.994 34.6999 348.886 34.6721 348.79 34.6198C348.694 34.5675 348.612 34.4923 348.551 34.4009C348.308 34.0379 342.616 25.4009 346.944 17.5379C346.984 17.4586 347.04 17.3881 347.108 17.3308C347.176 17.2734 347.255 17.2304 347.34 17.2042C347.424 17.1779 347.514 17.1691 347.602 17.1781C347.691 17.1872 347.777 17.214 347.855 17.2568C347.932 17.2997 348.001 17.3579 348.056 17.4278C348.111 17.4977 348.151 17.578 348.175 17.6639C348.198 17.7497 348.204 17.8394 348.192 17.9275C348.18 18.0157 348.15 18.1005 348.104 18.1769C344.161 25.3409 349.604 33.5789 349.652 33.6629C349.749 33.8087 349.785 33.9871 349.751 34.1591C349.718 34.3311 349.617 34.4828 349.472 34.5809C349.363 34.6564 349.235 34.6981 349.103 34.7009Z" fill="black"/>
<path d="M369.144 22.3979C369.017 22.3975 368.893 22.3604 368.786 22.2913C368.68 22.2221 368.596 22.1237 368.544 22.0079C368.488 21.8643 368.45 21.714 368.433 21.5609C367.263 15.0329 363.055 11.6609 356.595 12.0299C356.423 12.0344 356.256 11.9719 356.129 11.8555C356.003 11.7391 355.926 11.5779 355.916 11.4061C355.906 11.2343 355.963 11.0653 356.075 10.9348C356.187 10.8043 356.346 10.7226 356.517 10.7069C363.736 10.2839 368.433 14.0549 369.737 21.3269C369.751 21.4169 369.763 21.4829 369.773 21.5249C369.825 21.6802 369.818 21.8492 369.752 21.9993C369.687 22.1494 369.568 22.27 369.419 22.3379C369.333 22.3781 369.239 22.3986 369.144 22.3979Z" fill="black"/>
</g>
<defs>
<clipPath id="clip0_8_322">
<rect width="526" height="549" fill="white"/>
</clipPath>
</defs>
</svg>
