<svg width="25" height="29" viewBox="0 0 25 29" fill="none" xmlns="http://www.w3.org/2000/svg">
<g clip-path="url(#clip0_8_78)">
<path d="M25 16.1796C24.9752 21.4654 21.5137 29.0438 12.2253 29.0031C3.36831 28.9593 -0.0248375 21.3465 -2.08392e-06 16.0607C0.0248334 10.8906 3.14479 5.92698 10.6203 6.05209C10.7693 6.05209 12.3929 6.54001 12.545 6.54314C12.6971 6.54627 14.6902 6.07398 14.8112 6.07398C22.3333 6.11464 25.0248 10.9845 25 16.1796Z" fill="#A60303"/>
<path d="M12.5761 7.55652C13.5043 2.30824 17.3848 1.02902 21.0388 0.434753C22.1253 5.15445 18.0243 6.31482 12.5761 7.55652Z" fill="white"/>
<path d="M12.5761 7.99125C12.5191 7.99308 12.4623 7.98352 12.409 7.96312C12.3558 7.94272 12.307 7.91188 12.2656 7.8724C12.214 7.82224 12.1754 7.76007 12.1532 7.69135C12.131 7.62264 12.1259 7.54948 12.1383 7.47831C13.1193 2.00171 17.152 0.625526 20.9704 -1.35043e-05C21.0787 -0.0179378 21.1897 0.00636609 21.2808 0.0679543C21.3719 0.129543 21.4363 0.223789 21.4609 0.331522C21.8117 1.8766 21.6689 3.12768 21.0232 4.15669C19.7318 6.23349 16.6118 7.08422 12.6723 7.98187C12.6406 7.98808 12.6084 7.99122 12.5761 7.99125ZM20.6973 0.938295C17.3227 1.53569 14.1562 2.76487 13.138 6.981C16.5528 6.18031 19.2413 5.3765 20.2782 3.6938C20.7531 2.9494 20.8866 2.0455 20.6973 0.938295Z" fill="black"/>
<path d="M12.2315 7.65034L11.3746 3.1277C11.3586 3.04231 11.3599 2.95456 11.3782 2.86967C11.3966 2.78478 11.4318 2.70448 11.4816 2.63356C11.5314 2.56264 11.5949 2.50255 11.6683 2.45686C11.7416 2.41118 11.8234 2.38085 11.9086 2.36767C12.4151 2.27715 12.9345 2.28991 13.436 2.4052C13.6239 2.45912 13.7829 2.5858 13.8783 2.75753C13.9737 2.92927 13.9977 3.13208 13.9451 3.32161L12.753 7.7473C12.5668 7.87241 12.3991 7.78484 12.2315 7.65034Z" fill="black"/>
<path d="M14.3332 6.48996C14.2352 6.49082 14.1399 6.4581 14.0629 6.39715C13.9859 6.33621 13.9317 6.25068 13.9093 6.15462C13.8869 6.05856 13.8976 5.95768 13.9397 5.86857C13.9817 5.77945 14.0526 5.7074 14.1407 5.66425C16.9098 4.26304 18.0057 3.49363 19.6852 1.74525C19.726 1.70417 19.7744 1.67159 19.8276 1.64936C19.8809 1.62713 19.938 1.61569 19.9957 1.61569C20.0533 1.61569 20.1104 1.62713 20.1637 1.64936C20.2169 1.67159 20.2653 1.70417 20.3061 1.74525C20.3469 1.78632 20.3792 1.83508 20.4013 1.88875C20.4233 1.94241 20.4347 1.99993 20.4347 2.05802C20.4347 2.1161 20.4233 2.17362 20.4013 2.22728C20.3792 2.28095 20.3469 2.32971 20.3061 2.37078C18.5583 4.16608 17.3848 5.0043 14.5287 6.44304C14.468 6.47365 14.4011 6.48971 14.3332 6.48996V6.48996Z" fill="black"/>
</g>
<defs>
<clipPath id="clip0_8_78">
<rect width="25" height="29" fill="white"/>
</clipPath>
</defs>
</svg>
