<svg width="18" height="21" viewBox="0 0 18 21" fill="none" xmlns="http://www.w3.org/2000/svg">
<g clip-path="url(#clip0_9_426)">
<path d="M17.7632 11.4961C17.7455 15.2518 15.2861 20.6364 8.68637 20.6075C2.39328 20.5764 -0.0176417 15.1673 4.54252e-06 11.4116C0.0176508 7.73814 2.23446 4.21134 7.54598 4.30023C7.65186 4.30023 8.80548 4.64691 8.91357 4.64913C9.02165 4.65135 10.4378 4.31579 10.5238 4.31579C15.8684 4.34468 17.7808 7.80481 17.7632 11.4961Z" fill="#A60303"/>
<path d="M8.93562 5.36904C9.59515 1.64 12.3524 0.731077 14.9486 0.308838C15.7206 3.6623 12.8068 4.48678 8.93562 5.36904Z" fill="white"/>
<path d="M8.93561 5.67794C8.89513 5.67924 8.8548 5.67245 8.81694 5.65795C8.77908 5.64346 8.74444 5.62155 8.71504 5.59349C8.67834 5.55786 8.65091 5.51368 8.63514 5.46486C8.61937 5.41603 8.61575 5.36405 8.6246 5.31348C9.32163 1.42222 12.1869 0.4444 14.9 -6.17965e-05C14.977 -0.0127975 15.0558 0.00447107 15.1206 0.0482311C15.1853 0.0919912 15.2311 0.158956 15.2486 0.235503C15.4978 1.33332 15.3963 2.22225 14.9375 2.95339C14.0199 4.429 11.8031 5.03347 9.00399 5.67127C8.98146 5.67569 8.95857 5.67792 8.93561 5.67794ZM14.7059 0.666631C12.3083 1.09109 10.0584 1.96446 9.33486 4.96013C11.7612 4.39122 13.6714 3.82009 14.4082 2.62449C14.7456 2.09558 14.8405 1.45333 14.7059 0.666631Z" fill="black"/>
<path d="M8.69079 5.43569L8.08199 2.22223C8.07062 2.16157 8.07149 2.09922 8.08455 2.0389C8.0976 1.97858 8.12258 1.92152 8.15798 1.87113C8.19338 1.82074 8.23849 1.77805 8.29061 1.74559C8.34274 1.71313 8.40082 1.69158 8.46138 1.68221C8.82126 1.6179 9.19029 1.62697 9.54663 1.70888C9.68012 1.74719 9.79311 1.8372 9.8609 1.95922C9.92869 2.08124 9.94576 2.22535 9.90838 2.36002L9.06136 5.50459C8.92901 5.59348 8.8099 5.53125 8.69079 5.43569Z" fill="black"/>
<path d="M10.1841 4.61124C10.1145 4.61186 10.0468 4.5886 9.99205 4.5453C9.93732 4.502 9.89883 4.44123 9.88292 4.37298C9.86701 4.30473 9.87462 4.23305 9.9045 4.16973C9.93438 4.10641 9.98475 4.05521 10.0473 4.02456C12.0149 3.02896 12.7935 2.48227 13.9869 1.24C14.0158 1.21082 14.0502 1.18767 14.0881 1.17187C14.1259 1.15608 14.1665 1.14795 14.2074 1.14795C14.2484 1.14795 14.289 1.15608 14.3268 1.17187C14.3647 1.18767 14.399 1.21082 14.428 1.24C14.457 1.26918 14.48 1.30383 14.4956 1.34196C14.5113 1.38009 14.5194 1.42096 14.5194 1.46223C14.5194 1.5035 14.5113 1.54437 14.4956 1.5825C14.48 1.62063 14.457 1.65528 14.428 1.68446C13.1862 2.96007 12.3524 3.55565 10.3231 4.57791C10.2799 4.59966 10.2323 4.61107 10.1841 4.61124Z" fill="black"/>
</g>
<defs>
<clipPath id="clip0_9_426">
<rect width="17.7632" height="20.6053" fill="white"/>
</clipPath>
</defs>
</svg>
