<svg width="724" height="557" viewBox="0 0 724 557" fill="none" xmlns="http://www.w3.org/2000/svg">
<g clip-path="url(#clip0_8_198)">
<path d="M25.0452 98.8067C27.8451 92.8914 32.3035 87.9192 37.8771 84.4962C43.4507 81.0732 49.8987 79.3473 56.435 79.5289C57.4241 72.7567 59.986 66.3111 63.915 60.7098C67.8439 55.1085 73.0304 50.5078 79.0578 47.2771C85.0852 44.0464 91.7854 42.2758 98.6204 42.1076C105.455 41.9394 112.234 43.3782 118.413 46.3085C118.777 46.4804 119.137 46.6732 119.496 46.8556C119.646 44.3666 120.405 41.9527 121.704 39.8254C123.003 37.698 124.804 35.9221 126.948 34.6534C129.092 33.3847 131.515 32.6619 134.003 32.5483C136.491 32.4347 138.97 32.9338 141.22 34.0019C141.397 34.0853 141.569 34.1739 141.741 34.2624C142.552 30.1084 144.3 26.1945 146.851 22.8195C149.403 19.4444 152.691 16.6972 156.464 14.7874C160.237 12.8777 164.397 11.8557 168.624 11.7996C172.852 11.7435 177.037 12.6546 180.86 14.4636C182.032 15.0309 183.164 15.6785 184.248 16.4018C184.326 16.2298 184.399 16.0527 184.482 15.8808C186.774 11.0429 190.414 6.97166 194.964 4.15735C199.514 1.34304 204.78 -0.0942513 210.128 0.0186238C215.475 0.131499 220.676 1.78972 225.104 4.79354C229.531 7.79736 232.997 12.0186 235.083 16.9488C237.904 13.6948 241.593 11.3123 245.717 10.0798C249.842 8.84742 254.232 8.81607 258.373 9.98948C262.515 11.1629 266.237 13.4925 269.105 16.7059C271.972 19.9193 273.866 23.8836 274.566 28.1352C281.675 29.2239 288.251 32.558 293.334 37.6511C298.417 42.7442 301.741 49.3299 302.822 56.4476C308.36 57.9335 313.427 60.8106 317.542 64.8063C321.657 68.8019 324.685 73.7835 326.337 79.2788C328.681 79.2897 330.992 79.8237 333.104 80.8419C336.77 82.5741 339.603 85.6881 340.984 89.504C342.365 93.3199 342.181 97.5277 340.474 101.209C344.992 106.594 348.147 112.99 349.67 119.856C351.193 126.722 351.039 133.854 349.222 140.648C347.404 147.441 343.977 153.696 339.23 158.881C334.484 164.066 328.558 168.028 321.955 170.432C317.885 178.911 311.194 185.852 302.873 190.225C294.553 194.598 285.047 196.171 275.763 194.711C257.744 216.745 225.079 252.831 191.732 270.932C186.977 280.087 178.861 287.04 169.09 290.328C159.32 293.617 148.656 292.984 139.341 288.563C138.561 288.193 137.78 287.787 137.046 287.37C131.344 293.157 124.145 297.239 116.256 299.161C108.367 301.082 100.099 300.767 92.379 298.249C86.9233 305.117 79.53 310.183 71.1601 312.789C62.7902 315.395 53.8307 315.421 45.4461 312.862C37.0615 310.304 29.6395 305.28 24.1449 298.443C18.6502 291.607 15.337 283.273 14.6357 274.527C12.7002 273.294 11.0679 271.639 9.86106 269.686C8.65417 267.733 7.90382 265.532 7.66608 263.248C7.42835 260.964 7.70937 258.656 8.48815 256.495C9.26694 254.335 10.5233 252.379 12.1635 250.773C7.33378 246.853 3.95929 241.423 2.58132 235.354C1.20335 229.284 1.90177 222.927 4.56455 217.303C4.69466 217.022 4.8404 216.751 4.98092 216.48C3.04598 214.715 1.5978 212.481 0.77603 209.994C-0.0457406 207.506 -0.213384 204.848 0.289266 202.277C0.791915 199.706 1.9479 197.307 3.64576 195.313C5.34362 193.319 7.52607 191.796 9.98269 190.892C8.36251 187.523 7.43924 183.86 7.26831 180.125C7.09739 176.389 7.68233 172.657 8.98802 169.154C10.2937 165.65 12.2932 162.447 14.8665 159.736C17.4398 157.025 20.5337 154.863 23.9626 153.379C23.723 147.896 24.8292 142.438 27.1844 137.482C27.7317 136.33 28.3433 135.21 29.0164 134.127C25.137 129.193 22.71 123.273 22.0084 117.033C21.3068 110.793 22.3585 104.481 25.0452 98.8067Z" fill="#3E5902"/>
<path d="M300.834 141.28C300.834 141.28 266.217 206.137 287.109 228.943C308.001 251.748 415.339 350.294 415.339 350.294L348.64 452.451C348.64 452.451 272.208 306.294 222.243 288.438C172.277 270.583 92.5976 273.401 92.5976 273.401L99.7958 258.208C99.7958 258.208 174.942 267.191 174.937 254.097C174.931 241.004 138.503 221.726 113 214.244C112.839 193.68 125.913 167.467 125.913 167.467C125.913 167.467 187.985 241.233 193.185 221.914C198.384 202.594 162.825 148.023 162.825 148.023L184.31 143.021C184.31 143.021 217.803 236.836 237.461 220.429C257.12 204.022 213.275 148.835 211.313 143.281C218.662 137.519 242.14 175.757 242.572 158.12C243.004 140.483 240.49 122.102 240.49 122.102L275.883 118.423C275.883 118.423 252.534 176.064 263.001 179.049C273.468 182.035 288.983 132.564 288.983 132.564L300.834 141.28Z" fill="white"/>
<path d="M348.64 453.68H348.582C348.366 453.672 348.156 453.607 347.973 453.49C347.79 453.374 347.641 453.211 347.542 453.019C346.782 451.565 270.751 307.085 221.805 289.595C172.636 272.021 93.4147 274.605 92.6444 274.631C92.4269 274.647 92.2092 274.602 92.016 274.501C91.8228 274.4 91.6618 274.246 91.5514 274.058C91.4363 273.881 91.3683 273.678 91.3537 273.467C91.3391 273.256 91.3785 273.045 91.4682 272.854L98.6663 257.656C98.7776 257.423 98.9589 257.231 99.1849 257.107C99.4108 256.983 99.6699 256.932 99.9259 256.963C117.481 259.047 164.793 262.96 172.756 255.874C173.036 255.664 173.266 255.393 173.428 255.082C173.591 254.771 173.681 254.427 173.693 254.077C173.693 242.572 140.289 223.513 112.636 215.401C112.383 215.327 112.16 215.174 112.001 214.964C111.842 214.754 111.754 214.498 111.751 214.234C111.59 193.607 124.242 167.978 124.763 166.894C124.854 166.712 124.99 166.556 125.156 166.439C125.323 166.322 125.515 166.248 125.717 166.224C125.919 166.2 126.124 166.226 126.314 166.3C126.503 166.374 126.671 166.494 126.803 166.649C140.856 183.322 179.59 226.15 190.015 223.816C190.634 223.68 191.509 223.295 191.972 221.575C196.968 202.98 162.123 149.216 161.784 148.674C161.676 148.508 161.61 148.318 161.59 148.121C161.571 147.924 161.6 147.725 161.674 147.541C161.748 147.358 161.866 147.195 162.016 147.066C162.167 146.938 162.346 146.848 162.539 146.803L184.024 141.802C184.318 141.734 184.626 141.776 184.89 141.92C185.155 142.064 185.358 142.3 185.461 142.583C185.721 143.312 211.76 215.698 230.586 220.835C231.632 221.15 232.741 221.189 233.806 220.948C234.871 220.707 235.856 220.194 236.665 219.46C251.712 206.898 226.167 168.4 215.258 151.956C212.078 147.168 210.532 144.818 210.121 143.662C210.034 143.418 210.027 143.154 210.098 142.906C210.17 142.659 210.318 142.44 210.521 142.281C214.737 138.967 221.493 145.574 228.644 152.566C232.808 156.645 238.533 162.246 240.36 161.496C240.787 161.324 241.261 160.329 241.313 158.057C241.74 140.723 239.267 122.419 239.231 122.237C239.208 122.074 239.219 121.908 239.262 121.749C239.304 121.59 239.379 121.441 239.48 121.311C239.582 121.181 239.708 121.073 239.852 120.993C239.996 120.913 240.155 120.863 240.319 120.846L275.711 117.168C275.922 117.146 276.135 117.179 276.33 117.264C276.524 117.35 276.694 117.483 276.821 117.653C276.949 117.823 277.031 118.023 277.059 118.233C277.087 118.444 277.06 118.658 276.981 118.856C271.547 132.272 258.296 168.827 262.163 176.762C262.256 177.018 262.407 177.248 262.604 177.436C262.801 177.624 263.038 177.764 263.298 177.846C270.095 179.81 281.91 150.862 287.76 132.173C287.819 131.986 287.921 131.817 288.059 131.678C288.196 131.539 288.365 131.435 288.55 131.374C288.736 131.313 288.934 131.298 289.127 131.329C289.32 131.36 289.502 131.437 289.66 131.553L301.511 140.27C301.747 140.445 301.912 140.699 301.977 140.986C302.042 141.272 302.002 141.573 301.865 141.833C301.521 142.479 267.899 206.184 287.963 228.083C308.641 250.612 415.094 348.403 416.166 349.387C416.377 349.583 416.512 349.847 416.548 350.133C416.584 350.419 416.519 350.708 416.364 350.95L349.67 453.123C349.558 453.294 349.406 453.435 349.226 453.533C349.046 453.63 348.844 453.681 348.64 453.68ZM104.256 272.026C128.359 272.026 184.409 273.62 222.638 287.276C270.001 304.209 339.313 432.24 348.754 450.028L413.735 350.513C404.018 341.582 305.956 251.357 286.219 229.797C266.129 207.867 294.901 150.081 299.268 141.666L289.649 134.591C286.053 145.782 273.129 183.259 262.683 180.253C262.092 180.078 261.546 179.775 261.085 179.365C260.623 178.956 260.258 178.449 260.013 177.882C255.36 168.337 270.053 129.828 273.999 119.872L241.864 123.206C242.411 127.671 244.165 143.26 243.795 158.162C243.769 159.318 243.681 162.851 241.313 163.82C238.159 165.091 233.802 161.064 226.953 154.369C222.269 149.799 216.096 143.703 212.994 143.922C213.832 145.365 215.487 147.856 217.329 150.638C229.56 169.067 255.006 207.43 238.263 221.393C237.152 222.383 235.807 223.073 234.355 223.399C232.904 223.724 231.393 223.674 229.966 223.253C210.969 218.069 186.944 153.832 183.545 144.485L164.808 148.846C170.575 157.896 199.238 204.184 194.376 222.258C193.627 225.035 191.899 225.967 190.577 226.259C190.185 226.345 189.786 226.387 189.385 226.384C175.155 226.384 134.99 180.086 126.189 169.734C123.41 175.73 114.405 196.441 114.218 213.348C140.382 221.211 176.155 240.264 176.155 254.118C176.147 254.819 175.985 255.509 175.68 256.14C175.375 256.77 174.935 257.325 174.39 257.765C164.501 266.545 108.566 260.485 100.509 259.563L94.5494 272.151C96.5116 272.078 99.853 272.026 104.256 272.026Z" fill="black"/>
<path d="M205.629 117.751C205.811 115.561 206.464 113.435 207.544 111.522C208.624 109.608 210.105 107.95 211.885 106.663C213.665 105.377 215.702 104.49 217.857 104.066C220.011 103.642 222.232 103.689 224.366 104.205C225.039 96.1777 228.787 88.7223 234.825 83.3982C240.864 78.0742 248.725 75.294 256.764 75.6392C264.803 75.9845 272.398 79.4285 277.959 85.2508C283.519 91.073 286.615 98.8223 286.599 106.877C291.591 103.052 297.672 100.921 303.958 100.796C310.243 100.67 316.404 102.556 321.545 106.179C326.685 109.801 330.536 114.972 332.538 120.938C334.539 126.904 334.586 133.353 332.672 139.348C334.201 142.169 334.8 145.403 334.383 148.586C333.967 151.769 332.557 154.739 330.353 157.072C328.15 159.404 325.267 160.981 322.115 161.575C318.964 162.169 315.705 161.751 312.805 160.381C312.117 160.056 311.454 159.68 310.822 159.256C306.579 160.177 302.184 160.15 297.953 159.176C293.721 158.202 289.756 156.305 286.34 153.621C282.925 150.937 280.143 147.532 278.193 143.648C276.244 139.764 275.174 135.497 275.06 131.152C268.962 136.087 261.229 138.541 253.404 138.023C245.579 137.506 238.236 134.055 232.839 128.359C231.552 130.019 229.937 131.395 228.093 132.4C226.25 133.405 224.219 134.018 222.128 134.2C221.885 137.09 220.822 139.851 219.065 142.157C217.308 144.463 214.929 146.219 212.209 147.219C209.489 148.218 206.541 148.419 203.71 147.798C200.88 147.177 198.286 145.759 196.233 143.712C194.18 141.666 192.753 139.075 192.121 136.244C191.489 133.413 191.678 130.461 192.665 127.734C193.652 125.007 195.396 122.618 197.693 120.85C199.989 119.082 202.743 118.006 205.629 117.751Z" fill="#3E5902"/>
<path d="M319.269 163.08C316.187 163.078 313.167 162.206 310.557 160.564C306.355 161.402 302.025 161.353 297.843 160.419C293.662 159.484 289.721 157.685 286.275 155.137C282.829 152.59 279.952 149.349 277.83 145.623C275.708 141.897 274.387 137.768 273.952 133.502C269.257 136.748 263.794 138.704 258.108 139.176C252.422 139.648 246.711 138.618 241.547 136.19C238.349 134.677 235.423 132.645 232.886 130.178C230.337 132.938 226.924 134.746 223.211 135.304C222.68 138.938 220.951 142.29 218.299 144.826C215.646 147.363 212.223 148.939 208.572 149.303C204.922 149.667 201.255 148.799 198.154 146.836C195.054 144.874 192.698 141.93 191.462 138.472C191.352 138.165 191.369 137.826 191.508 137.531C191.648 137.236 191.899 137.009 192.206 136.899C192.513 136.789 192.851 136.806 193.146 136.945C193.441 137.085 193.668 137.336 193.778 137.644C194.853 140.656 196.926 143.208 199.652 144.877C202.378 146.545 205.593 147.229 208.761 146.814C211.929 146.4 214.86 144.911 217.065 142.597C219.271 140.283 220.619 137.283 220.884 134.096C220.91 133.807 221.036 133.537 221.241 133.332C221.445 133.127 221.715 133.001 222.003 132.975C223.926 132.807 225.793 132.244 227.487 131.319C229.182 130.395 230.667 129.13 231.851 127.604C231.959 127.464 232.097 127.349 232.254 127.267C232.411 127.185 232.584 127.138 232.761 127.13C232.939 127.117 233.116 127.145 233.281 127.211C233.446 127.277 233.594 127.379 233.714 127.51C238.896 132.984 245.949 136.301 253.467 136.798C260.984 137.296 268.413 134.937 274.269 130.193C274.448 130.05 274.664 129.959 274.891 129.931C275.119 129.904 275.35 129.94 275.558 130.036C275.766 130.133 275.943 130.285 276.069 130.477C276.196 130.668 276.266 130.891 276.273 131.121C276.381 135.285 277.406 139.374 279.275 143.097C281.143 146.819 283.809 150.083 287.083 152.655C290.356 155.227 294.156 157.045 298.212 157.978C302.268 158.911 306.48 158.936 310.546 158.052C310.708 158.018 310.876 158.016 311.038 158.048C311.201 158.079 311.356 158.143 311.494 158.235C312.075 158.626 312.683 158.974 313.315 159.277C316.667 160.863 320.511 161.053 324.003 159.806C327.496 158.559 330.351 155.975 331.943 152.623C332.003 152.465 332.095 152.32 332.213 152.199C332.332 152.078 332.474 151.983 332.631 151.919C332.787 151.856 332.956 151.825 333.125 151.83C333.294 151.834 333.46 151.874 333.614 151.946C333.767 152.018 333.903 152.121 334.015 152.248C334.127 152.376 334.211 152.525 334.262 152.686C334.313 152.847 334.331 153.018 334.313 153.186C334.296 153.355 334.244 153.518 334.16 153.665C332.824 156.485 330.715 158.868 328.079 160.534C325.443 162.201 322.387 163.084 319.269 163.08Z" fill="white"/>
<path d="M89.1833 236.654C90.2822 235.182 91.6716 233.952 93.2654 233.04C94.8591 232.128 96.6231 231.554 98.4478 231.353C100.272 231.153 102.119 231.329 103.872 231.873C105.626 232.417 107.249 233.315 108.641 234.513C110.033 235.711 111.164 237.183 111.964 238.837C112.764 240.491 113.216 242.292 113.291 244.128C113.366 245.964 113.064 247.796 112.402 249.51C111.741 251.224 110.734 252.784 109.445 254.092C111.975 260.234 112.365 267.05 110.55 273.44C108.736 279.831 104.824 285.423 99.4457 289.315C94.0672 293.207 87.5359 295.171 80.9053 294.892C74.2747 294.612 67.9316 292.104 62.8993 287.773C57.867 283.442 54.439 277.54 53.1683 271.02C51.8976 264.499 52.8583 257.74 55.8955 251.833C58.9326 245.926 63.8691 241.216 69.9085 238.462C75.9479 235.708 82.7379 235.071 89.1833 236.654Z" fill="#3E5902"/>
<path d="M82.667 296.431C75.7742 296.415 69.0855 294.087 63.6706 289.818C58.2556 285.548 54.427 279.585 52.7969 272.88C52.759 272.723 52.7523 272.56 52.7773 272.401C52.8023 272.241 52.8584 272.088 52.9425 271.95C53.0266 271.812 53.137 271.692 53.2674 271.597C53.3978 271.502 53.5457 271.433 53.7026 271.396C53.8594 271.358 54.0222 271.351 54.1817 271.376C54.3411 271.401 54.494 271.457 54.6318 271.541C54.7695 271.625 54.8894 271.736 54.9844 271.867C55.0795 271.997 55.148 272.145 55.1859 272.302C56.1067 276.093 57.8 279.653 60.1596 282.759C62.5192 285.865 65.4942 288.449 68.8982 290.349C72.3021 292.25 76.0616 293.426 79.9409 293.804C83.8202 294.182 87.7358 293.754 91.442 292.546C95.1483 291.339 98.5654 289.378 101.479 286.786C104.393 284.194 106.74 281.028 108.374 277.486C110.008 273.944 110.894 270.102 110.975 266.201C111.056 262.3 110.332 258.424 108.847 254.817C108.754 254.593 108.73 254.348 108.776 254.11C108.822 253.873 108.938 253.655 109.107 253.483C110.247 252.324 111.144 250.949 111.745 249.438C112.346 247.927 112.638 246.311 112.605 244.685C112.571 243.059 112.213 241.456 111.55 239.971C110.888 238.486 109.935 237.149 108.748 236.039C108.63 235.928 108.535 235.796 108.468 235.649C108.402 235.501 108.365 235.342 108.359 235.181C108.354 235.019 108.38 234.858 108.437 234.707C108.494 234.555 108.58 234.417 108.691 234.299C108.801 234.181 108.934 234.086 109.081 234.019C109.228 233.952 109.387 233.915 109.548 233.91C109.709 233.904 109.87 233.931 110.021 233.988C110.173 234.045 110.311 234.131 110.429 234.241C113.209 236.843 114.866 240.426 115.05 244.23C115.234 248.035 113.929 251.761 111.413 254.619C113.188 259.284 113.806 264.312 113.212 269.269C112.618 274.226 110.83 278.965 108.003 283.077C105.175 287.19 101.392 290.554 96.979 292.88C92.5658 295.206 87.6544 296.425 82.667 296.431Z" fill="white"/>
<path d="M103.08 166.451C101.321 162.461 100.711 158.057 101.32 153.738C101.929 149.419 103.732 145.357 106.527 142.01C109.321 138.663 112.994 136.165 117.131 134.797C121.269 133.43 125.706 133.248 129.942 134.273C130.99 128.173 133.925 122.557 138.332 118.216C142.74 113.876 148.397 111.029 154.506 110.079C160.616 109.128 166.869 110.122 172.384 112.919C177.9 115.716 182.399 120.176 185.247 125.669C188.095 131.162 189.149 137.412 188.26 143.537C187.371 149.662 184.583 155.353 180.291 159.807C175.998 164.262 170.417 167.255 164.335 168.365C158.252 169.474 151.975 168.645 146.389 165.993L146.087 165.842C145.925 166.243 145.754 166.639 145.566 167.035C143.935 170.485 141.484 173.482 138.429 175.764C135.373 178.047 131.805 179.545 128.037 180.128C131.556 185.66 133.138 192.207 132.531 198.738C131.925 205.269 129.166 211.413 124.688 216.201C120.21 220.989 114.268 224.15 107.798 225.185C101.328 226.221 94.6978 225.072 88.9517 221.921C83.2055 218.769 78.67 213.793 76.0596 207.777C73.4492 201.761 72.9122 195.047 74.5333 188.692C76.1543 182.337 79.8413 176.702 85.0134 172.676C90.1854 168.649 96.5487 166.459 103.101 166.451H103.08Z" fill="#3E5902"/>
<path d="M103.611 225.738C99.2794 225.727 94.9989 224.803 91.0472 223.028C87.0956 221.252 83.5612 218.664 80.6735 215.432C80.4568 215.189 80.3458 214.868 80.3648 214.543C80.3838 214.217 80.5314 213.912 80.775 213.695C81.0187 213.478 81.3384 213.367 81.664 213.386C81.9895 213.405 82.2941 213.553 82.5108 213.796C87.2334 219.15 93.8019 222.521 100.901 223.233C108.001 223.945 115.107 221.947 120.797 217.637C126.487 213.328 130.34 207.026 131.586 199.993C132.832 192.961 131.379 185.717 127.516 179.711C127.407 179.539 127.342 179.342 127.327 179.138C127.313 178.934 127.349 178.73 127.433 178.543C127.518 178.357 127.647 178.195 127.809 178.071C127.972 177.948 128.163 177.867 128.365 177.835C131.937 177.283 135.32 175.864 138.219 173.701C141.118 171.539 143.444 168.699 144.994 165.43C145.171 165.055 145.332 164.68 145.514 164.299C145.578 164.144 145.672 164.003 145.792 163.886C145.912 163.769 146.055 163.678 146.211 163.617C146.368 163.557 146.535 163.53 146.702 163.537C146.87 163.544 147.034 163.585 147.185 163.658L147.476 163.799C150.834 165.394 154.473 166.312 158.185 166.499C161.897 166.686 165.61 166.139 169.111 164.889C172.612 163.639 175.832 161.711 178.588 159.215C181.345 156.719 183.583 153.703 185.174 150.341C187.607 145.154 188.421 139.353 187.51 133.695C186.6 128.037 184.006 122.786 180.069 118.626C179.844 118.39 179.722 118.074 179.729 117.748C179.737 117.421 179.874 117.111 180.11 116.886C180.346 116.661 180.662 116.539 180.988 116.547C181.314 116.554 181.624 116.692 181.849 116.928C186.764 122.073 189.747 128.764 190.29 135.862C190.833 142.961 188.902 150.028 184.827 155.863C180.751 161.697 174.783 165.938 167.936 167.863C161.09 169.789 153.788 169.281 147.273 166.425C147.259 166.447 147.247 166.469 147.237 166.493C145.647 169.85 143.319 172.803 140.426 175.131C137.533 177.46 134.152 179.102 130.535 179.935C133.144 184.624 134.484 189.914 134.423 195.281C134.362 200.648 132.902 205.906 130.187 210.535C127.472 215.163 123.597 219.002 118.944 221.67C114.292 224.339 109.025 225.744 103.663 225.749L103.611 225.738Z" fill="white"/>
<path d="M68.6454 250.857C67.6857 252.888 67.3488 255.159 67.6775 257.382C68.0061 259.605 68.9855 261.68 70.4919 263.346C71.9982 265.012 73.964 266.194 76.141 266.742C78.3179 267.291 80.6084 267.181 82.723 266.427C84.8376 265.673 86.6815 264.308 88.0219 262.506C89.3622 260.703 90.1389 258.543 90.2538 256.299C90.3686 254.055 89.8165 251.827 88.6672 249.897C87.5179 247.966 85.8229 246.42 83.7964 245.454C82.4475 244.81 80.9851 244.44 79.493 244.363C78.0008 244.287 76.5083 244.506 75.1008 245.008C73.6933 245.51 72.3986 246.285 71.2909 247.288C70.1832 248.292 69.2841 249.505 68.6454 250.857Z" fill="white"/>
<path d="M53.6089 222.998C53.0066 224.27 52.7946 225.692 52.9997 227.084C53.2047 228.477 53.8176 229.777 54.7608 230.821C55.7041 231.864 56.9353 232.605 58.2988 232.948C59.6624 233.292 61.097 233.223 62.4213 232.75C63.7457 232.277 64.9002 231.422 65.7391 230.292C66.5779 229.163 67.0634 227.81 67.134 226.404C67.2047 224.998 66.8574 223.603 66.1361 222.395C65.4147 221.187 64.3517 220.22 63.0815 219.616C62.2377 219.215 61.3234 218.985 60.3906 218.938C59.4579 218.891 58.525 219.028 57.6454 219.342C56.7657 219.656 55.9565 220.141 55.2639 220.768C54.5713 221.395 54.0089 222.153 53.6089 222.998Z" fill="white"/>
<path d="M307.564 108.67C306.683 110.539 306.375 112.627 306.679 114.671C306.983 116.716 307.886 118.624 309.273 120.154C310.661 121.685 312.47 122.769 314.473 123.271C316.476 123.772 318.582 123.668 320.526 122.971C322.47 122.274 324.163 121.016 325.393 119.356C326.623 117.695 327.333 115.707 327.434 113.643C327.535 111.579 327.023 109.531 325.961 107.758C324.9 105.985 323.337 104.567 321.471 103.683C318.966 102.499 316.094 102.358 313.486 103.293C310.878 104.229 308.748 106.162 307.564 108.67Z" fill="white"/>
<path d="M297.123 139.071C296.568 140.246 296.373 141.559 296.563 142.844C296.753 144.129 297.32 145.329 298.191 146.292C299.062 147.255 300.199 147.938 301.458 148.254C302.717 148.571 304.041 148.506 305.263 148.069C306.485 147.632 307.551 146.842 308.325 145.799C309.098 144.756 309.546 143.507 309.611 142.209C309.675 140.912 309.354 139.624 308.688 138.509C308.022 137.394 307.04 136.502 305.867 135.945C304.293 135.2 302.488 135.11 300.849 135.697C299.209 136.283 297.869 137.497 297.123 139.071Z" fill="white"/>
<path d="M417.737 419.654C432.432 388.633 429.262 356.327 410.658 347.495C392.053 338.664 365.059 356.652 350.365 387.673C335.671 418.694 338.84 451 357.445 459.832C376.049 468.663 403.043 450.675 417.737 419.654Z" fill="white"/>
<path d="M367.736 463.319C363.997 463.345 360.299 462.532 356.915 460.938C337.731 451.831 334.29 418.725 349.238 387.12C356.442 371.922 366.778 359.302 378.349 351.591C390.111 343.776 401.77 341.9 411.17 346.381C430.36 355.494 433.8 388.584 418.836 420.179C411.638 435.382 401.301 448.001 389.726 455.707C382.169 460.751 374.643 463.319 367.736 463.319ZM400.359 346.48C393.937 346.48 386.874 348.908 379.723 353.67C368.517 361.136 358.487 373.401 351.471 388.209C337.09 418.564 340.021 450.21 357.972 458.729C366.56 462.804 377.36 461.011 388.378 453.67C399.584 446.204 409.613 433.939 416.629 419.137C431.005 388.777 428.08 357.135 410.129 348.616C407.072 347.184 403.734 346.454 400.359 346.48Z" fill="black"/>
<path d="M371.509 454.128C369.029 454.149 366.575 453.615 364.327 452.565C357.462 449.309 353.366 441.416 352.783 430.344C352.221 419.543 355.068 406.898 360.808 394.81C364.894 386.187 370.177 378.414 376.11 372.333C376.338 372.1 376.649 371.966 376.975 371.962C377.301 371.958 377.616 372.084 377.849 372.312C378.082 372.54 378.215 372.852 378.219 373.178C378.223 373.504 378.097 373.819 377.87 374.053C372.144 379.94 366.997 387.485 363.026 395.868C357.462 407.617 354.698 419.835 355.219 430.214C355.739 440.342 359.351 447.491 365.363 450.341C370.973 453.008 378.27 451.638 385.906 446.485C386.176 446.314 386.501 446.256 386.814 446.321C387.126 446.387 387.401 446.572 387.58 446.837C387.758 447.101 387.827 447.426 387.771 447.74C387.715 448.055 387.539 448.335 387.28 448.522C381.799 452.248 376.391 454.128 371.509 454.128Z" fill="black"/>
<path d="M412.075 367.045C411.901 367.045 411.729 367.009 411.571 366.938C411.412 366.867 411.27 366.763 411.154 366.633C409.902 365.197 408.37 364.032 406.652 363.21C403.857 361.882 400.666 361.543 397.164 362.199C397.005 362.229 396.842 362.227 396.684 362.194C396.526 362.161 396.377 362.097 396.243 362.006C396.11 361.914 395.996 361.798 395.908 361.663C395.82 361.527 395.759 361.376 395.73 361.217C395.7 361.058 395.702 360.895 395.735 360.737C395.768 360.579 395.832 360.429 395.923 360.296C396.014 360.163 396.131 360.049 396.266 359.961C396.401 359.872 396.552 359.812 396.711 359.782C400.734 359.026 404.435 359.433 407.708 360.985C409.723 361.951 411.52 363.316 412.991 364.997C413.149 365.174 413.252 365.393 413.288 365.627C413.324 365.862 413.292 366.101 413.195 366.318C413.098 366.534 412.941 366.718 412.743 366.847C412.544 366.976 412.312 367.045 412.075 367.045Z" fill="black"/>
<path d="M228.405 278.877C228.301 279.653 228.249 280.434 228.249 281.217C228.249 316.125 331.896 344.391 459.745 344.391C587.595 344.391 688.874 319.173 688.874 284.286C688.874 249.398 587.616 218.038 459.745 218.038C334.759 218.038 232.907 245.068 228.405 278.877Z" fill="white"/>
<path d="M459.746 345.62C397.809 345.62 339.558 339.035 295.728 327.072C251.42 314.984 227.026 298.697 227.026 281.222C227.027 280.387 227.082 279.554 227.192 278.726C231.814 244.011 333.962 216.818 459.751 216.818C520.912 216.818 578.752 223.951 622.607 236.904C666.134 249.763 690.108 266.602 690.108 284.317C690.108 301.651 666.119 317.397 622.566 328.645C580.084 339.582 522.265 345.62 459.746 345.62ZM459.746 219.267C399.501 219.267 342.488 225.551 299.205 236.982C256.448 248.262 231.736 263.205 229.623 279.055C229.528 279.775 229.479 280.501 229.477 281.227C229.477 297.264 253.861 313.114 296.379 324.717C339.995 336.622 398.017 343.177 459.746 343.177C522.062 343.177 579.668 337.164 621.946 326.244C664.313 315.302 687.646 300.411 687.646 284.301C687.646 268.024 663.704 251.612 621.905 239.269C578.247 226.363 520.677 219.267 459.746 219.267Z" fill="black"/>
<path d="M234.083 303.626C234.083 337.769 335.498 365.445 460.62 365.445C585.742 365.445 684.804 340.749 684.804 306.627C684.804 272.505 585.7 241.807 460.62 241.807C335.539 241.807 234.083 269.483 234.083 303.626Z" fill="white"/>
<path d="M460.62 366.675C400.011 366.675 342.993 360.23 300.126 348.522C256.76 336.69 232.876 320.741 232.876 303.626C232.876 286.51 256.76 270.562 300.126 258.724C342.993 247.022 399.99 240.577 460.62 240.577C520.474 240.577 577.071 247.559 619.984 260.235C662.59 272.818 686.053 289.293 686.053 306.606C686.053 323.586 662.574 338.998 619.953 350.007C578.356 360.761 521.776 366.675 460.62 366.675ZM460.62 243.036C400.245 243.036 343.456 249.45 300.772 261.1C259.186 272.448 235.333 287.948 235.333 303.626C235.333 319.303 259.186 334.799 300.772 346.152C343.435 357.797 400.203 364.195 460.62 364.195C521.599 364.195 577.961 358.307 619.328 347.626C660.696 336.945 683.596 322.357 683.596 306.606C683.596 290.694 660.175 274.647 619.287 262.575C576.571 249.981 520.225 243.036 460.62 243.036Z" fill="black"/>
<path d="M228.249 281.217C228.249 316.125 330.782 341.134 458.606 341.134C572.527 341.134 666.514 320.94 685.683 291.71C685.831 291.501 686.044 291.346 686.29 291.272C686.535 291.197 686.798 291.207 687.037 291.299C687.276 291.391 687.477 291.561 687.609 291.78C687.741 292 687.796 292.258 687.765 292.512L679.219 356.348C661.721 430.109 575.166 474.563 483.521 481.112C448.04 483.65 454.322 484.666 416.234 481.112C329.684 473.042 257.489 421.789 241.438 355.025L226.531 285.875C226.531 283.52 228.249 280.571 228.249 281.217Z" fill="white"/>
<path d="M448.925 484.65C441.784 484.65 433.654 483.978 416.135 482.342C328.602 474.177 256.282 421.945 240.23 355.337L225.329 286.146C225.308 286.06 225.298 285.973 225.298 285.885C225.298 284.15 226.557 279.904 228.207 279.904C228.545 279.921 228.863 280.066 229.097 280.31C229.334 280.556 229.469 280.881 229.477 281.222C229.477 297.301 253.029 312.166 295.786 323.081C338.334 333.944 396.159 339.926 458.606 339.926C572.829 339.926 665.786 319.83 684.653 291.054C684.942 290.601 685.38 290.263 685.89 290.096C686.401 289.93 686.953 289.946 687.453 290.142C687.966 290.324 688.401 290.677 688.685 291.142C688.969 291.607 689.085 292.155 689.015 292.695L680.463 356.525C672.136 391.752 647.699 422.304 609.835 445C575.234 465.742 530.41 479.007 483.625 482.352C476.999 482.826 471.831 483.243 467.558 483.592C459.345 484.249 454.426 484.65 448.925 484.65ZM228.186 287.74L242.624 354.78C258.426 420.361 329.861 471.822 416.338 479.888C447.197 482.769 448.722 482.644 467.344 481.128C471.623 480.784 476.796 480.362 483.432 479.888C567.093 473.906 659.712 433.303 678.033 356.067L686.506 292.7C666.728 321.966 573.204 342.374 458.606 342.374C395.956 342.374 337.918 336.367 295.177 325.457C256.823 315.667 233.5 302.448 228.186 287.74Z" fill="black"/>
<path d="M597.812 289.98C607.927 289.98 616.127 286.787 616.127 282.848C616.127 278.908 607.927 275.715 597.812 275.715C587.696 275.715 579.496 278.908 579.496 282.848C579.496 286.787 587.696 289.98 597.812 289.98Z" fill="black"/>
<path d="M485.868 315.443C485.868 319.382 494.071 322.576 504.189 322.576C514.307 322.576 522.504 319.382 522.504 315.443C522.504 311.504 514.307 308.315 504.189 308.315C494.071 308.315 485.868 311.509 485.868 315.443Z" fill="black"/>
<path d="M418.706 267.566C418.706 271.505 426.904 274.694 437.022 274.694C447.14 274.694 455.342 271.505 455.342 267.566C455.342 263.627 447.14 260.433 437.022 260.433C426.904 260.433 418.706 263.637 418.706 267.566Z" fill="black"/>
<path d="M365.784 310.352C365.784 314.291 373.987 317.485 384.105 317.485C394.223 317.485 402.42 314.291 402.42 310.352C402.42 306.413 394.218 303.235 384.11 303.235C374.003 303.235 365.784 306.413 365.784 310.352Z" fill="black"/>
<path d="M498.536 236.68C495.887 238.66 495.502 253.451 494.721 259.839C494.747 257.39 492.561 246.652 489.886 246.001C487.211 245.35 487.648 250.169 485.603 250.977C483.557 251.784 482.709 244.818 480.669 247.329C478.628 249.841 480.726 252.894 479.898 254.718C479.071 256.541 476.921 251.039 475.058 253.915C473.195 256.791 479.518 262.027 477.546 262.939C475.573 263.851 473.991 259.605 472.986 262.137C471.982 264.669 490.11 292.617 491.723 291.538C495.606 288.964 503.882 290.157 508.446 291.048C513.011 291.939 517.248 294.039 521.349 296.259C522.421 296.832 523.759 297.405 524.768 296.738C525.684 296.134 525.809 294.758 525.289 293.784C524.768 292.81 522.832 292.189 524.357 291.335C525.882 290.481 528.053 290.741 530.603 290.356C531.081 290.326 531.538 290.143 531.904 289.834C532.846 288.891 531.503 287.339 530.207 287.026C528.911 286.714 526.403 286.505 525.794 285.296C526.257 284.145 529.073 283.608 530.254 283.212C531.436 282.816 532.414 281.368 532.149 280.149C531.66 277.898 524.342 277.544 523.915 275.793C523.488 274.042 530.593 273.709 526.944 270.093C522.999 266.18 519.657 268.801 507.197 275.069C506.848 275.225 506.521 275.402 506.193 275.59C511.444 269.509 514.109 265.628 519.626 259.959C520.558 259.006 524.087 255.27 522.655 252.55C521.224 249.83 517.742 255.744 517.721 253.545C517.69 250.32 522.494 247.746 520.933 244.912C519.371 242.077 516.712 246.251 516.129 244.964C515.546 243.677 518.236 238.967 516.732 236.628C515.228 234.288 511.705 238.555 509.888 238.524C508.072 238.493 509.669 233.699 509.17 232.939C508.249 231.542 506.901 231.803 505.599 232.861C504.298 233.918 503.668 236.826 502.284 238.592C500.899 240.358 501.186 234.705 498.536 236.68Z" fill="#3E5902"/>
<path d="M285.475 289.98C285.212 289.98 284.957 289.896 284.746 289.74C284.534 289.584 284.378 289.364 284.301 289.113C284.224 288.862 284.229 288.593 284.315 288.345C284.402 288.096 284.566 287.883 284.783 287.735C323.818 261.262 358.3 251.883 387.316 259.855C399.251 263.132 406.121 268.087 414.079 273.823C415.006 274.496 415.948 275.173 416.916 275.861C417.181 276.05 417.361 276.337 417.415 276.659C417.47 276.981 417.394 277.311 417.205 277.577C417.015 277.843 416.729 278.023 416.407 278.078C416.085 278.132 415.755 278.056 415.49 277.867L412.643 275.824C404.877 270.223 398.173 265.404 386.666 262.225C358.383 254.457 324.573 263.721 286.173 289.772C285.966 289.909 285.723 289.982 285.475 289.98Z" fill="black"/>
<path d="M503.538 307.403C483.203 307.403 462.291 300.172 452.011 296.618C449.018 295.576 446.104 294.492 443.345 293.367C443.062 293.231 442.841 292.991 442.728 292.698C442.615 292.404 442.618 292.078 442.737 291.787C442.856 291.495 443.082 291.26 443.368 291.13C443.654 290.999 443.979 290.983 444.277 291.085C446.989 292.195 449.862 293.273 452.807 294.294C468.895 299.854 511.621 314.614 535.527 295.336C540.35 291.438 544.899 287.211 549.142 282.686C550.49 281.285 551.745 279.966 553.129 278.638C553.243 278.518 553.38 278.423 553.532 278.358C553.683 278.292 553.847 278.258 554.012 278.257C554.177 278.256 554.34 278.289 554.493 278.353C554.645 278.417 554.783 278.511 554.898 278.629C555.013 278.748 555.103 278.888 555.163 279.042C555.222 279.196 555.251 279.361 555.245 279.526C555.24 279.691 555.202 279.854 555.132 280.004C555.063 280.153 554.964 280.288 554.842 280.399C553.504 281.701 552.239 283.004 550.912 284.395C546.599 288.996 541.973 293.293 537.067 297.254C527.714 304.798 515.728 307.403 503.538 307.403Z" fill="black"/>
<path d="M651.228 295.024C650.914 295.024 650.612 294.902 650.385 294.685C618.964 264.726 584.103 265.471 570.055 270.051C569.745 270.152 569.408 270.126 569.117 269.978C568.827 269.83 568.607 269.572 568.507 269.262C568.406 268.952 568.432 268.614 568.58 268.323C568.728 268.033 568.985 267.813 569.295 267.712C583.822 262.976 619.818 262.142 652.051 292.898C652.168 293.01 652.261 293.143 652.327 293.291C652.392 293.439 652.428 293.598 652.432 293.76C652.436 293.921 652.408 294.082 652.349 294.233C652.291 294.384 652.204 294.521 652.092 294.638C651.981 294.757 651.848 294.853 651.699 294.919C651.551 294.985 651.391 295.021 651.228 295.024Z" fill="black"/>
<path d="M346.178 277.674L335.3 276.684C334.551 276.618 333.805 276.844 333.218 277.314L320.935 287.151C320.551 287.458 320.251 287.857 320.061 288.311C319.872 288.765 319.8 289.259 319.852 289.748C319.904 290.237 320.078 290.705 320.358 291.109C320.638 291.513 321.016 291.84 321.455 292.059L330.616 296.644C331.157 296.914 331.769 297.009 332.367 296.916C332.964 296.822 333.518 296.545 333.952 296.123L347.953 282.696C348.354 282.305 348.635 281.808 348.762 281.262C348.889 280.716 348.858 280.145 348.671 279.617C348.484 279.088 348.15 278.624 347.708 278.28C347.267 277.936 346.735 277.725 346.178 277.674Z" fill="black"/>
<path d="M456.18 319.053L425.785 301.474C425.641 301.391 425.485 301.335 425.321 301.307L420.46 300.5C420.162 300.452 419.856 300.502 419.589 300.644C419.323 300.786 419.11 301.012 418.983 301.286C418.856 301.561 418.822 301.869 418.887 302.165C418.952 302.46 419.111 302.726 419.341 302.923L437.037 317.912C437.219 318.064 437.435 318.168 437.667 318.215L455.228 321.617C455.55 321.68 455.884 321.626 456.17 321.466C456.456 321.305 456.676 321.048 456.791 320.74C456.905 320.432 456.907 320.093 456.795 319.784C456.683 319.475 456.465 319.216 456.18 319.053Z" fill="black"/>
<path d="M616.908 304.001L591.67 299.671L572.376 308.065L589.151 319.007L617.21 306.439C617.469 306.335 617.687 306.147 617.829 305.905C617.971 305.664 618.029 305.382 617.995 305.104C617.961 304.826 617.835 304.567 617.639 304.368C617.442 304.168 617.185 304.039 616.908 304.001Z" fill="black"/>
<path d="M332.583 440.41C332.583 440.41 310.203 515.13 213.488 516.333C108.649 517.657 54.9725 401.474 76.2391 316.146C87.0077 272.901 108.509 265.607 108.509 265.607L332.583 440.41Z" fill="black"/>
<path d="M211.661 517.594C159.749 517.594 126.746 489.72 108.134 466.18C75.5521 424.962 62.561 365.956 75.0472 315.865C85.8783 272.495 107.218 264.784 108.108 264.476C108.301 264.412 108.506 264.396 108.707 264.43C108.907 264.464 109.096 264.546 109.258 264.669L333.317 439.436C333.511 439.589 333.654 439.797 333.729 440.033C333.804 440.269 333.808 440.522 333.739 440.759C333.504 441.535 327.857 459.938 310.182 478.762C293.886 496.123 263.86 516.943 213.504 517.579L211.661 517.594ZM108.311 267.055C104.844 268.618 86.8932 278.518 77.431 316.459C65.1218 365.841 77.9515 424.008 110.065 464.653C128.333 487.766 160.738 515.13 211.667 515.13H213.473C262.991 514.505 292.423 494.096 308.392 477.095C323.641 460.85 329.835 444.583 331.121 440.863L108.311 267.055Z" fill="white"/>
<path d="M316.053 461.96C316.053 461.96 249.594 527.275 156.756 429.453C63.9195 331.631 89.3342 260.813 119.907 262.83C150.48 264.846 200.903 313.822 267.821 344.755C334.738 375.689 353.402 428.051 316.053 461.96Z" fill="white"/>
<path d="M258.332 484.551H256.771C223.429 483.973 189.489 465.721 155.893 430.313C91.1351 362.059 83.0833 305.981 95.8662 278.695C101.175 267.358 110.184 260.98 120.011 261.621C136.807 262.731 158.87 277.33 186.798 295.816C210.605 311.572 237.591 329.432 268.362 343.656C306.986 361.512 331.516 387.333 335.675 414.515C338.428 432.517 331.943 449.247 316.938 462.897C316.074 463.642 293.902 484.551 258.332 484.551ZM118.668 264.018C110.341 264.018 102.731 269.801 98.0886 279.716C85.6389 306.288 93.7687 361.256 157.673 428.604C190.801 463.512 224.158 481.508 256.813 482.076C292.767 482.665 314.996 461.303 315.215 461.084L315.251 461.048C329.648 447.981 335.867 432.006 333.244 414.849C329.216 388.516 305.191 363.372 267.331 345.87C236.363 331.568 209.298 313.656 185.414 297.843C157.792 279.56 135.969 265.122 119.834 264.059C119.428 264.033 119.033 264.018 118.668 264.018Z" fill="black"/>
<path d="M267.821 418.496C267.821 418.496 249.604 442.15 201.778 404.756C153.951 367.363 179.86 330.849 221.519 345.438C263.178 360.027 279.438 397.54 267.821 418.496Z" fill="#BFB304"/>
<path d="M260.029 391.772C259.78 391.773 259.536 391.697 259.331 391.556C259.125 391.414 258.968 391.214 258.879 390.98C252.893 375.261 237.68 361.803 218.183 354.978C213.499 353.261 208.561 352.343 203.573 352.263C203.247 352.263 202.935 352.134 202.705 351.903C202.474 351.673 202.345 351.36 202.345 351.034C202.345 350.708 202.474 350.395 202.705 350.164C202.935 349.934 203.247 349.804 203.573 349.804C208.835 349.883 214.047 350.847 218.99 352.654C239.163 359.714 254.934 373.714 261.179 390.105C261.287 390.407 261.272 390.739 261.139 391.031C261.006 391.323 260.765 391.551 260.466 391.668C260.329 391.731 260.18 391.767 260.029 391.772Z" fill="white"/>
<path d="M538.936 453.16C538.936 453.16 562.643 475.439 606.009 483.322C608.377 483.754 610.173 473.281 612.63 473.615C615.799 474.042 622.831 485.989 626.162 486.234C654.122 488.318 687.401 483.431 723.86 463.747C723.86 463.747 713.518 455.353 695.651 446.996C693.569 446.032 683.987 451.815 681.723 450.862C679.568 449.96 684.757 442.312 682.436 441.442C648.511 428.739 596.807 421.018 538.936 453.16Z" fill="#BFB304"/>
<path d="M497.506 453.738C497.506 453.738 531.941 534.434 634.849 549.893C637.399 550.278 640.262 539.217 642.885 539.514C645.508 539.811 654.653 554.066 657.359 554.274C671.174 555.305 685.05 555.167 698.841 553.863C698.841 553.863 638.06 439.139 497.506 453.738Z" fill="white"/>
<path d="M675.383 556.187C669.252 556.187 663.199 555.957 657.266 555.499C655.548 555.363 653.43 552.972 649.006 547.538C646.924 545.005 643.853 541.207 642.76 540.764C642.036 541.129 640.678 543.849 639.903 545.328C638.232 548.611 636.78 551.435 634.646 551.122C581.146 543.083 546.405 517.193 526.684 496.889C505.298 474.871 496.444 454.436 496.356 454.233C496.278 454.056 496.244 453.864 496.257 453.672C496.27 453.479 496.329 453.293 496.429 453.128C496.526 452.961 496.661 452.82 496.822 452.715C496.984 452.61 497.169 452.544 497.36 452.524C570.388 444.948 621.566 472.734 651.639 497.384C684.221 524.092 699.757 553.008 699.908 553.3C700.004 553.479 700.054 553.678 700.054 553.881C700.054 554.084 700.004 554.283 699.908 554.462C699.811 554.64 699.672 554.791 699.503 554.902C699.335 555.014 699.141 555.083 698.94 555.103C691.013 555.822 683.133 556.187 675.383 556.187ZM642.786 538.274C642.873 538.269 642.96 538.269 643.046 538.274C644.67 538.461 646.69 540.759 650.931 545.969C653.133 548.673 656.464 552.743 657.515 553.034C670.613 554.008 683.768 553.926 696.853 552.789C693.1 546.35 677.855 521.971 650.047 499.197C620.577 475.069 570.591 447.882 499.369 454.775C501.836 459.881 510.82 476.981 528.563 495.222C548.008 515.213 582.244 540.707 634.968 548.647C635.661 548.303 636.967 545.735 637.753 544.187C639.346 541.03 640.746 538.274 642.786 538.274Z" fill="black"/>
<path d="M569.805 488.985C569.639 488.985 569.474 488.952 569.321 488.886C555.83 483.051 540.461 476.147 523.644 468.373C523.348 468.235 523.119 467.985 523.007 467.678C522.895 467.37 522.91 467.031 523.048 466.735C523.186 466.438 523.436 466.209 523.743 466.097C524.05 465.985 524.389 466 524.685 466.138C541.486 473.907 556.835 480.8 570.305 486.63C570.562 486.743 570.773 486.942 570.902 487.192C571.031 487.443 571.07 487.73 571.012 488.006C570.955 488.282 570.805 488.529 570.587 488.708C570.369 488.886 570.097 488.984 569.815 488.985H569.805Z" fill="black"/>
<path d="M661.565 534.83C661.259 534.83 660.964 534.717 660.737 534.512C643.41 518.819 597.479 500.567 597.021 500.39C596.717 500.271 596.473 500.037 596.342 499.738C596.211 499.439 596.204 499.1 596.323 498.796C596.442 498.492 596.676 498.247 596.975 498.117C597.274 497.986 597.612 497.979 597.916 498.098C598.379 498.28 644.759 516.703 662.387 532.688C662.571 532.855 662.7 533.073 662.758 533.315C662.815 533.556 662.798 533.81 662.709 534.041C662.62 534.273 662.463 534.472 662.259 534.613C662.055 534.754 661.813 534.829 661.565 534.83Z" fill="black"/>
</g>
<defs>
<clipPath id="clip0_8_198">
<rect width="723.86" height="556.186" fill="white"/>
</clipPath>
</defs>
</svg>
