<svg width="457" height="570" viewBox="0 0 457 570" fill="none" xmlns="http://www.w3.org/2000/svg">
<g clip-path="url(#clip0_9_421)">
<path d="M38.0772 145.305C35.6349 144.411 33.5663 142.72 32.2065 140.505C30.2378 137.192 29.2149 131.859 33.7345 124.209C43.9382 106.93 60.7362 114.962 67.1891 112.928C81.6647 108.369 78.2999 101.04 84.2156 93.8852C88.6419 88.526 103.873 78.3667 126.783 96.9696C126.783 96.9696 137.039 110.165 148.796 105.044C163.239 98.756 192.087 112.601 182.804 133.51C180.191 139.419 175.46 144.137 169.541 146.738C168.489 147.201 167.337 147.647 166.086 148.058C164.265 148.673 162.633 149.744 161.345 151.169C160.057 152.594 159.156 154.325 158.729 156.197C155.699 168.914 144.389 193.502 103.185 169.09C101.683 168.191 99.9863 167.664 98.2381 167.556C96.4898 167.447 94.7411 167.76 93.139 168.467C89.163 170.221 84.8171 176.952 65.7126 174.25C53.4406 172.509 49.6287 159.105 46.4119 153.013C43.8867 148.155 40.1906 146.115 38.0772 145.305Z" fill="black"/>
<path d="M139.541 521.308C139.541 521.308 135.038 536.409 139.039 543.683L140.13 546.671L115.39 539.882L117.194 537.402C120.368 533.091 122.413 528.057 123.145 522.757L139.541 521.308Z" fill="white"/>
<path d="M140.13 547.387C140.066 547.388 140.002 547.38 139.94 547.362L115.2 540.57C115.087 540.54 114.984 540.483 114.899 540.404C114.814 540.325 114.749 540.226 114.711 540.117C114.676 540.009 114.667 539.895 114.683 539.784C114.7 539.672 114.743 539.566 114.807 539.474L116.615 536.997C119.713 532.78 121.713 527.86 122.434 522.68C122.455 522.519 122.53 522.37 122.647 522.257C122.764 522.144 122.916 522.075 123.078 522.06L139.483 520.611C139.6 520.601 139.717 520.619 139.825 520.665C139.933 520.71 140.028 520.781 140.102 520.872C140.176 520.963 140.226 521.07 140.249 521.185C140.272 521.299 140.266 521.418 140.233 521.53C140.188 521.678 135.858 536.425 139.67 543.355C139.688 543.387 139.703 543.42 139.715 543.455L140.809 546.443C140.853 546.566 140.862 546.7 140.836 546.828C140.81 546.957 140.749 547.076 140.661 547.172C140.592 547.243 140.509 547.299 140.418 547.336C140.327 547.373 140.228 547.39 140.13 547.387ZM116.577 539.452L138.981 545.601L138.383 543.966C134.886 537.54 137.634 525.652 138.576 522.098L123.779 523.406C122.96 528.617 120.903 533.556 117.78 537.81L116.577 539.452Z" fill="black"/>
<path d="M140.802 535.217L142.871 538.545C146.959 545.13 152.589 550.622 159.276 554.549L164.423 557.566C164.664 557.708 164.866 557.907 165.013 558.145C165.16 558.383 165.247 558.653 165.266 558.931L165.285 559.217C165.498 562.43 160.756 568.811 149.143 569.264C141.957 569.544 125.593 567.677 107.325 556.798C106.763 556.464 106.322 555.958 106.068 555.356C105.814 554.753 105.76 554.086 105.913 553.45C107.068 548.692 110.262 537.421 115.592 532.492C115.73 532.361 115.894 532.261 116.073 532.197C116.253 532.134 116.444 532.109 116.633 532.124C116.823 532.139 117.007 532.194 117.174 532.285C117.341 532.376 117.487 532.502 117.603 532.653L122.264 538.873C122.76 539.536 123.384 540.095 124.097 540.516C124.811 540.938 125.601 541.214 126.422 541.329C127.243 541.445 128.079 541.397 128.881 541.188C129.684 540.979 130.437 540.614 131.097 540.113L138.193 534.735C138.392 534.584 138.62 534.476 138.863 534.418C139.106 534.36 139.359 534.354 139.605 534.399C139.85 534.444 140.084 534.541 140.29 534.681C140.496 534.822 140.671 535.005 140.802 535.217Z" fill="white"/>
<path d="M147.905 570C142.607 570 126.317 568.946 106.965 557.412C106.269 557.001 105.724 556.378 105.411 555.635C105.097 554.891 105.032 554.067 105.224 553.283C106.37 548.563 109.622 537.042 115.113 531.965C115.327 531.766 115.581 531.614 115.858 531.519C116.135 531.424 116.429 531.387 116.721 531.413C117.007 531.438 117.284 531.524 117.535 531.664C117.786 531.804 118.004 531.995 118.175 532.225L122.836 538.442C123.276 539.03 123.828 539.525 124.46 539.899C125.092 540.273 125.792 540.519 126.52 540.621C127.247 540.723 127.988 540.681 128.699 540.496C129.41 540.312 130.078 539.988 130.663 539.545L137.762 534.166C138.04 533.955 138.359 533.804 138.698 533.723C139.037 533.643 139.39 533.634 139.733 533.697C140.076 533.761 140.402 533.896 140.689 534.092C140.977 534.289 141.22 534.544 141.404 534.841L143.469 538.166C147.502 544.649 153.049 550.058 159.633 553.932L164.78 556.949C165.121 557.149 165.409 557.429 165.617 557.765C165.825 558.101 165.947 558.483 165.974 558.877L165.993 559.166C166.099 560.718 165.282 562.581 163.741 564.274C161.953 566.26 157.681 569.64 149.15 569.971C148.86 569.99 148.439 570 147.905 570ZM116.541 532.836C116.373 532.837 116.211 532.901 116.088 533.016C110.883 537.835 107.724 549.026 106.617 553.62C106.496 554.108 106.535 554.622 106.73 555.085C106.925 555.548 107.265 555.936 107.698 556.191C128.652 568.676 145.872 568.683 149.108 568.554C157.111 568.233 161.052 565.148 162.689 563.33C164.163 561.694 164.619 560.162 164.565 559.272L164.545 558.986C164.535 558.823 164.484 558.665 164.398 558.526C164.313 558.388 164.194 558.272 164.053 558.189L158.906 555.172C152.122 551.18 146.407 545.607 142.25 538.928L140.194 535.596C140.116 535.468 140.011 535.359 139.888 535.274C139.764 535.19 139.624 535.132 139.477 535.104C139.33 535.077 139.179 535.08 139.034 535.115C138.889 535.15 138.752 535.215 138.634 535.307L131.535 540.685C130.799 541.242 129.96 541.649 129.066 541.881C128.173 542.113 127.242 542.167 126.328 542.038C125.413 541.909 124.533 541.601 123.739 541.131C122.944 540.661 122.25 540.039 121.698 539.3L117.033 533.083C116.982 533.014 116.917 532.957 116.842 532.915C116.768 532.873 116.685 532.847 116.599 532.839L116.541 532.836Z" fill="black"/>
<path d="M135.543 558.379C135.41 558.379 135.278 558.369 135.147 558.347C126.851 557.023 118.924 553.979 111.877 549.411L107.894 546.841C107.815 546.79 107.747 546.724 107.693 546.647C107.64 546.569 107.602 546.482 107.582 546.39C107.562 546.298 107.561 546.203 107.577 546.11C107.594 546.017 107.629 545.929 107.68 545.85C107.732 545.771 107.798 545.703 107.875 545.649C107.953 545.595 108.04 545.558 108.132 545.538C108.225 545.518 108.32 545.516 108.412 545.533C108.505 545.55 108.594 545.585 108.673 545.636L112.655 548.207C119.537 552.663 127.276 555.633 135.375 556.923C135.53 556.95 135.688 556.939 135.837 556.891C135.987 556.843 136.122 556.759 136.231 556.647C136.343 556.535 136.426 556.399 136.474 556.248C136.522 556.098 136.534 555.938 136.508 555.783L136.122 553.469C136.052 553.051 136.106 552.62 136.278 552.232C136.449 551.843 136.73 551.513 137.087 551.282C137.443 551.051 137.86 550.928 138.285 550.93C138.71 550.931 139.125 551.057 139.48 551.291L141.465 552.605C144.31 554.477 147.504 555.756 150.857 556.363C154.209 556.97 157.649 556.894 160.971 556.139L162.277 555.841C162.458 555.809 162.645 555.848 162.798 555.949C162.951 556.051 163.059 556.207 163.1 556.385C163.142 556.564 163.113 556.752 163.019 556.91C162.926 557.068 162.776 557.184 162.599 557.235L161.293 557.534C157.781 558.331 154.144 558.411 150.6 557.767C147.057 557.124 143.68 555.771 140.674 553.791L138.689 552.477C138.567 552.395 138.424 552.351 138.278 552.35C138.131 552.348 137.988 552.39 137.865 552.47C137.742 552.55 137.646 552.664 137.587 552.798C137.529 552.933 137.512 553.081 137.537 553.225L137.92 555.539C137.978 555.884 137.961 556.239 137.868 556.577C137.776 556.916 137.611 557.23 137.384 557.498C137.158 557.766 136.877 557.982 136.559 558.131C136.24 558.28 135.894 558.358 135.543 558.359V558.379Z" fill="black"/>
<path d="M50.0565 460.23C50.0565 460.23 37.244 470.54 35.8125 479.093L34.7992 482.287L19.3812 458.977L22.4629 458.553C27.6644 456.625 32.7984 456.024 36.5685 451.96L50.0565 460.23Z" fill="white"/>
<path d="M34.7992 483.004C34.6808 483.003 34.5642 482.974 34.4598 482.918C34.3554 482.862 34.2665 482.781 34.2009 482.682L18.7828 459.372C18.7167 459.272 18.677 459.156 18.6676 459.035C18.6582 458.915 18.6794 458.795 18.7291 458.685C18.7788 458.575 18.8555 458.479 18.9521 458.407C19.0486 458.334 19.1619 458.287 19.2814 458.27L22.2891 457.853C23.5759 457.384 24.8626 456.992 26.085 456.613C29.8164 455.469 33.3388 454.389 36.057 451.472C36.1699 451.351 36.321 451.272 36.4851 451.249C36.6491 451.226 36.816 451.261 36.9577 451.347L50.4489 459.62C50.5469 459.679 50.6291 459.761 50.6885 459.859C50.7479 459.957 50.7827 460.068 50.7899 460.182C50.7966 460.297 50.7759 460.411 50.7295 460.516C50.6831 460.621 50.6123 460.714 50.5229 460.786C50.3975 460.886 37.9035 471.026 36.5363 479.209C36.5363 479.241 36.5363 479.277 36.5106 479.309L35.4973 482.499C35.4573 482.628 35.3813 482.743 35.2781 482.83C35.1749 482.917 35.049 482.973 34.9151 482.991L34.7992 483.004ZM20.6035 459.549L34.5676 480.658L35.1145 478.942C36.4012 471.376 45.9905 462.752 48.8309 460.336L36.6714 452.873C33.7763 455.764 30.2378 456.834 26.4935 457.981C25.2518 458.364 23.9683 458.756 22.6977 459.225C22.6497 459.241 22.6001 459.253 22.5497 459.26L20.6035 459.549Z" fill="black"/>
<path d="M40.3096 475.784L39.0004 479.656C36.4111 487.322 35.7223 495.502 36.9931 503.492L37.9581 509.635C38.0048 509.923 37.9802 510.217 37.8866 510.493C37.7929 510.768 37.6331 511.017 37.4209 511.216L37.199 511.422C34.7639 513.716 26.4774 514.127 18.4161 505.063C13.4269 499.454 4.08533 485.024 0.74308 463.099C0.638761 462.426 0.753357 461.737 1.07005 461.133C1.38674 460.529 1.88884 460.043 2.50267 459.745C7.09946 457.522 18.2875 452.625 25.7922 453.66C25.9892 453.684 26.1787 453.75 26.3486 453.852C26.5184 453.955 26.6647 454.092 26.7779 454.255C26.8911 454.418 26.9687 454.602 27.0056 454.797C27.0425 454.992 27.0379 455.192 26.9921 455.385L25.062 463.266C24.8578 464.106 24.8214 464.978 24.9549 465.832C25.0884 466.686 25.3892 467.505 25.84 468.243C26.2909 468.981 26.883 469.622 27.5824 470.131C28.2819 470.64 29.0749 471.006 29.9162 471.209L38.9521 473.368C39.2068 473.426 39.4465 473.537 39.6557 473.693C39.8649 473.85 40.039 474.048 40.1669 474.275C40.2947 474.503 40.3735 474.755 40.3981 475.015C40.4227 475.274 40.3925 475.537 40.3096 475.784Z" fill="white"/>
<path d="M32.6826 513.529C32.5025 513.529 32.3223 513.529 32.1358 513.529C29.3565 513.407 23.8075 512.206 17.8886 505.552C15.5918 502.981 3.9438 488.793 0.0450495 463.221C-0.0850337 462.396 0.0543059 461.551 0.442455 460.811C0.830604 460.071 1.44695 459.475 2.2003 459.112C6.75528 456.908 18.1845 451.899 25.8984 452.962C26.1977 453.003 26.4852 453.105 26.7423 453.264C26.9994 453.422 27.2204 453.632 27.391 453.881C27.5576 454.125 27.6709 454.402 27.7235 454.692C27.7762 454.983 27.767 455.281 27.6966 455.568L25.7826 463.446C25.6009 464.194 25.5687 464.97 25.6878 465.73C25.8068 466.49 26.0748 467.22 26.4764 467.876C26.878 468.533 27.4053 469.104 28.0281 469.556C28.6509 470.009 29.357 470.335 30.106 470.515L39.1387 472.674C39.4901 472.755 39.8204 472.91 40.1082 473.127C40.396 473.344 40.6348 473.619 40.8092 473.935C40.9836 474.25 41.0897 474.599 41.1206 474.958C41.1514 475.317 41.1064 475.678 40.9884 476.018L39.6791 479.874C37.1346 487.433 36.4559 495.493 37.7008 503.37L38.6658 509.513C38.7295 509.916 38.6935 510.328 38.5612 510.714C38.4289 511.1 38.2042 511.448 37.9067 511.727L37.6879 511.936C36.62 512.964 34.8089 513.529 32.6826 513.529ZM23.5984 454.232C16.3928 454.232 6.87108 458.437 2.82436 460.388C2.34925 460.618 1.96065 460.994 1.71572 461.462C1.47078 461.929 1.38243 462.462 1.46365 462.984C5.29807 488.157 16.7112 502.05 18.9598 504.578C24.5281 510.84 29.646 511.968 32.2001 512.077C34.4937 512.18 36.0377 511.534 36.7197 510.892L36.9384 510.686C37.0681 510.565 37.1654 510.413 37.2215 510.245C37.2777 510.076 37.291 509.897 37.2601 509.722L36.2951 503.579C35.0145 495.474 35.713 487.179 38.3313 479.402L39.6405 475.546C39.6919 475.394 39.7109 475.233 39.6965 475.073C39.6821 474.913 39.6346 474.758 39.5569 474.618C39.4801 474.477 39.3745 474.355 39.247 474.258C39.1195 474.161 38.973 474.092 38.817 474.055L29.7811 471.896C28.8478 471.672 27.9681 471.266 27.1922 470.702C26.4164 470.137 25.7596 469.425 25.2597 468.607C24.7598 467.788 24.4264 466.88 24.2788 465.932C24.1312 464.985 24.1721 464.018 24.3994 463.086L26.3295 455.208C26.3534 455.116 26.3572 455.02 26.3405 454.926C26.3239 454.833 26.2872 454.744 26.233 454.665C26.1761 454.579 26.1018 454.506 26.0148 454.451C25.9277 454.395 25.83 454.359 25.7279 454.344C25.0215 454.257 24.31 454.22 23.5984 454.232Z" fill="black"/>
<path d="M37.4692 508.084C37.3105 508.084 37.1565 508.03 37.0317 507.933L35.9251 507.081C32.9587 504.778 30.4877 501.901 28.6599 498.623C26.8321 495.344 25.685 491.731 25.2872 487.999L25.0299 485.526C25.0132 485.368 24.951 485.219 24.8509 485.097C24.7508 484.974 24.6172 484.884 24.4663 484.836C24.3154 484.788 24.1538 484.786 24.0014 484.828C23.849 484.871 23.7123 484.957 23.608 485.076L21.9996 486.917C21.7397 487.215 21.4124 487.447 21.0447 487.594C20.677 487.741 20.2795 487.798 19.8853 487.761C19.491 487.724 19.1113 487.594 18.7775 487.381C18.4437 487.168 18.1654 486.879 17.9658 486.538C13.5339 478.977 10.7302 470.576 9.73402 461.872L9.16465 456.956C9.14655 456.769 9.20263 456.583 9.32082 456.437C9.43901 456.291 9.60987 456.197 9.79662 456.175C9.98338 456.154 10.1711 456.207 10.3194 456.322C10.4677 456.437 10.5648 456.606 10.5897 456.792L11.1623 461.698C12.1358 470.202 14.8748 478.409 19.2043 485.795C19.2895 485.94 19.408 486.063 19.5501 486.154C19.6921 486.244 19.8536 486.3 20.0212 486.316C20.1889 486.332 20.358 486.308 20.5146 486.246C20.6712 486.184 20.8108 486.086 20.922 485.959L22.5304 484.115C22.8191 483.788 23.1968 483.552 23.6175 483.435C24.0382 483.318 24.4838 483.327 24.9 483.458C25.3162 483.59 25.685 483.84 25.9617 484.177C26.2383 484.515 26.4108 484.925 26.4581 485.358L26.7155 487.832C27.0922 491.372 28.1801 494.798 29.914 497.908C31.6479 501.017 33.9922 503.745 36.8065 505.928L37.9131 506.782C38.0324 506.874 38.12 507 38.1635 507.144C38.2069 507.287 38.2041 507.441 38.1554 507.583C38.1067 507.725 38.0146 507.848 37.892 507.935C37.7695 508.022 37.6227 508.068 37.4724 508.067L37.4692 508.084Z" fill="black"/>
<path d="M113.595 268.81L186.896 272.392C186.896 272.392 211.083 371.942 179.339 448.866C160.222 495.18 147.586 517.427 143.134 524.691C142.624 525.524 141.877 526.185 140.988 526.591C140.099 526.997 139.109 527.129 138.145 526.969L124.084 524.672C123.433 524.563 122.81 524.325 122.252 523.971C121.695 523.617 121.214 523.154 120.84 522.61C120.465 522.067 120.204 521.453 120.071 520.807C119.939 520.16 119.939 519.494 120.07 518.847C125.217 493.336 136.344 418.244 144.817 380.369C144.818 380.365 144.819 380.36 144.818 380.356C144.817 380.351 144.816 380.347 144.813 380.343C144.81 380.34 144.807 380.336 144.803 380.334C144.799 380.332 144.794 380.331 144.789 380.331C144.785 380.331 144.78 380.332 144.776 380.334C144.772 380.336 144.768 380.34 144.766 380.343C144.763 380.347 144.761 380.351 144.761 380.356C144.76 380.36 144.76 380.365 144.762 380.369C142.533 386.975 120.433 446.877 44.144 472.051C43.434 472.281 42.6678 472.273 41.9631 472.026C41.2583 471.78 40.6537 471.31 40.242 470.688L32.065 458.447C31.6704 457.858 31.4684 457.161 31.4868 456.453C31.5053 455.745 31.7432 455.059 32.1679 454.492C43.6197 439.208 117.876 347.893 113.595 268.81Z" fill="#F29F05"/>
<path d="M139.818 396.659C139.738 396.659 139.659 396.646 139.583 396.62C139.403 396.558 139.256 396.426 139.174 396.255C139.091 396.084 139.08 395.887 139.142 395.708C139.661 394.224 140.171 392.755 140.67 391.303C147.487 371.592 153.373 354.57 165.636 347.286C165.717 347.234 165.807 347.199 165.902 347.182C165.997 347.166 166.095 347.169 166.188 347.191C166.282 347.213 166.37 347.254 166.448 347.31C166.526 347.367 166.591 347.439 166.64 347.522C166.69 347.604 166.722 347.696 166.735 347.792C166.748 347.887 166.742 347.984 166.716 348.077C166.691 348.169 166.647 348.256 166.588 348.332C166.528 348.407 166.454 348.47 166.369 348.516C154.557 355.54 149.028 371.531 142.025 391.775C141.523 393.228 141.013 394.698 140.497 396.187C140.445 396.325 140.353 396.445 140.231 396.529C140.11 396.614 139.966 396.659 139.818 396.659Z" fill="white"/>
<path d="M296.025 232.491C299.528 232.96 298.094 235.02 296.952 235.91C293.844 238.326 284.316 242.657 276.927 239.739C272.807 238.133 265.112 236.051 260.177 234.788C258.846 234.447 257.659 233.688 256.791 232.623C255.922 231.559 255.418 230.245 255.352 228.873V228.574C255.32 227.983 255.41 227.391 255.615 226.835C255.821 226.279 256.138 225.771 256.548 225.342C256.957 224.913 257.45 224.572 257.996 224.341C258.543 224.109 259.13 223.992 259.724 223.996C263.806 224.025 269.567 223.61 272.626 221.333C274.695 219.794 278.053 218.614 280.347 219.058C280.608 219.109 280.851 219.229 281.05 219.405C281.25 219.581 281.399 219.807 281.482 220.059C281.565 220.312 281.58 220.582 281.524 220.842C281.468 221.102 281.344 221.342 281.164 221.538L279.604 223.235C277.696 225.31 278.671 228.491 281.273 229.529C281.273 229.529 287.581 232.016 294.385 232.305L296.025 232.491Z" fill="white"/>
<path d="M280.446 218.357C280.831 218.434 281.188 218.61 281.482 218.869C281.776 219.129 281.996 219.461 282.119 219.833C282.242 220.204 282.265 220.602 282.184 220.985C282.103 221.368 281.922 221.723 281.659 222.014L280.096 223.71C279.758 224.065 279.515 224.499 279.387 224.972C279.26 225.445 279.252 225.942 279.366 226.419C279.498 226.967 279.761 227.475 280.133 227.899C280.505 228.323 280.975 228.651 281.501 228.854C281.563 228.877 287.781 231.299 294.427 231.585L296.102 231.771C297.711 231.983 298.628 232.555 298.875 233.468C299.178 234.58 298.3 235.746 297.376 236.462C294.16 238.978 284.438 243.46 276.647 240.395C272.465 238.753 264.423 236.607 259.981 235.473C258.499 235.097 257.177 234.255 256.21 233.072C255.243 231.889 254.682 230.428 254.609 228.902V228.6C254.571 227.91 254.675 227.22 254.916 226.572C255.157 225.924 255.529 225.333 256.008 224.835C256.486 224.338 257.06 223.943 257.696 223.674C258.331 223.405 259.014 223.267 259.704 223.27C265.495 223.315 269.934 222.415 272.173 220.748C273.945 219.431 276.837 218.239 279.25 218.239C279.652 218.239 280.052 218.279 280.446 218.357ZM259.695 224.713C259.201 224.712 258.711 224.811 258.256 225.003C257.801 225.195 257.388 225.476 257.044 225.831C256.703 226.19 256.439 226.616 256.27 227.081C256.1 227.546 256.027 228.042 256.057 228.536V228.835C256.115 230.056 256.563 231.226 257.337 232.172C258.111 233.119 259.168 233.793 260.354 234.094C265.803 235.489 273.147 237.484 277.188 239.074C284.554 241.966 293.915 237.352 296.511 235.344C297.154 234.856 297.595 234.171 297.508 233.85C297.45 233.641 297.006 233.346 295.938 233.208L294.33 233.028C287.485 232.735 281.251 230.303 280.984 230.2C280.241 229.911 279.58 229.446 279.056 228.846C278.533 228.246 278.163 227.527 277.979 226.753C277.816 226.05 277.829 225.318 278.016 224.622C278.204 223.925 278.56 223.286 279.053 222.759L280.617 221.059C280.708 220.957 280.771 220.832 280.799 220.697C280.827 220.562 280.818 220.422 280.774 220.292C280.731 220.162 280.653 220.045 280.55 219.954C280.446 219.863 280.321 219.801 280.186 219.774C278.072 219.36 274.894 220.539 273.041 221.917C269.95 224.224 264.356 224.725 260.094 224.725L259.695 224.713Z" fill="black"/>
<path d="M253.773 218.402C242.192 218.274 228.251 222.364 215.988 217.786C204.572 213.522 194.561 200.947 190 191.298C188.425 187.875 186.646 184.549 184.673 181.338C183.786 179.778 182.705 178.337 181.456 177.049L181.417 177.007C180.945 176.515 180.452 176.043 179.896 175.555C165.694 163.05 141.095 167.098 130.447 168.849C118.372 170.838 108.367 172.483 101.564 180.156C99.8634 182.048 98.5187 184.232 97.5943 186.601C84.6016 211.112 98.9164 206.775 105.414 218.48C112.732 274.642 87.2233 287.644 91.4116 308.461C97.3144 337.785 144.463 326.823 161.615 323.077C167.63 321.766 199.139 331.135 206.84 306.787C211.89 290.825 200.483 284.537 192.531 252.058C191.399 247.441 190.54 243.107 189.884 239.023C198.18 243.039 206.685 246.198 212.36 247.505C227.099 250.898 247.867 245.063 258.054 240.405C266.395 236.581 276.162 218.647 253.773 218.402Z" fill="white"/>
<path d="M124.85 328.937C115.74 328.937 106.958 327.501 100.46 323.266C95.2685 319.883 92.0003 314.945 90.7135 308.589C89.0247 300.197 92.0003 293.126 95.7736 284.171C101.4 270.812 109.104 252.52 104.726 218.695C102.796 215.308 100.152 213.287 97.8034 211.501C92.145 207.192 87.6737 203.79 96.9606 186.27C97.9127 183.851 99.2908 181.623 101.03 179.69C108.004 171.824 118.352 170.122 130.335 168.149C140.982 166.398 165.916 162.295 180.375 175.021C180.909 175.494 181.434 175.985 181.939 176.519C183.241 177.862 184.367 179.366 185.287 180.994C187.268 184.218 189.054 187.557 190.637 190.993C195.221 200.683 205.183 212.992 216.23 217.114C224.423 220.176 233.362 219.292 242.006 218.438C246.133 218.03 250.032 217.647 253.77 217.686C264.308 217.802 267.354 221.75 268.055 225.043C269.294 230.881 263.754 238.57 258.344 241.044C247.96 245.789 227.106 251.618 212.199 248.189C206.621 246.904 198.528 243.894 190.814 240.247C191.457 244.103 192.277 247.997 193.226 251.875C196.543 265.414 200.416 274.285 203.52 281.411C207.901 291.413 210.539 297.453 207.522 306.989C201.284 326.71 179.857 324.924 168.364 323.96C165.333 323.709 162.94 323.507 161.766 323.764L160.692 323.999C152.154 325.868 138.164 328.937 124.85 328.937ZM98.1829 187.015C89.5169 203.401 93.3577 206.318 98.6719 210.364C101.155 212.256 103.973 214.399 106.042 218.12C106.084 218.199 106.112 218.285 106.125 218.373C110.593 252.671 102.789 271.197 97.0924 284.727C93.4156 293.453 90.5141 300.345 92.1128 308.307C93.3159 314.27 96.3847 318.909 101.242 322.068C116.734 332.166 146.216 325.705 160.386 322.601L161.46 322.366C162.844 322.064 165.208 322.26 168.483 322.533C179.59 323.462 200.265 325.191 206.158 306.559C209.011 297.534 206.454 291.68 202.217 281.983C199.081 274.805 195.179 265.873 191.833 252.215C190.762 247.842 189.868 243.437 189.176 239.123C189.156 238.993 189.171 238.861 189.22 238.74C189.27 238.619 189.351 238.513 189.456 238.435C189.561 238.357 189.686 238.309 189.816 238.297C189.947 238.284 190.078 238.307 190.196 238.364C198.183 242.22 206.737 245.462 212.521 246.795C227.067 250.143 247.542 244.411 257.755 239.727C262.667 237.478 267.727 230.409 266.662 225.326C265.816 221.336 261.355 219.183 253.763 219.1C250.106 219.058 246.242 219.443 242.157 219.845C233.349 220.716 224.239 221.615 215.737 218.441C204.315 214.174 194.053 201.531 189.36 191.587C187.795 188.193 186.03 184.895 184.075 181.711C183.212 180.192 182.162 178.789 180.948 177.534C180.433 177 179.934 176.525 179.429 176.082C165.481 163.802 141.018 167.828 130.573 169.546C118.378 171.571 108.728 173.155 102.101 180.637C100.456 182.465 99.1556 184.574 98.2634 186.864C98.2437 186.918 98.2166 186.969 98.1829 187.015Z" fill="black"/>
<path d="M183.885 223.868C183.826 223.868 183.768 223.86 183.711 223.845C183.62 223.823 183.534 223.782 183.458 223.726C183.382 223.67 183.318 223.6 183.27 223.52C183.221 223.439 183.189 223.35 183.176 223.257C183.162 223.164 183.167 223.069 183.19 222.978C188.954 200.166 175.45 184.046 175.315 183.886C175.248 183.815 175.196 183.732 175.162 183.641C175.128 183.55 175.112 183.453 175.117 183.355C175.122 183.258 175.147 183.163 175.19 183.076C175.232 182.988 175.293 182.91 175.367 182.847C175.441 182.784 175.527 182.736 175.62 182.707C175.713 182.678 175.811 182.668 175.908 182.678C176.004 182.688 176.098 182.718 176.183 182.765C176.269 182.813 176.343 182.877 176.402 182.954C176.544 183.121 190.521 199.809 184.579 223.328C184.541 223.482 184.451 223.62 184.325 223.717C184.199 223.815 184.044 223.868 183.885 223.868Z" fill="black"/>
<path d="M136.337 167.918C136.337 167.918 118.796 163.609 102.957 174.861C89.5137 184.41 87.7798 200.047 80.9023 205.525C74.0248 211.003 49.9278 232.356 64.9052 246.056C94.4997 273.109 126.899 205.573 126.899 205.573L136.337 167.918Z" fill="white"/>
<path d="M79.799 253.179C74.3658 253.179 69.2061 250.975 64.4227 246.599C60.9261 243.386 59.2308 239.559 59.3788 235.177C59.8163 222.393 75.6236 208.831 80.4584 204.975C83.1412 202.836 85.052 198.983 87.2652 194.52C90.4627 188.069 94.445 180.037 102.542 174.279C118.465 162.969 136.318 167.182 136.508 167.211C136.687 167.26 136.841 167.378 136.935 167.539C137.029 167.699 137.057 167.89 137.013 168.071C136.968 168.252 136.855 168.409 136.697 168.508C136.539 168.607 136.349 168.64 136.167 168.602C135.993 168.56 118.745 164.515 103.372 175.436C95.5677 180.975 91.8394 188.499 88.5487 195.137C86.2615 199.751 84.2864 203.738 81.3495 206.061C77.9944 208.731 61.2381 222.698 60.8135 235.183C60.6784 239.129 62.216 242.602 65.3878 245.5C70.6665 250.319 76.386 252.222 82.4368 251.524C99.0772 249.645 120.308 217.438 127.456 205.949C127.558 205.791 127.717 205.679 127.901 205.637C128.085 205.596 128.277 205.628 128.437 205.727C128.597 205.826 128.712 205.984 128.756 206.167C128.801 206.35 128.772 206.543 128.675 206.704C119.793 220.998 99.5308 251.598 82.6265 252.97C81.6712 253.047 80.7415 253.179 79.799 253.179Z" fill="black"/>
<path d="M177.908 149.424C177.136 144.245 178.371 130.497 178.146 130.827C175.933 134.082 171.41 130.223 164.841 129.966C158.273 129.709 158.025 135.782 158.025 135.782C158.025 135.782 156.095 129.076 152.003 133.273C149.623 135.708 151.981 141.067 154.422 143.123L134.156 166.257C139.599 173.511 155.207 174.716 158.636 170.838C158.636 170.838 154.178 166.298 156.835 161.742L160.769 155.063C161.673 156.158 162.815 157.408 163.867 158.144C164.841 158.852 166.038 159.188 167.239 159.092C168.44 158.995 169.567 158.472 170.416 157.617C172.954 155.191 174.726 152.476 175.531 149.826L177.908 149.424Z" fill="white"/>
<path d="M150.993 173.727C150.652 173.727 150.308 173.727 149.954 173.707C144.669 173.495 137.209 171.529 133.577 166.69C133.479 166.559 133.429 166.398 133.436 166.234C133.442 166.07 133.505 165.914 133.613 165.791L153.428 143.172C151.923 141.623 150.43 138.918 150.305 136.344C150.234 134.876 150.642 133.639 151.488 132.774C152.775 131.464 154.036 130.956 155.252 131.261C156.468 131.566 157.269 132.546 157.825 133.51C158.581 131.56 160.415 129.067 164.867 129.237C167.547 129.343 169.927 130.037 171.841 130.596C174.987 131.512 176.547 131.881 177.551 130.413C177.641 130.283 177.77 130.186 177.919 130.136C178.069 130.086 178.231 130.085 178.381 130.133C178.95 130.326 178.95 130.326 178.754 133.87C178.522 138.047 178.088 145.787 178.612 149.292C178.64 149.478 178.594 149.667 178.484 149.819C178.374 149.971 178.209 150.073 178.024 150.105L176.071 150.426C175.17 153.08 173.392 155.728 170.905 158.105C169.936 159.073 168.653 159.665 167.287 159.774C165.921 159.884 164.56 159.504 163.448 158.703C162.5 157.991 161.637 157.172 160.875 156.264L157.449 162.076C155.104 166.096 158.977 170.138 159.144 170.308C159.269 170.436 159.34 170.606 159.345 170.785C159.35 170.963 159.287 171.137 159.17 171.272C157.816 172.856 154.802 173.727 150.993 173.727ZM135.086 166.285C138.534 170.391 145.212 172.085 150.012 172.277C153.399 172.412 156.23 171.85 157.639 170.787C156.497 169.354 153.882 165.383 156.214 161.389L160.148 154.706C160.207 154.607 160.288 154.524 160.386 154.463C160.484 154.402 160.595 154.366 160.71 154.357C160.825 154.348 160.94 154.367 161.046 154.412C161.152 154.457 161.246 154.527 161.319 154.616C162.176 155.719 163.169 156.71 164.275 157.565C165.112 158.182 166.144 158.476 167.181 158.393C168.218 158.309 169.19 157.855 169.917 157.112C172.359 154.777 174.064 152.19 174.839 149.63C174.878 149.502 174.952 149.388 175.052 149.301C175.152 149.213 175.274 149.154 175.405 149.132L177.11 148.839C176.702 144.951 177.11 137.774 177.326 133.809C177.351 133.337 177.377 132.874 177.4 132.46C175.823 133.266 173.752 132.662 171.442 131.987C169.512 131.425 167.315 130.786 164.812 130.702C159.054 130.474 158.752 135.615 158.739 135.843C158.729 136.011 158.661 136.17 158.545 136.293C158.43 136.415 158.275 136.493 158.108 136.513C157.941 136.533 157.772 136.493 157.631 136.401C157.49 136.309 157.385 136.171 157.337 136.01C157.098 135.194 156.201 133.006 154.901 132.681C154.213 132.511 153.412 132.887 152.515 133.806C151.945 134.387 151.685 135.229 151.736 136.309C151.852 138.689 153.428 141.382 154.885 142.609C154.958 142.67 155.018 142.745 155.062 142.83C155.105 142.914 155.132 143.006 155.139 143.101C155.152 143.293 155.089 143.482 154.963 143.628L135.086 166.285Z" fill="black"/>
<path d="M101.995 266.082C111.967 263.052 173.597 254.631 198.035 268.8L202.188 280.126C159.974 265.157 110.831 275.352 99.0386 277.234L101.995 266.082Z" fill="#3E5902"/>
<path d="M202.188 280.842C202.107 280.843 202.026 280.829 201.95 280.801C163.027 266.985 117.349 274.828 102.355 277.398C101.097 277.617 100.023 277.8 99.1383 277.938C99.0204 277.957 98.8997 277.946 98.787 277.907C98.6743 277.867 98.5734 277.8 98.4934 277.712C98.4134 277.623 98.3569 277.516 98.329 277.4C98.3012 277.284 98.303 277.163 98.3341 277.048L101.29 265.899C101.32 265.781 101.381 265.673 101.465 265.585C101.55 265.497 101.656 265.432 101.773 265.398C110.024 262.889 172.948 253.433 198.38 268.183C198.527 268.266 198.641 268.398 198.701 268.556L202.854 279.879C202.901 280.006 202.911 280.145 202.882 280.278C202.853 280.411 202.786 280.534 202.69 280.63C202.625 280.697 202.546 280.75 202.46 280.787C202.374 280.823 202.282 280.842 202.188 280.842ZM149.993 271.422C166.179 271.422 184.152 273.228 200.995 278.953L197.456 269.292C184.493 261.918 161.592 261.092 144.617 261.706C124.744 262.426 107.589 265.26 102.59 266.654L100.016 276.348L102.114 275.988C110.577 274.539 128.746 271.422 149.993 271.422Z" fill="black"/>
<path d="M127.063 161.492C131.509 161.784 135.173 164.293 139.091 170.584C146.444 182.402 145.717 193.621 146.49 198.02C146.642 198.896 147.077 199.7 147.728 200.308C148.378 200.916 149.209 201.296 150.096 201.39L161.676 202.624C162.313 202.691 162.957 202.609 163.556 202.384C164.156 202.159 164.694 201.797 165.129 201.327C165.563 200.856 165.882 200.291 166.059 199.676C166.235 199.061 166.266 198.414 166.147 197.785C164.401 188.419 160.943 171.404 156.156 165.874L160.814 165.961C173.038 167.108 204.849 274.558 201.326 380.045C201.172 384.823 199.217 389.367 195.851 392.766C192.486 396.165 187.959 398.168 183.177 398.375C159.135 399.397 116.226 399.403 95.542 388.235C65.9024 372.231 112.935 327.51 125.712 277.022C132.728 249.324 140.896 203.912 137.096 187.635C130.264 158.427 110.474 166.671 110.474 166.671C110.474 166.671 118.931 160.968 127.063 161.492Z" fill="white"/>
<path d="M163.95 399.509C140.429 399.509 111.227 397.514 95.2074 388.865C76.1511 378.583 87.5096 357.249 101.892 330.251C110.481 314.128 120.228 295.857 125.024 276.846C131.496 251.28 140.304 204.494 136.398 187.786C134.034 177.675 129.878 171.04 124.043 168.036C117.403 164.631 110.815 167.285 110.751 167.31C110.588 167.375 110.406 167.377 110.241 167.317C110.076 167.257 109.939 167.138 109.855 166.984C109.772 166.829 109.748 166.649 109.789 166.479C109.83 166.308 109.931 166.158 110.075 166.057C110.426 165.819 118.835 160.223 127.124 160.769C132.036 161.09 135.81 163.911 139.715 170.199C145.679 179.776 146.412 188.998 146.853 194.508C146.959 195.864 147.052 197.033 147.2 197.888C147.329 198.61 147.689 199.272 148.226 199.773C148.763 200.274 149.448 200.588 150.179 200.667L161.76 201.904C162.284 201.959 162.815 201.89 163.309 201.705C163.802 201.519 164.246 201.22 164.604 200.833C164.962 200.446 165.225 199.981 165.372 199.475C165.519 198.968 165.545 198.435 165.449 197.917C164.262 191.545 160.65 172.152 155.622 166.343C155.531 166.239 155.472 166.111 155.453 165.974C155.434 165.836 155.456 165.697 155.516 165.572C155.571 165.445 155.663 165.337 155.781 165.263C155.899 165.19 156.036 165.154 156.175 165.161L160.833 165.244C167.736 165.887 178.754 194.045 187.677 233.715C193.94 261.552 204.134 317.573 202.05 380.068C201.869 385.019 199.833 389.723 196.345 393.246C192.857 396.769 188.171 398.855 183.216 399.091C177.663 399.326 171.066 399.509 163.95 399.509ZM116.663 164.859C119.447 164.844 122.194 165.493 124.676 166.751C130.914 169.938 135.327 176.904 137.794 187.449C141.758 204.416 132.918 251.499 126.42 277.196C121.566 296.374 111.79 314.729 103.163 330.922C89.1566 357.22 78.0908 377.992 95.8958 387.605C116.461 398.709 159.398 398.67 183.161 397.662C187.755 397.442 192.1 395.508 195.334 392.241C198.569 388.974 200.457 384.614 200.625 380.023C202.703 317.692 192.535 261.787 186.284 234.03C176.924 192.49 165.961 167.162 160.753 166.674L157.623 166.616C160.84 171.391 163.863 181.582 166.858 197.653C166.997 198.392 166.962 199.153 166.754 199.875C166.546 200.597 166.172 201.261 165.662 201.814C165.151 202.366 164.519 202.791 163.814 203.056C163.11 203.32 162.353 203.416 161.605 203.337L150.025 202.1C148.984 201.989 148.007 201.543 147.242 200.829C146.478 200.115 145.966 199.171 145.785 198.142C145.627 197.223 145.531 196.021 145.422 194.633C144.99 189.251 144.273 180.246 138.496 170.963C134.851 165.113 131.419 162.494 127.028 162.205C122.737 161.922 118.301 163.468 115.164 164.92C115.634 164.881 116.126 164.859 116.657 164.859H116.663Z" fill="black"/>
<path d="M130.28 183.401C130.28 183.401 130.579 170.408 132.956 169.585C136.26 168.428 139.229 176.412 137.547 180.406C136.324 183.262 130.28 183.401 130.28 183.401Z" fill="white"/>
<path d="M130.28 184.117C130.185 184.117 130.09 184.098 130.002 184.061C129.914 184.024 129.835 183.97 129.768 183.901C129.702 183.833 129.649 183.752 129.615 183.663C129.58 183.575 129.563 183.48 129.566 183.385C129.656 179.33 130.151 169.8 132.718 168.901C133.857 168.502 135.054 168.885 136.09 169.983C138.161 172.184 139.567 177.444 138.206 180.676C136.846 183.908 130.949 184.101 130.28 184.117ZM133.606 170.179C133.465 170.179 133.325 170.203 133.191 170.25C132.226 170.594 131.229 176.287 131.02 182.642C132.892 182.479 136.167 181.846 136.887 180.12C138.016 177.441 136.817 172.846 135.044 170.967C134.536 170.443 134.053 170.179 133.59 170.179H133.606Z" fill="black"/>
<path d="M122.454 176.162C122.581 175.441 122.989 174.8 123.588 174.378C124.187 173.957 124.929 173.79 125.651 173.913C135.768 175.651 170.969 181.817 175.325 184.194C180.42 186.97 189.402 183.362 194.976 183.336C201.233 183.304 203.906 190.8 190.962 193.406C177.406 196.137 174.772 188.3 167.907 186.81C162.152 185.557 133.786 180.888 124.734 179.42C124.369 179.359 124.018 179.227 123.705 179.029C123.391 178.832 123.12 178.574 122.907 178.27C122.695 177.967 122.545 177.624 122.467 177.262C122.389 176.9 122.385 176.526 122.454 176.162Z" fill="white"/>
<path d="M185.654 194.704C179.951 194.704 176.647 192.474 173.623 190.456C171.735 189.19 169.95 187.992 167.752 187.513C162.004 186.263 133.285 181.537 124.619 180.124C124.161 180.048 123.722 179.883 123.329 179.636C122.936 179.39 122.596 179.068 122.329 178.689C122.062 178.31 121.873 177.882 121.774 177.429C121.674 176.977 121.666 176.509 121.749 176.053C121.909 175.144 122.422 174.335 123.176 173.802C123.931 173.269 124.865 173.056 125.777 173.209C139.342 175.542 171.359 181.216 175.669 183.565C178.796 185.267 183.801 184.336 188.214 183.516C190.679 183.057 193.004 182.626 194.97 182.617H195.012C198.164 182.617 200.625 184.358 200.873 186.768C200.998 188.002 200.667 192.178 191.1 194.106C189.309 194.485 187.485 194.685 185.654 194.704ZM123.158 176.29C123.109 176.561 123.114 176.839 123.173 177.108C123.233 177.377 123.346 177.631 123.506 177.855C123.662 178.078 123.862 178.266 124.093 178.41C124.324 178.554 124.581 178.651 124.85 178.694C133.535 180.114 162.274 184.847 168.058 186.106C170.522 186.643 172.417 187.912 174.424 189.258C178.223 191.809 182.144 194.447 190.83 192.702C197.501 191.359 199.647 188.744 199.46 186.919C199.293 185.28 197.389 184.05 195.024 184.05H194.992C193.146 184.05 190.881 184.477 188.485 184.924C183.833 185.788 178.564 186.768 174.99 184.821C171.622 182.986 147.239 178.35 125.539 174.62C125.001 174.528 124.45 174.652 124.004 174.965C123.558 175.278 123.254 175.755 123.158 176.29Z" fill="black"/>
<path d="M122.785 205.085C122.243 204.759 121.779 204.319 121.425 203.795C121.071 203.272 120.836 202.678 120.735 202.054C120.634 201.431 120.671 200.793 120.842 200.185C121.013 199.577 121.315 199.013 121.727 198.533C124.705 195.06 128.569 189.92 128.977 186.196C129.656 180.053 130.306 180.371 130.306 180.371L133.416 180.875C133.416 180.875 139.072 174.151 142.131 175.384C144.582 176.374 148.999 181.964 145.972 189.3C142.945 196.635 133.799 198.807 133.799 198.807L130.167 204.59C129.565 205.549 128.609 206.233 127.507 206.496C126.404 206.758 125.242 206.578 124.271 205.994L122.785 205.085Z" fill="white"/>
<path d="M126.481 207.305C125.574 207.306 124.684 207.059 123.908 206.592L122.421 205.698C121.791 205.318 121.25 204.806 120.838 204.196C120.426 203.587 120.152 202.895 120.034 202.168C119.917 201.442 119.96 200.699 120.159 199.991C120.359 199.283 120.71 198.626 121.189 198.068C125.455 193.094 127.97 188.85 128.266 186.116C128.91 180.297 129.553 179.947 129.894 179.757C130.057 179.675 130.241 179.644 130.422 179.67L133.133 180.111C134.42 178.642 139.261 173.463 142.398 174.729C143.765 175.278 145.647 177.033 146.776 179.712C147.68 181.862 148.384 185.322 146.631 189.579C143.771 196.509 135.897 198.987 134.253 199.433L130.775 204.959C130.316 205.681 129.682 206.274 128.931 206.684C128.18 207.095 127.337 207.308 126.481 207.305ZM123.152 204.471L124.641 205.367C125.453 205.849 126.422 205.996 127.341 205.777C128.26 205.557 129.057 204.988 129.563 204.192L133.191 198.424C133.291 198.265 133.449 198.15 133.632 198.103C133.719 198.084 142.459 195.925 145.309 189.02C146.879 185.219 146.255 182.154 145.454 180.255C144.489 177.968 142.916 176.467 141.861 176.043C139.975 175.285 136.022 178.883 133.963 181.328C133.884 181.423 133.781 181.496 133.664 181.538C133.548 181.581 133.423 181.593 133.301 181.572L130.599 181.136C130.422 181.592 130.065 182.864 129.691 186.276C129.264 190.132 125.419 195.33 122.27 199.003C121.929 199.403 121.678 199.873 121.536 200.38C121.395 200.886 121.364 201.418 121.448 201.937C121.532 202.456 121.728 202.951 122.022 203.388C122.316 203.824 122.701 204.192 123.152 204.465V204.471ZM129.991 181.017C130.036 181.039 130.083 181.056 130.132 181.068C130.083 181.055 130.036 181.036 129.991 181.013V181.017Z" fill="black"/>
<path d="M120.166 199.886C115.776 204.64 110.768 208.786 105.276 212.214C103.717 213.178 102.125 214.088 100.499 214.945C99.6723 215.376 100.406 216.625 101.229 216.192C107.054 213.141 112.444 209.328 117.259 204.853C118.62 203.59 119.931 202.274 121.189 200.908C121.833 200.227 120.8 199.202 120.166 199.886Z" fill="black"/>
<path d="M433.321 115.833C433.321 115.833 415.407 118.483 423.082 133.825C427.081 141.825 441.218 142.523 450.103 135.017C459.715 126.892 456.331 117.05 452.033 112.886C447.736 108.722 435.483 109.24 433.321 115.833Z" fill="white"/>
<path d="M435.673 140.974C434.331 140.977 432.992 140.845 431.677 140.579C427.354 139.692 424.073 137.407 422.445 134.153C420.145 129.552 419.84 125.565 421.541 122.303C424.231 117.163 431.015 115.556 432.8 115.206C433.797 112.7 436.223 110.859 439.678 110.008C444.461 108.825 449.859 109.828 452.513 112.388C453.979 113.852 455.132 115.599 455.903 117.521C456.674 119.444 457.046 121.502 456.997 123.573C456.849 127.987 454.623 132.135 450.563 135.57C446.374 139.035 441.112 140.945 435.673 140.974ZM443.776 110.933C442.509 110.93 441.246 111.08 440.015 111.379C438.191 111.829 434.988 113.037 433.997 116.051C433.956 116.176 433.881 116.288 433.781 116.373C433.68 116.458 433.558 116.514 433.427 116.533C433.347 116.533 425.501 117.773 422.812 122.959C421.335 125.796 421.644 129.346 423.729 133.517C425.16 136.376 428.087 138.391 431.977 139.191C437.899 140.405 444.844 138.548 449.669 134.487C453.417 131.316 455.459 127.524 455.604 123.521C455.648 121.649 455.312 119.786 454.615 118.047C453.919 116.308 452.876 114.729 451.551 113.404C449.891 111.829 446.906 110.933 443.776 110.933Z" fill="black"/>
<path d="M432.102 114.772C432.102 114.772 427.319 112.915 425.154 114.679L430.166 117.426C430.166 117.426 424.604 119.752 427.27 123.348C427.27 123.348 432.096 123.447 433.636 118.226C433.636 118.226 436.557 123.528 440.125 122.349C440.125 122.349 441.823 117.147 435.914 116.533L441.022 114.059C441.022 114.059 434.267 109.667 432.102 114.772Z" fill="#F20505"/>
<path d="M451.541 117.683C452.146 119.364 451.58 121.102 450.28 121.571C448.981 122.04 447.437 121.051 446.832 119.37C446.227 117.69 446.793 115.952 448.093 115.486C449.392 115.02 450.936 116.003 451.541 117.683Z" fill="black"/>
<path d="M412.361 129.783C412.361 129.783 389.904 128.296 395.18 148.955C397.927 159.725 414.915 164.29 427.669 157.508C441.482 150.166 439.964 137.324 435.827 131.133C431.69 124.941 416.719 122.361 412.361 129.783Z" fill="white"/>
<path d="M414.577 161.395C410.912 161.424 407.282 160.694 403.913 159.252C398.943 157.058 395.598 153.469 394.491 149.131C392.925 142.992 393.594 138.121 396.479 134.654C401.124 129.076 409.909 128.996 411.978 129.057C413.808 126.271 417.211 124.675 421.628 124.559C427.698 124.385 433.926 126.988 436.425 130.75C437.806 132.894 438.738 135.296 439.163 137.81C439.588 140.324 439.498 142.897 438.899 145.376C437.571 150.648 433.804 155.066 428.007 158.147C423.86 160.299 419.251 161.414 414.577 161.395ZM411.45 130.471C408.922 130.471 401.459 130.888 397.57 135.563C394.996 138.664 394.417 143.11 395.865 148.781C396.862 152.682 399.924 155.94 404.486 157.954C411.402 161.006 420.374 160.586 427.344 156.881C432.778 153.989 436.297 149.89 437.526 145.016C438.08 142.73 438.164 140.355 437.773 138.035C437.381 135.716 436.522 133.5 435.248 131.521C433.022 128.19 427.174 125.802 421.657 125.96C419.29 126.03 415.011 126.663 412.972 130.137C412.907 130.248 412.812 130.339 412.699 130.4C412.585 130.462 412.457 130.49 412.328 130.484C412.296 130.49 411.984 130.471 411.45 130.471Z" fill="black"/>
<path d="M411.158 128.177C411.158 128.177 405.837 124.662 402.742 126.249L408.108 130.901C408.108 130.901 400.738 132.26 403.042 137.327C403.042 137.327 408.861 138.715 412.123 132.781C412.123 132.781 414.271 139.984 418.916 139.493C418.916 139.493 422.352 133.623 415.333 131.325L422.165 129.648C422.165 129.648 415.13 122.544 411.158 128.177Z" fill="#F20505"/>
<path d="M436.162 139.467C436.454 141.665 435.309 143.644 433.608 143.853C431.906 144.062 430.291 142.478 430.001 140.277C429.712 138.076 430.854 136.1 432.556 135.891C434.257 135.682 435.875 137.266 436.162 139.467Z" fill="black"/>
<path d="M394.655 139.872C394.655 139.872 378.893 123.823 369.053 142.741C363.925 152.601 373.556 167.31 387.594 170.742C402.791 174.453 410.225 163.866 411.267 156.495C412.309 149.125 402.858 137.234 394.655 139.872Z" fill="white"/>
<path d="M393.584 172.213C391.507 172.201 389.439 171.94 387.424 171.436C379.35 169.463 371.983 163.497 368.705 156.239C366.454 151.294 366.36 146.388 368.426 142.423C371.35 136.804 375.097 133.616 379.562 132.951C386.742 131.878 393.353 137.661 394.855 139.085C398.072 138.227 401.681 139.297 405.052 142.134C409.694 146.038 412.605 152.123 411.971 156.592C411.572 159.109 410.666 161.52 409.307 163.677C407.949 165.835 406.166 167.695 404.068 169.145C401.063 171.179 397.509 172.213 393.584 172.213ZM381.328 134.236C380.806 134.236 380.285 134.273 379.768 134.349C375.779 134.947 372.385 137.883 369.683 143.075C367.824 146.648 367.937 151.108 370.005 155.651C373.129 162.53 380.099 168.181 387.768 170.057C393.748 171.519 399.111 170.8 403.276 167.982C405.212 166.647 406.857 164.933 408.111 162.945C409.365 160.957 410.202 158.736 410.572 156.415C411.132 152.451 408.369 146.777 404.138 143.242C402.327 141.719 398.712 139.348 394.877 140.582C394.752 140.623 394.618 140.628 394.49 140.596C394.362 140.565 394.246 140.499 394.154 140.405C394.083 140.302 388.022 134.23 381.328 134.23V134.236Z" fill="black"/>
<path d="M394.829 137.873C394.829 137.873 393.205 131.711 389.846 130.831L390.744 137.87C390.744 137.87 384.339 133.979 382.676 139.297C382.676 139.297 386.092 144.203 392.484 141.947C392.484 141.947 389.267 148.749 393.073 151.474C393.073 151.474 399.548 149.379 395.849 142.995L402.06 146.291C402.06 146.291 401.549 136.315 394.829 137.873Z" fill="#F20505"/>
<path d="M378.938 144.723C377.687 146.555 375.525 147.258 374.113 146.294C372.701 145.331 372.556 143.062 373.791 141.228C375.026 139.393 377.204 138.689 378.616 139.653C380.029 140.617 380.173 142.889 378.938 144.723Z" fill="black"/>
<path d="M394.655 140.582C394.479 140.581 394.309 140.515 394.178 140.396C394.047 140.278 393.965 140.115 393.948 139.939C393.896 139.406 392.716 126.805 400.275 119.158C402.746 116.662 406.503 114.104 410.479 111.396C418.167 106.162 426.884 100.231 425.984 94.3413C425.958 94.1565 426.007 93.9691 426.119 93.8197C426.231 93.6703 426.397 93.571 426.582 93.5431C426.767 93.5153 426.955 93.5611 427.106 93.6708C427.257 93.7805 427.359 93.9452 427.389 94.1293C428.419 100.899 419.705 106.83 411.28 112.568C407.362 115.235 403.659 117.754 401.285 120.157C394.189 127.328 395.35 139.673 395.363 139.798C395.381 139.986 395.323 140.174 395.203 140.32C395.082 140.466 394.908 140.558 394.72 140.575L394.655 140.582Z" fill="black"/>
<path d="M411.576 130.693C411.458 130.692 411.343 130.662 411.24 130.606C411.136 130.55 411.049 130.469 410.984 130.371C410.723 129.983 404.618 120.732 409.26 112.311C409.303 112.226 409.363 112.151 409.435 112.09C409.508 112.028 409.593 111.982 409.684 111.954C409.775 111.926 409.871 111.916 409.966 111.926C410.061 111.936 410.153 111.964 410.237 112.01C410.32 112.056 410.394 112.119 410.453 112.193C410.511 112.268 410.555 112.354 410.58 112.446C410.605 112.538 410.611 112.634 410.598 112.729C410.585 112.823 410.553 112.914 410.505 112.996C406.274 120.668 412.113 129.491 412.164 129.581C412.269 129.737 412.307 129.928 412.271 130.112C412.235 130.297 412.127 130.459 411.971 130.564C411.855 130.645 411.717 130.69 411.576 130.693Z" fill="black"/>
<path d="M433.083 117.516C432.947 117.516 432.814 117.477 432.7 117.403C432.585 117.329 432.495 117.223 432.44 117.099C432.379 116.945 432.339 116.784 432.321 116.62C431.066 109.629 426.553 106.017 419.624 106.412C419.529 106.421 419.433 106.411 419.343 106.382C419.252 106.353 419.168 106.306 419.096 106.244C419.023 106.182 418.964 106.106 418.922 106.02C418.88 105.935 418.855 105.842 418.849 105.747C418.844 105.652 418.857 105.557 418.889 105.467C418.921 105.378 418.971 105.295 419.036 105.225C419.1 105.155 419.178 105.099 419.265 105.059C419.351 105.02 419.445 104.998 419.54 104.996C427.283 104.543 432.321 108.581 433.72 116.369C433.72 116.466 433.749 116.536 433.759 116.585C433.814 116.75 433.806 116.931 433.736 117.091C433.666 117.251 433.539 117.38 433.379 117.452C433.286 117.495 433.185 117.517 433.083 117.516Z" fill="black"/>
<path d="M296.469 4.948L273.266 26.1341C273.266 26.1341 294.632 31.3647 296.469 4.948Z" fill="white"/>
<path d="M273.054 25.8994L296.267 4.71329C296.314 4.67072 296.373 4.64311 296.436 4.63396C296.499 4.62481 296.563 4.63453 296.62 4.66189C296.679 4.69103 296.728 4.73742 296.759 4.79485C296.791 4.85228 296.804 4.918 296.797 4.98318C296.176 13.7159 293.371 19.9619 288.475 23.5411C281.72 28.4569 273.276 26.4616 273.192 26.4327C273.137 26.4187 273.086 26.3902 273.046 26.3501C273.005 26.31 272.976 26.2598 272.961 26.2046C272.959 26.195 272.959 26.1853 272.961 26.1757C272.954 26.1255 272.958 26.0744 272.974 26.0264C272.991 25.9783 273.018 25.9348 273.054 25.8994ZM273.945 25.9411C275.956 26.2849 282.631 27.0239 288.099 23.027C292.699 19.6759 295.385 13.8541 296.09 5.72216L273.945 25.9411Z" fill="black"/>
<path d="M279.134 27.0528C279.134 27.0528 268.499 17.3144 270.59 0.266602C270.59 0.266602 281.64 10.8179 279.134 27.0528Z" fill="white"/>
<path d="M279.134 27.3099C279.068 27.3112 279.003 27.2871 278.954 27.2424C278.844 27.1428 268.242 17.2149 270.323 0.228089C270.329 0.178832 270.349 0.132285 270.38 0.0936855C270.412 0.0550862 270.453 0.0259681 270.5 0.00960905C270.546 -0.007686 270.597 -0.0114317 270.645 -0.00118977C270.694 0.0090522 270.738 0.0328581 270.773 0.0674419C270.883 0.173469 281.894 10.9015 279.395 27.085C279.389 27.1354 279.37 27.1833 279.339 27.2231C279.307 27.263 279.265 27.2931 279.218 27.3099C279.19 27.3142 279.162 27.3142 279.134 27.3099ZM270.79 0.854611C269.245 15.422 277.127 24.5918 278.947 26.4874C280.855 12.585 272.684 2.89161 270.79 0.854611Z" fill="black"/>
<path d="M273.698 38.6419C265.656 44.4958 253.634 45.5593 249.124 39.3744C244.615 33.1895 249.321 22.0921 257.369 16.2413C265.418 10.3906 273.775 11.9938 278.278 18.1691C282.782 24.3443 281.746 32.7911 273.698 38.6419Z" fill="black"/>
<path d="M251.875 29.3438C251.825 29.3446 251.776 29.3359 251.73 29.318C251.68 29.2995 251.634 29.2712 251.595 29.2347C251.555 29.1983 251.524 29.1544 251.502 29.1058C251.48 29.0571 251.467 29.0045 251.466 28.951C251.464 28.8976 251.473 28.8443 251.492 28.7943C253.085 24.8008 255.766 21.3328 259.232 18.7828C261.966 16.794 264.838 15.7434 267.544 15.7434C267.652 15.7434 267.756 15.7864 267.833 15.8629C267.909 15.9394 267.952 16.0432 267.952 16.1515C267.952 16.2597 267.909 16.3635 267.833 16.44C267.756 16.5165 267.652 16.5595 267.544 16.5595C265.012 16.5595 262.304 17.5555 259.711 19.4511C256.373 21.9057 253.79 25.2446 252.254 29.0899C252.224 29.1654 252.171 29.2301 252.104 29.2753C252.036 29.3206 251.956 29.3445 251.875 29.3438Z" fill="white"/>
<path d="M291.95 45.0647C288.469 54.3822 279.034 61.8876 271.854 59.2016C264.674 56.5156 262.49 44.692 265.955 35.3777C269.419 26.0634 277.287 22.8119 284.461 25.4787C291.634 28.1454 295.43 35.7504 291.95 45.0647Z" fill="#BFB304"/>
<path d="M264.401 46.716C264.298 46.7155 264.198 46.6763 264.123 46.6061C264.047 46.5358 264.001 46.4398 263.992 46.3369C263.735 42.566 264.273 38.783 265.572 35.233C267.267 30.6963 270.056 27.3549 273.64 25.5653C275.334 24.7318 277.184 24.2597 279.072 24.179C280.959 24.0982 282.843 24.4106 284.602 25.0962C284.653 25.1148 284.698 25.143 284.738 25.1793C284.777 25.2156 284.808 25.2592 284.831 25.3077C284.853 25.3562 284.865 25.4085 284.867 25.4618C284.869 25.5151 284.861 25.5683 284.842 25.6183C284.824 25.6683 284.795 25.7142 284.759 25.7532C284.723 25.7923 284.679 25.8239 284.63 25.8461C284.582 25.8683 284.529 25.8808 284.476 25.8828C284.423 25.8848 284.369 25.8762 284.319 25.8577C282.663 25.2123 280.891 24.9179 279.115 24.9931C277.339 25.0683 275.598 25.5116 274.003 26.2946C270.609 27.9878 267.959 31.1654 266.35 35.519C265.088 38.9538 264.561 42.6153 264.806 46.2662C264.81 46.3194 264.804 46.3729 264.787 46.4235C264.77 46.4741 264.743 46.5209 264.708 46.5612C264.673 46.6015 264.631 46.6345 264.583 46.6583C264.535 46.6822 264.483 46.6963 264.43 46.7L264.401 46.716Z" fill="white"/>
<path d="M305.602 182.527C336.909 182.527 362.288 176.105 362.288 168.184C362.288 160.263 336.909 153.842 305.602 153.842C274.295 153.842 248.915 160.263 248.915 168.184C248.915 176.105 274.295 182.527 305.602 182.527Z" fill="white"/>
<path d="M305.595 183.282C277.361 183.282 248.153 177.633 248.153 168.181C248.153 158.728 277.361 153.08 305.595 153.08C333.829 153.08 363.041 158.728 363.041 168.181C363.041 177.633 333.839 183.282 305.595 183.282ZM305.595 154.593C272.141 154.593 249.665 161.62 249.665 168.184C249.665 174.748 272.141 181.772 305.595 181.772C339.05 181.772 361.529 174.745 361.529 168.184C361.529 161.623 339.05 154.593 305.595 154.593Z" fill="black"/>
<path d="M256.996 166.407C258.353 166.497 259.65 166.989 261.004 167.118C262.358 167.246 263.928 166.88 264.565 165.752C264.822 165.296 264.887 164.762 265.125 164.293C266.067 162.366 269.268 162.423 270.886 163.895C271.494 164.444 272.141 165.199 272.974 165.058C273.368 164.95 273.727 164.74 274.013 164.448C276.601 162.324 279.765 161.021 283.1 160.704C284.208 160.551 285.337 160.661 286.394 161.026C288.231 161.758 289.318 163.625 291.136 164.393C293.674 165.463 296.556 164.072 298.959 162.748C301.362 161.424 304.35 160.142 306.792 161.395C307.966 161.996 308.864 163.143 310.186 163.342C311.73 163.58 313.081 162.439 314.441 161.736C318.347 159.715 323.941 161.62 325.543 165.514C326.746 164.55 327.974 163.586 329.432 163.024C330.889 162.462 332.648 162.382 333.99 163.15C335.331 163.917 336.216 165.601 337.811 165.929C339.597 166.295 341.157 164.817 342.904 164.303C345.532 163.529 348.658 165.453 348.938 168.02C351.103 166.767 354.166 167.089 355.98 168.763C356.591 169.325 357.103 170.048 357.91 170.327C358.804 170.649 359.933 170.375 360.651 170.97C361.783 171.902 360.615 173.62 359.364 174.417C356.002 176.586 351.943 177.553 347.976 178.453C340.826 180.059 333.633 181.598 326.327 182.401C306.155 184.618 285.796 182.292 265.829 178.867C261.307 178.069 257 176.345 253.178 173.804C251.283 172.518 249.794 171.281 251.215 169.167C252.406 167.394 254.77 166.266 256.996 166.407Z" fill="#BFB304"/>
<path d="M309.777 184.005C294.121 184.005 279.021 181.871 265.707 179.603C261.079 178.786 256.67 177.021 252.759 174.417C251.225 173.373 248.655 171.622 250.595 168.737C251.92 166.764 254.571 165.495 257.044 165.656C257.795 165.724 258.539 165.85 259.27 166.035C259.864 166.179 260.467 166.287 261.075 166.356C262.152 166.459 263.446 166.192 263.906 165.373C264.009 165.167 264.092 164.952 264.153 164.73C264.232 164.465 264.33 164.205 264.446 163.953C264.697 163.471 265.06 163.055 265.503 162.74C265.947 162.425 266.459 162.22 266.997 162.141C267.772 161.997 268.57 162.028 269.331 162.234C270.092 162.439 270.797 162.812 271.394 163.326L271.652 163.564C272.07 163.959 272.498 164.364 272.845 164.303C273.088 164.216 273.307 164.075 273.488 163.892C276.199 161.652 279.521 160.276 283.023 159.943C283.972 159.853 285.384 159.792 286.671 160.306C287.726 160.727 288.53 161.447 289.302 162.144C289.921 162.769 290.64 163.287 291.429 163.676C293.632 164.608 296.283 163.333 298.592 162.07C301.114 160.688 304.363 159.288 307.133 160.708C307.611 160.968 308.066 161.27 308.49 161.611C309.092 162.064 309.664 162.494 310.305 162.59C311.234 162.735 312.145 162.186 313.116 161.611C313.438 161.415 313.759 161.222 314.1 161.051C316.214 159.959 318.845 159.85 321.319 160.756C323.188 161.395 324.779 162.66 325.822 164.335C326.837 163.499 327.968 162.816 329.181 162.308C331.027 161.598 332.973 161.665 334.389 162.484C334.989 162.864 335.539 163.318 336.026 163.834C336.669 164.476 337.245 165.026 337.982 165.177C338.876 165.363 339.767 164.913 340.797 164.393C341.406 164.059 342.046 163.782 342.707 163.567C343.501 163.354 344.331 163.315 345.14 163.453C345.95 163.592 346.72 163.903 347.397 164.367C348.347 164.981 349.075 165.881 349.475 166.938C351.817 166.044 354.69 166.523 356.511 168.203C356.678 168.358 356.832 168.525 357 168.689C357.32 169.08 357.723 169.396 358.18 169.614C358.495 169.703 358.819 169.753 359.145 169.765C359.789 169.816 360.535 169.877 361.146 170.379C361.393 170.576 361.588 170.829 361.716 171.118C361.843 171.407 361.9 171.722 361.879 172.037C361.812 173.232 360.786 174.408 359.801 175.044C356.205 177.36 351.759 178.369 348.169 179.179C341.639 180.657 334.041 182.305 326.437 183.14C320.904 183.732 315.342 184.021 309.777 184.005ZM256.607 167.153C254.751 167.153 252.83 168.117 251.849 169.579C250.974 170.883 251.334 171.619 253.609 173.171C257.34 175.653 261.546 177.335 265.961 178.112C283.83 181.164 304.971 183.969 326.25 181.627C333.778 180.801 341.327 179.163 347.803 177.694C351.267 176.911 355.578 175.934 358.949 173.762C359.698 173.28 360.306 172.477 360.339 171.937C360.347 171.859 360.334 171.781 360.302 171.71C360.27 171.639 360.219 171.577 360.155 171.532C359.911 171.33 359.483 171.298 358.988 171.256C358.53 171.239 358.076 171.16 357.64 171.021C356.961 170.737 356.359 170.297 355.883 169.736C355.742 169.588 355.6 169.444 355.452 169.306C353.882 167.86 351.184 167.577 349.305 168.663C349.196 168.727 349.073 168.762 348.948 168.766C348.822 168.77 348.697 168.742 348.584 168.685C348.472 168.628 348.376 168.544 348.304 168.44C348.232 168.336 348.187 168.216 348.173 168.091C348.095 167.585 347.907 167.103 347.623 166.678C347.338 166.253 346.964 165.895 346.526 165.63C346.033 165.288 345.472 165.057 344.881 164.951C344.291 164.845 343.684 164.867 343.103 165.016C342.531 165.209 341.976 165.452 341.446 165.742C340.33 166.308 339.066 166.95 337.644 166.658C336.47 166.417 335.656 165.62 334.936 164.913C334.536 164.488 334.087 164.111 333.597 163.792C332.578 163.201 331.117 163.172 329.692 163.718C328.325 164.245 327.145 165.187 326.003 166.096C325.911 166.169 325.803 166.22 325.689 166.244C325.574 166.269 325.455 166.266 325.342 166.237C325.228 166.208 325.123 166.152 325.034 166.076C324.946 165.999 324.876 165.902 324.832 165.794C324.188 164.187 322.699 162.876 320.778 162.176C318.736 161.427 316.491 161.508 314.776 162.394C314.474 162.552 314.174 162.732 313.869 162.912C312.765 163.554 311.514 164.306 310.057 164.088C309.04 163.93 308.256 163.339 307.561 162.819C307.207 162.536 306.831 162.283 306.435 162.064C304.296 160.968 301.503 162.205 299.31 163.407C296.688 164.843 293.651 166.272 290.83 165.084C289.885 164.631 289.023 164.022 288.282 163.281C287.575 162.639 286.906 162.044 286.102 161.723C285.352 161.424 284.416 161.341 283.158 161.463C279.97 161.759 276.945 163.004 274.473 165.036C274.092 165.403 273.62 165.662 273.106 165.787C272.009 165.974 271.205 165.215 270.616 164.66L270.381 164.441C269.955 164.088 269.458 163.832 268.923 163.69C268.388 163.549 267.828 163.525 267.283 163.622C266.977 163.66 266.683 163.77 266.427 163.943C266.17 164.115 265.958 164.345 265.807 164.615C265.724 164.799 265.654 164.989 265.598 165.183C265.507 165.505 265.382 165.817 265.225 166.112C264.379 167.616 262.448 167.998 260.937 167.856C260.264 167.778 259.596 167.657 258.939 167.493C258.286 167.327 257.622 167.212 256.951 167.15C256.835 167.156 256.719 167.153 256.607 167.153Z" fill="black"/>
<path d="M248.539 169.322C262.522 234.3 352.464 236.559 362.291 168.567C350.952 188.188 262.522 187.247 248.539 169.322Z" fill="white"/>
<path d="M307.397 219.559C294.404 219.55 281.764 215.337 271.369 207.552C259.36 198.534 251.203 185.383 247.783 169.473C247.748 169.306 247.771 169.132 247.847 168.98C247.924 168.828 248.05 168.706 248.204 168.634C248.359 168.562 248.533 168.544 248.699 168.584C248.865 168.624 249.013 168.718 249.118 168.853C257.285 179.324 292.258 183.735 319.981 181.814C342.006 180.287 357.572 175.192 361.619 168.184C361.707 168.033 361.845 167.916 362.009 167.855C362.174 167.794 362.355 167.792 362.52 167.849C362.686 167.907 362.827 168.02 362.918 168.169C363.01 168.319 363.046 168.496 363.021 168.669C357.768 205.033 330.853 218.791 309.404 219.524C308.741 219.547 308.072 219.559 307.397 219.559ZM249.9 171.808C258.238 204.645 286.294 218.801 309.369 218.014C329.634 217.323 354.954 204.638 361.062 171.388C354.992 177.624 340.407 181.913 320.103 183.32C293.211 185.184 260.953 181.338 249.9 171.808Z" fill="black"/>
<path d="M290.235 104.696C295.771 111.996 298.953 126.095 286.018 135.881C273.685 145.224 260.953 138.339 255.413 131.043C249.999 123.903 249.096 113.77 259.611 106.023C259.82 105.869 262.587 104.815 262.799 104.655C263.011 104.494 265.279 101.734 265.446 101.609C275.93 93.6794 284.799 97.5252 290.235 104.696Z" fill="#A60303"/>
<path d="M263.909 106.007C259.669 97.8081 263.716 91.922 268.149 87.2407C274.627 92.5806 270.162 98.5245 263.909 106.007Z" fill="white"/>
<path d="M264.369 106.608C264.281 106.676 264.179 106.723 264.071 106.747C263.963 106.77 263.851 106.77 263.743 106.746C263.635 106.722 263.534 106.674 263.446 106.607C263.359 106.539 263.287 106.453 263.236 106.355C258.81 97.7922 262.96 91.6265 267.602 86.7204C267.733 86.5806 267.913 86.4963 268.104 86.485C268.296 86.4736 268.484 86.536 268.631 86.6593C270.735 88.3911 271.848 90.261 272.047 92.3752C272.44 96.6002 269.014 101.079 264.491 106.493C264.453 106.535 264.413 106.573 264.369 106.608ZM268.203 88.2947C264.153 92.6997 261.052 97.7472 264.083 104.626C267.997 99.8934 270.86 95.9511 270.542 92.5197C270.404 91 269.635 89.6152 268.203 88.2883V88.2947Z" fill="black"/>
<path d="M263.529 106.506L257.588 101.207C257.476 101.107 257.386 100.985 257.322 100.849C257.259 100.713 257.223 100.566 257.218 100.416C257.213 100.266 257.238 100.116 257.292 99.9764C257.347 99.8363 257.428 99.7087 257.533 99.601C258.139 98.9392 258.872 98.406 259.688 98.0331C259.846 97.9705 260.013 97.9395 260.183 97.9418C260.352 97.9441 260.519 97.9797 260.674 98.0465C260.83 98.1134 260.97 98.2101 261.088 98.3313C261.206 98.4525 261.299 98.5958 261.361 98.7528L264.359 106.088C264.234 106.454 263.906 106.515 263.529 106.506Z" fill="black"/>
<path d="M265.224 102.676C265.089 102.778 264.924 102.833 264.754 102.83C264.584 102.827 264.42 102.767 264.289 102.66C264.157 102.552 264.066 102.404 264.029 102.239C263.992 102.073 264.012 101.9 264.086 101.747C266.453 96.8861 267.154 94.6788 267.653 90.4795C267.659 90.3769 267.686 90.2766 267.733 90.1849C267.779 90.0931 267.844 90.0118 267.923 89.9459C268.002 89.8799 268.093 89.8308 268.192 89.8014C268.29 89.7721 268.394 89.7632 268.496 89.7752C268.598 89.7873 268.697 89.82 268.786 89.8715C268.875 89.923 268.953 89.992 269.014 90.0745C269.076 90.157 269.12 90.2511 269.143 90.3512C269.167 90.4512 269.17 90.555 269.152 90.6562C268.637 95.0033 267.865 97.4034 265.443 102.409C265.393 102.515 265.318 102.606 265.224 102.676Z" fill="black"/>
<path d="M369.793 66.0355V66.0001C371.079 60.8112 362.256 46.3659 347.233 41.9449C334.672 38.234 318.462 41.7682 315.686 49.5788C315.205 51.0193 315.079 52.5549 315.32 54.0544C315.146 55.7339 315.34 57.431 315.889 59.028C317.346 63.0892 321.068 64.9784 323.834 66.3825C330.107 69.5633 330.065 72.0661 337.023 74.3859C345.738 77.2775 348.282 77.2775 355.446 77.8012C356.765 77.8976 361.934 78.2735 365.74 74.7778C368.249 72.4677 369.728 68.866 369.793 66.0355Z" fill="white"/>
<path d="M336.103 74.8613C332.488 73.5761 330.799 72.1914 329.026 70.7391C327.339 69.2919 325.483 68.0524 323.5 67.0475C320.647 65.6016 316.745 63.6193 315.184 59.2754C314.611 57.6028 314.401 55.8272 314.57 54.0672C314.332 52.4735 314.475 50.8462 314.988 49.3185C317.883 41.254 333.967 37.2411 347.478 41.2155C362.899 45.7553 371.903 60.4577 370.568 66.135C370.465 69.3704 368.744 73.0524 366.27 75.3272C364.424 77.0204 361.043 78.9578 355.41 78.5401L353.802 78.4277C347.69 77.9971 344.914 77.8011 336.785 75.0894C336.547 75.0252 336.322 74.9481 336.103 74.8613ZM348.816 43.246C348.231 43.0372 347.635 42.8412 347.027 42.6645C334.447 38.96 318.99 42.5778 316.397 49.8261C315.962 51.1503 315.851 52.5597 316.076 53.9355C316.084 53.9952 316.084 54.0557 316.076 54.1154C315.914 55.6858 316.093 57.2724 316.6 58.7677C317.954 62.5461 321.406 64.2972 324.175 65.7012C326.251 66.754 328.194 68.0481 329.966 69.5568C331.825 71.0701 333.43 72.3841 337.255 73.6533C345.2 76.3039 347.928 76.4967 353.899 76.9176L355.507 77.0333C360.596 77.4027 363.604 75.6999 365.231 74.2059C367.409 72.201 368.979 68.8274 369.043 66C369.046 65.935 369.056 65.8704 369.072 65.8073V65.7751C370.156 61.367 362.613 48.194 348.816 43.2525V43.246Z" fill="black"/>
<path d="M331.481 44.3898C331.206 44.2916 330.966 44.1141 330.792 43.8799C330.618 43.6457 330.518 43.3653 330.504 43.074C330.489 42.7828 330.562 42.4938 330.712 42.2436C330.862 41.9935 331.082 41.7933 331.346 41.6685C331.61 41.5437 331.905 41.4998 332.194 41.5424C332.483 41.585 332.752 41.7122 332.969 41.9078C333.185 42.1035 333.339 42.3589 333.41 42.6417C333.481 42.9244 333.467 43.222 333.369 43.4966C333.237 43.8648 332.964 44.1655 332.61 44.333C332.256 44.5004 331.85 44.5208 331.481 44.3898ZM331.947 42.989C331.945 42.9976 331.945 43.0067 331.949 43.0149C331.952 43.0231 331.959 43.0299 331.966 43.034L331.947 42.989Z" fill="black"/>
<path d="M330.381 49.1578C330.133 49.069 329.916 48.9087 329.76 48.6971C329.603 48.4855 329.512 48.2323 329.5 47.9693C329.487 47.7064 329.553 47.4456 329.689 47.22C329.824 46.9945 330.024 46.8142 330.263 46.7021C330.501 46.59 330.768 46.5511 331.028 46.5903C331.289 46.6295 331.532 46.745 331.727 46.9223C331.922 47.0996 332.059 47.3306 332.123 47.5861C332.186 47.8417 332.172 48.1102 332.082 48.3578C331.963 48.6889 331.716 48.9591 331.397 49.1091C331.078 49.2591 330.713 49.2766 330.381 49.1578ZM330.889 47.7377C330.867 47.7296 330.843 47.726 330.82 47.7271C330.796 47.7282 330.773 47.734 330.752 47.7442C330.73 47.7544 330.711 47.7687 330.696 47.7864C330.68 47.804 330.668 47.8246 330.661 47.8469C330.593 48.0333 330.931 48.1682 330.982 47.969C330.992 47.9475 330.997 47.9243 330.997 47.9008C330.998 47.8774 330.994 47.854 330.985 47.8322C330.976 47.8103 330.963 47.7904 330.947 47.7736C330.93 47.7569 330.911 47.7435 330.889 47.7345V47.7377Z" fill="black"/>
<path d="M350.418 48.0236C349.479 47.6863 348.97 46.7963 349.257 45.993C349.543 45.1898 350.505 44.8267 351.444 45.1641C352.384 45.5015 352.892 46.3914 352.605 47.1915C352.319 47.9915 351.354 48.361 350.418 48.0236ZM350.83 46.5553C350.893 46.5911 350.961 46.6161 351.032 46.6292C350.969 46.5951 350.9 46.5703 350.83 46.5553Z" fill="black"/>
<path d="M357.18 55.5838C356.876 55.4747 356.612 55.2782 356.42 55.0192C356.229 54.7601 356.118 54.4502 356.103 54.1285C356.088 53.8067 356.168 53.4877 356.334 53.2117C356.501 52.9357 356.745 52.715 357.037 52.5777C357.328 52.4403 357.654 52.3924 357.973 52.44C358.292 52.4876 358.59 52.6285 358.828 52.845C359.067 53.0615 359.236 53.3438 359.314 53.6563C359.393 53.9688 359.376 54.2974 359.267 54.6006C359.195 54.8022 359.084 54.9875 358.94 55.146C358.795 55.3046 358.621 55.4332 358.428 55.5245C358.234 55.6158 358.024 55.668 357.81 55.6782C357.595 55.6884 357.381 55.6563 357.18 55.5838ZM357.772 53.9355C357.741 53.9252 357.708 53.9271 357.679 53.941C357.65 53.9548 357.628 53.9794 357.617 54.0094C357.572 54.1347 357.801 54.215 357.846 54.0897C357.853 54.074 357.857 54.057 357.857 54.0397C357.857 54.0225 357.853 54.0054 357.846 53.9896C357.839 53.9738 357.829 53.9597 357.816 53.9481C357.803 53.9366 357.788 53.9279 357.772 53.9227V53.9355Z" fill="black"/>
<path d="M352.21 53.1709C351.96 53.0817 351.742 52.9204 351.584 52.7075C351.426 52.4947 351.335 52.2398 351.322 51.9751C351.309 51.7104 351.375 51.4478 351.511 51.2205C351.647 50.9932 351.848 50.8114 352.088 50.6981C352.328 50.5849 352.596 50.5452 352.859 50.5841C353.121 50.6231 353.366 50.7389 353.563 50.9169C353.759 51.0949 353.898 51.3272 353.963 51.5843C354.027 51.8414 354.014 52.1118 353.924 52.3612C353.804 52.6956 353.556 52.9688 353.235 53.1206C352.913 53.2724 352.545 53.2905 352.21 53.1709ZM352.718 51.7476C352.675 51.7331 352.628 51.7362 352.587 51.756C352.546 51.7758 352.515 51.8109 352.499 51.8536C352.438 52.0303 352.757 52.1428 352.821 51.9661C352.829 51.945 352.832 51.9226 352.831 51.9002C352.83 51.8777 352.825 51.8557 352.815 51.8354C352.805 51.8151 352.792 51.7969 352.775 51.7818C352.759 51.7668 352.739 51.7551 352.718 51.7476Z" fill="black"/>
<path d="M362.23 60.8722C360.943 60.416 360.229 59.1662 360.622 58.0866C361.014 57.0071 362.362 56.4994 363.639 56.9557C364.916 57.4119 365.64 58.6649 365.247 59.7445C364.855 60.824 363.498 61.3317 362.23 60.8722ZM363.124 58.3758C362.616 58.1926 362.13 58.3404 362.04 58.5943C361.95 58.8481 362.23 59.269 362.738 59.4521C363.247 59.6352 363.732 59.4875 363.826 59.2336C363.919 58.9798 363.636 58.5589 363.124 58.3758Z" fill="black"/>
<path d="M360.1 75.4012L354.391 77.4317L351.1 71.9473L344.74 73.2003L341.569 69.3448L335.418 69.9713L330.483 64.6089L323.825 66.9736L320.019 60.6345L319.595 60.7855L315.358 81.5764C314.638 85.1106 317.134 88.8505 321.168 90.2963L340.227 97.1238C344.264 98.5696 348.572 97.2652 350.264 94.0844L360.146 75.4879L360.1 75.4012Z" fill="black"/>
<path d="M328.56 88.9981C328.371 88.9312 328.216 88.7921 328.13 88.6114C328.044 88.4306 328.033 88.223 328.1 88.0343L333.665 71.9696C333.731 71.7802 333.87 71.6248 334.051 71.5375C334.232 71.4501 334.44 71.438 334.63 71.5037C334.819 71.5706 334.974 71.7097 335.06 71.8905C335.146 72.0712 335.157 72.2788 335.09 72.4676L329.525 88.5323C329.493 88.6265 329.442 88.7135 329.376 88.7881C329.31 88.8627 329.23 88.9234 329.14 88.9668C329.05 89.0101 328.953 89.0352 328.853 89.0406C328.754 89.046 328.654 89.0315 328.56 88.9981Z" fill="white"/>
<path d="M337.084 92.6546H337.059C336.872 92.5809 336.723 92.4362 336.643 92.2525C336.563 92.0687 336.56 91.8608 336.634 91.6746L342.849 76.0566C342.921 75.8725 343.062 75.724 343.243 75.6429C343.423 75.5618 343.628 75.5546 343.814 75.6228H343.84C344.022 75.6972 344.167 75.8395 344.246 76.0194C344.325 76.1994 344.33 76.4029 344.261 76.5867L338.04 92.2112C337.97 92.3953 337.831 92.5448 337.653 92.6277C337.474 92.7105 337.27 92.7202 337.084 92.6546Z" fill="white"/>
<path d="M320.428 86.4856C320.256 86.4249 320.113 86.3043 320.023 86.146C319.934 85.9877 319.905 85.8025 319.942 85.6246L323.159 69.939C323.207 69.7507 323.325 69.5879 323.49 69.4846C323.654 69.3813 323.853 69.3453 324.043 69.3842C324.234 69.4231 324.402 69.5338 324.513 69.6934C324.624 69.853 324.669 70.0491 324.639 70.241L321.422 85.9298C321.402 86.0269 321.364 86.1192 321.308 86.2013C321.253 86.2834 321.181 86.3536 321.099 86.408C321.016 86.4624 320.923 86.4998 320.825 86.5181C320.728 86.5364 320.628 86.5352 320.531 86.5145C320.496 86.5083 320.461 86.4986 320.428 86.4856Z" fill="white"/>
<path d="M438.507 39.4935L427.444 49.0295C427.042 49.376 426.52 49.5501 425.991 49.514C425.461 49.4779 424.967 49.2345 424.616 48.8367L422.082 46.3756C421.498 45.8088 420.723 45.48 419.909 45.4532C419.096 45.4265 418.301 45.7038 417.681 46.231L328 122.602C327.669 122.884 327.397 123.228 327.2 123.615C327.003 124.002 326.884 124.425 326.851 124.858C326.818 125.291 326.871 125.726 327.007 126.138C327.143 126.551 327.359 126.932 327.643 127.261L329.139 128.99C329.51 129.419 329.695 129.978 329.653 130.544C329.612 131.11 329.347 131.636 328.917 132.007L317.951 141.462C316.223 144.28 318.372 149.077 322.397 146.603L332.69 137.722C332.991 137.464 333.341 137.267 333.718 137.143C334.095 137.019 334.493 136.971 334.89 137C335.286 137.03 335.672 137.138 336.027 137.317C336.381 137.496 336.697 137.743 336.956 138.044L339.362 140.829C339.629 141.139 339.955 141.393 340.321 141.576C340.687 141.76 341.086 141.87 341.494 141.9C341.902 141.93 342.313 141.879 342.701 141.75C343.09 141.622 343.449 141.418 343.759 141.151L433.231 64.0146C433.913 63.4258 434.334 62.5906 434.4 61.6924C434.467 60.7943 434.173 59.9065 433.585 59.2241L432.186 57.6176C431.706 57.0613 431.466 56.3375 431.52 55.605C431.573 54.8726 431.916 54.1913 432.472 53.7107L442.952 44.6374C444.332 40.4541 441.685 38.9376 438.507 39.4935Z" fill="white"/>
<path d="M433.717 64.58L344.245 141.69C343.466 142.361 342.453 142.695 341.428 142.62C340.402 142.545 339.449 142.066 338.776 141.289L336.37 138.503C335.977 138.049 335.419 137.77 334.82 137.726C334.221 137.682 333.628 137.877 333.173 138.269L322.879 147.149L322.783 147.22C320.154 148.826 318.478 147.618 317.88 147.021C316.426 145.572 316.162 142.889 317.295 141.038C317.337 140.973 317.388 140.913 317.446 140.861L328.409 131.409C328.686 131.169 328.858 130.829 328.885 130.464C328.912 130.098 328.793 129.737 328.553 129.459L327.058 127.727C326.71 127.325 326.444 126.859 326.277 126.354C326.109 125.85 326.043 125.317 326.082 124.787C326.121 124.257 326.264 123.74 326.503 123.265C326.742 122.791 327.073 122.368 327.476 122.021L327.495 122.005L417.176 45.6334C417.937 44.9792 418.917 44.6344 419.921 44.6671C420.924 44.6998 421.879 45.1077 422.596 45.8101L425.128 48.2712C425.235 48.4034 425.368 48.513 425.518 48.5936C425.669 48.6742 425.833 48.7242 426.003 48.7406C426.173 48.757 426.344 48.7396 426.507 48.6894C426.67 48.6391 426.821 48.557 426.952 48.4479L438.011 38.9119C438.115 38.8236 438.24 38.7648 438.375 38.7416C440.443 38.3786 442.203 38.8316 443.2 39.9818C443.885 40.7754 444.525 42.2662 443.67 44.8623C443.627 44.9931 443.549 45.1098 443.444 45.1996L432.954 54.2408C432.551 54.5908 432.303 55.0861 432.264 55.6185C432.226 56.1508 432.4 56.6767 432.749 57.081L434.145 58.6875C434.506 59.1013 434.783 59.5826 434.957 60.1036C435.131 60.6246 435.201 61.175 435.161 61.7229C435.121 62.2708 434.973 62.8054 434.725 63.2958C434.477 63.7862 434.135 64.2227 433.717 64.58ZM321.937 145.976L332.188 137.138C332.948 136.485 333.936 136.16 334.935 136.234C335.934 136.307 336.863 136.773 337.519 137.53L339.925 140.315C340.335 140.789 340.916 141.08 341.541 141.126C342.165 141.172 342.783 140.968 343.257 140.559L432.729 63.4234C433.259 62.9646 433.585 62.3148 433.637 61.6163C433.688 60.9177 433.46 60.2274 433.003 59.6964L431.603 58.0899C430.995 57.3817 430.692 56.462 430.76 55.5315C430.828 54.601 431.262 53.7351 431.967 53.1227L442.309 44.2036C442.631 43.1658 442.804 41.8292 442.068 40.9907C441.466 40.2935 440.273 40.0075 438.851 40.2131L427.952 49.611C427.396 50.0894 426.672 50.328 425.939 50.2744C425.206 50.2208 424.525 49.8794 424.044 49.325L421.554 46.9121C421.107 46.4734 420.511 46.2183 419.884 46.1975C419.257 46.1767 418.646 46.3916 418.17 46.7997L328.489 123.171C327.977 123.612 327.659 124.236 327.605 124.909C327.578 125.243 327.618 125.578 327.723 125.896C327.828 126.214 327.996 126.508 328.216 126.76L329.712 128.492C329.96 128.779 330.149 129.113 330.269 129.474C330.388 129.835 330.435 130.216 330.407 130.594C330.379 130.973 330.276 131.343 330.105 131.682C329.934 132.022 329.697 132.324 329.409 132.572L318.527 141.938C317.816 143.2 317.996 145.019 318.945 145.964C319.894 146.908 321.074 146.51 321.937 145.976Z" fill="black"/>
</g>
<defs>
<clipPath id="clip0_9_421">
<rect width="457" height="570" fill="white"/>
</clipPath>
</defs>
</svg>
